<svg width="24" height="24" viewBox="0 0 24 24" fill="none" xmlns="http://www.w3.org/2000/svg">
<g clip-path="url(#clip0_34_298)">
<path d="M6.24953 18.5312C4.6486 18.5312 3.22456 17.5061 2.70746 15.9801L2.67248 15.8651C2.55053 15.461 2.49944 15.1211 2.49944 14.7811V7.9628L0.0734183 16.061C-0.238601 17.2521 0.472415 18.487 1.66538 18.8161L17.1288 22.9573C17.3218 23.0073 17.5148 23.0313 17.7049 23.0313C18.7008 23.0313 19.6109 22.3703 19.866 21.3961L20.7669 18.5312H6.24953Z" fill="#99A7C7"/>
<path d="M8.99962 8.03092C10.1027 8.03092 10.9995 7.13387 10.9995 6.03081C10.9995 4.92776 10.1027 4.0307 8.99962 4.0307C7.89657 4.0307 6.99951 4.92776 6.99951 6.03081C6.99951 7.13387 7.89657 8.03092 8.99962 8.03092Z" fill="#99A7C7"/>
<path d="M21.4999 1.03061H6.49951C5.12161 1.03061 3.99951 2.15271 3.99951 3.53079V14.5309C3.99951 15.909 5.12161 17.0311 6.49951 17.0311H21.4999C22.878 17.0311 24.0001 15.909 24.0001 14.5309V3.53079C24.0001 2.15271 22.878 1.03061 21.4999 1.03061V1.03061ZM6.49951 3.03072H21.4999C21.776 3.03072 22 3.25466 22 3.53079V10.63L18.8409 6.94378C18.5058 6.55083 18.0208 6.3408 17.4998 6.3289C16.9818 6.33183 16.4959 6.56181 16.1639 6.95989L12.4497 11.4179L11.2397 10.2108C10.5558 9.52691 9.44264 9.52691 8.75964 10.2108L5.99962 12.9699V3.53079C5.99962 3.25466 6.22357 3.03072 6.49951 3.03072V3.03072Z" fill="#99A7C7"/>
</g>
<defs>
<clipPath id="clip0_34_298">
<rect width="24" height="24" fill="white"/>
</clipPath>
</defs>
</svg>
