<svg xmlns="http://www.w3.org/2000/svg" version="1.1" xmlns:xlink="http://www.w3.org/1999/xlink" xmlns:svgjs="http://svgjs.com/svgjs" width="512" height="512" x="0" y="0" viewBox="0 0 510 510" style="enable-background:new 0 0 512 512" xml:space="preserve" class=""><g><g id="XMLID_1801_"><circle id="XMLID_1907_" cx="252.973" cy="210" r="75" fill="#99a8c7" data-original="#000000" class=""></circle><path id="XMLID_1908_" d="m447.973 255c0-16.542-13.457-30-30-30-16.542 0-30 13.458-30 30 0 5.463 1.475 10.584 4.036 15h-43.768l-4.333 7.487c-18.743 32.391-53.586 52.513-90.935 52.513-37.348 0-72.192-20.122-90.935-52.513l-4.332-7.487h-95.679l7.069 19.999c12.448 35.217 34.454 65.736 63.877 88.707v131.294h240v-131.294c29.424-22.971 51.431-53.49 63.878-88.707l7.04-19.919c2.59-4.433 4.082-9.585 4.082-15.08z" fill="#99a8c7" data-original="#000000" class=""></path><circle id="XMLID_1909_" cx="252.973" cy="30" r="30" fill="#99a8c7" data-original="#000000" class=""></circle><circle id="XMLID_1910_" cx="387.973" cy="120" r="30" fill="#99a8c7" data-original="#000000" class=""></circle><circle id="XMLID_1911_" cx="117.973" cy="90" r="30" fill="#99a8c7" data-original="#000000" class=""></circle></g></g></svg>