<svg width="25" height="24" viewBox="0 0 25 24" fill="none" xmlns="http://www.w3.org/2000/svg">
<g clip-path="url(#clip0_34_343)">
<path d="M4.15337 5.08722C4.90923 2.45449 7.42129 0.590271 10.3071 0.590271C11.9708 0.590271 13.5521 1.20958 14.7363 2.30782C15.465 1.91158 16.285 1.70463 17.1417 1.70463C19.6347 1.70463 21.7137 3.52352 21.9989 5.85133C23.759 6.56454 25 8.22776 25 10.1813C25 13.5784 21.3406 15.8503 18.1216 14.468C16.7848 15.9349 14.8337 16.7949 12.7853 16.7949C10.9082 16.7949 9.12012 16.0797 7.79277 14.8151C4.20942 16.5029 0 13.9842 0 10.1448C0 7.74082 1.72549 5.64724 4.15337 5.08722Z" fill="#99A7C7"/>
<path d="M7.71484 16.3785C9.19565 16.3785 10.4004 17.535 10.4004 18.9566C10.4004 20.3782 9.19565 21.5347 7.71484 21.5347C6.23403 21.5347 5.0293 20.3782 5.0293 18.9566C5.0293 17.535 6.23403 16.3785 7.71484 16.3785Z" fill="#99A7C7"/>
<path d="M2.19727 19.191C3.40884 19.191 4.39453 20.1372 4.39453 21.3004C4.39453 22.4635 3.40884 23.4097 2.19727 23.4097C0.985693 23.4097 0 22.4635 0 21.3004C0 20.1372 0.985693 19.191 2.19727 19.191Z" fill="#99A7C7"/>
</g>
<defs>
<clipPath id="clip0_34_343">
<rect width="25" height="24" fill="white" transform="matrix(-1 0 0 1 25 0)"/>
</clipPath>
</defs>
</svg>
