<svg width="26" height="26" viewBox="0 0 26 26" fill="none" xmlns="http://www.w3.org/2000/svg">
<path d="M9.14062 7.66801V2.33598C9.14062 1.91531 9.48167 1.57426 9.90234 1.57426C10.323 1.57426 10.6641 1.91531 10.6641 2.33598V7.66801H9.14062Z" fill="#99A7C7"/>
<path d="M6.85544 22.9023C6.24505 22.9023 5.67123 22.6647 5.23959 22.233C2.95647 19.9499 1.1639 17.1966 0 14.1553V23.664C0 24.0845 0.341249 24.4257 0.761716 24.4257H19.0429C19.4634 24.4257 19.8046 24.0845 19.8046 23.664V22.9023H6.85544Z" fill="#99A7C7"/>
<path d="M25.777 20.0784C21.9816 16.283 19.8046 11.117 19.8046 5.90538V5.38284C19.8046 4.96237 19.4634 4.62112 19.0429 4.62112H12.1875V8.4297C12.1875 8.85017 11.8462 9.19142 11.4257 9.19142H8.37887C7.95841 9.19142 7.61716 8.85017 7.61716 8.4297V4.62112H0.761716C0.341249 4.62112 0 4.96237 0 5.38284V5.90538C0 11.7747 2.37503 17.2143 6.31666 21.1559C6.45986 21.2986 6.65333 21.3789 6.85544 21.3789H25.2382C25.5464 21.3789 25.8242 21.1935 25.942 20.9086C26.0598 20.6243 25.9948 20.2962 25.777 20.0784V20.0784ZM9.90231 10.7149H15.996C16.4165 10.7149 16.7577 11.0561 16.7577 11.4766C16.7577 11.897 16.4165 12.2383 15.996 12.2383H9.90231C9.48184 12.2383 9.14059 11.897 9.14059 11.4766C9.14059 11.0561 9.48184 10.7149 9.90231 10.7149ZM15.996 18.332H8.37887C7.95841 18.332 7.61716 17.9908 7.61716 17.5703C7.61716 17.1498 7.95841 16.8086 8.37887 16.8086H15.996C16.4165 16.8086 16.7577 17.1498 16.7577 17.5703C16.7577 17.9908 16.4165 18.332 15.996 18.332ZM17.5195 15.2851H6.85544C6.43497 15.2851 6.09373 14.9439 6.09373 14.5234C6.09373 14.103 6.43497 13.7617 6.85544 13.7617H17.5195C17.9399 13.7617 18.2812 14.103 18.2812 14.5234C18.2812 14.9439 17.9399 15.2851 17.5195 15.2851Z" fill="#99A7C7"/>
</svg>
