<svg width="44" height="41" viewBox="0 0 44 41" fill="none" xmlns="http://www.w3.org/2000/svg">
<path fill-rule="evenodd" clip-rule="evenodd" d="M40.4603 0.0288653C39.7922 0.134746 32.9755 2.4077 28.181 4.12308C24.1977 5.54823 21.0821 6.70291 10.5122 10.6711C0.258043 14.5208 0.484821 14.4227 0.152926 15.1535C-0.207306 15.9467 0.0895504 16.8954 0.826218 17.3052C0.997001 17.4003 2.11036 17.7666 3.30024 18.1192C4.49013 18.4717 7.1435 19.2772 9.19664 19.909C11.2498 20.5409 13.0365 21.0578 13.1672 21.0578C13.4575 21.0579 13.667 20.9516 14.8232 20.2178C16.2753 19.2962 26.9461 12.5789 29.708 10.8479C31.097 9.97731 32.3065 9.26508 32.3959 9.26508C32.5719 9.26508 32.6904 9.50798 32.6074 9.69853C32.5791 9.76343 29.1376 12.9471 24.9594 16.7734C19.7082 21.5825 17.3252 23.8183 17.2409 24.0154C17.1504 24.2272 17.1411 24.3636 17.2047 24.546C17.2518 24.681 18.1579 26.118 19.2183 27.7394C21.4425 31.1401 24.43 35.7903 25.9566 38.228C27.1981 40.2103 27.4038 40.4025 28.2811 40.4001C28.8826 40.3984 29.3259 40.1857 29.6923 39.7227C29.8419 39.5337 30.858 37.0359 32.4881 32.8507C38.2839 17.969 40.0635 13.1745 42.3759 6.21083C43.2888 3.46175 43.3765 3.14352 43.3797 2.5627C43.3826 2.06002 43.3429 1.84988 43.1908 1.56201C42.6069 0.457478 41.5389 -0.142257 40.4603 0.0288653ZM12.8152 23.9969C12.2373 24.2909 12.252 24.0926 12.3679 30.0402C12.4251 32.9813 12.5101 35.5168 12.5569 35.6864C12.8105 36.6049 14.0347 37.1917 14.8702 36.7951C15.2895 36.5962 18.6698 33.4086 18.8896 33.0049C19.0921 32.6331 19.1346 32.1556 18.9975 31.7948C18.8746 31.4718 14.2683 24.4494 13.9956 24.1695C13.6989 23.865 13.2139 23.7941 12.8152 23.9969Z" fill="url(#paint0_linear_452_2890)"/>
<defs>
<linearGradient id="paint0_linear_452_2890" x1="21.6899" y1="0" x2="21.6899" y2="40.4001" gradientUnits="userSpaceOnUse">
<stop stop-color="#FFC107"/>
<stop offset="1" stop-color="#FF9200"/>
</linearGradient>
</defs>
</svg>
