<svg width="24" height="24" viewBox="0 0 24 24" fill="none" xmlns="http://www.w3.org/2000/svg">
<g clip-path="url(#clip0_164_532)">
<path d="M21.9706 12.2103C21.8781 12.021 21.8781 11.8038 21.9706 11.6145L22.8285 9.85965C23.3061 8.88256 22.9276 7.71797 21.9669 7.20825L20.2415 6.29274C20.0554 6.19401 19.9277 6.01827 19.8913 5.81078L19.5538 3.88683C19.3659 2.81563 18.3751 2.09581 17.2984 2.24814L15.3644 2.52171C15.1557 2.55118 14.9492 2.48407 14.7978 2.33758L13.394 0.979505C12.6123 0.223295 11.3877 0.22325 10.6061 0.979505L9.2022 2.33771C9.05073 2.48424 8.84431 2.55122 8.63561 2.52184L6.7016 2.24827C5.6246 2.09585 4.63408 2.81577 4.44617 3.88697L4.10872 5.81083C4.07229 6.01836 3.94467 6.19405 3.75856 6.29283L2.03312 7.20834C1.07243 7.71802 0.694006 8.8827 1.17161 9.85979L2.02939 11.6146C2.12193 11.804 2.12193 12.0211 2.02939 12.2104L1.17157 13.9652C0.693961 14.9423 1.07238 16.1069 2.03307 16.6166L3.75851 17.5321C3.94467 17.6309 4.07229 17.8066 4.10872 18.0141L4.44617 19.938C4.61723 20.9132 5.45341 21.5971 6.41441 21.597C6.50906 21.597 6.60511 21.5903 6.70164 21.5767L8.63565 21.3031C8.84422 21.2735 9.05077 21.3408 9.20225 21.4873L10.6061 22.8453C10.997 23.2235 11.4984 23.4125 12 23.4125C12.5015 23.4124 13.0032 23.2234 13.3939 22.8453L14.7978 21.4873C14.9493 21.3408 15.1558 21.2738 15.3644 21.3031L17.2984 21.5767C18.3756 21.7291 19.3659 21.0092 19.5538 19.938L19.8913 18.0141C19.9278 17.8066 20.0554 17.6309 20.2415 17.5321L21.9669 16.6166C22.9276 16.1069 23.3061 14.9423 22.8285 13.9652L21.9706 12.2103ZM9.3469 5.94298C10.6879 5.94298 11.7789 7.034 11.7789 8.375C11.7789 9.716 10.6879 10.807 9.3469 10.807C8.0059 10.807 6.91489 9.716 6.91489 8.375C6.91489 7.034 8.0059 5.94298 9.3469 5.94298ZM8.09161 16.7588C7.9621 16.8883 7.79234 16.953 7.62263 16.953C7.45291 16.953 7.28311 16.8883 7.15364 16.7588C6.89463 16.4997 6.89463 16.0798 7.15364 15.8208L15.9084 7.06602C16.1673 6.80701 16.5874 6.80701 16.8464 7.06602C17.1054 7.32504 17.1054 7.74501 16.8464 8.00403L8.09161 16.7588ZM14.653 17.8819C13.312 17.8819 12.221 16.7909 12.221 15.4499C12.221 14.1089 13.312 13.0179 14.653 13.0179C15.994 13.0179 17.085 14.1089 17.085 15.4499C17.085 16.7909 15.994 17.8819 14.653 17.8819Z" fill="#99A7C7"/>
<path d="M14.6531 14.3444C14.0435 14.3444 13.5476 14.8403 13.5476 15.4499C13.5476 16.0594 14.0435 16.5553 14.6531 16.5553C15.2626 16.5553 15.7585 16.0594 15.7585 15.4499C15.7585 14.8403 15.2626 14.3444 14.6531 14.3444Z" fill="#99A7C7"/>
<path d="M9.34689 7.26952C8.73734 7.26952 8.24146 7.76541 8.24146 8.37495C8.24146 8.98449 8.73734 9.48042 9.34689 9.48042C9.95643 9.48042 10.4524 8.98453 10.4524 8.37495C10.4523 7.76545 9.95643 7.26952 9.34689 7.26952Z" fill="#99A7C7"/>
</g>
<defs>
<clipPath id="clip0_164_532">
<rect width="23" height="23" fill="white" transform="translate(0.5 0.412411)"/>
</clipPath>
</defs>
</svg>
