<svg xmlns="http://www.w3.org/2000/svg" version="1.1" xmlns:xlink="http://www.w3.org/1999/xlink" xmlns:svgjs="http://svgjs.com/svgjs" width="512" height="512" x="0" y="0" viewBox="0 0 48 48" style="enable-background:new 0 0 512 512" xml:space="preserve" class=""><g><g id="Calendar"><path d="m38 13a3 3 0 0 0 3-3v-7a3 3 0 0 0 -6 0v7a3 3 0 0 0 3 3z" fill="#93a2c1" data-original="#000000" class=""></path><path d="m10 13a3 3 0 0 0 3-3v-7a3 3 0 0 0 -6 0v7a3 3 0 0 0 3 3z" fill="#93a2c1" data-original="#000000" class=""></path><path d="m0 47a1 1 0 0 0 1 1h46a1 1 0 0 0 1-1v-26.66h-48zm13.91-16.55a1 1 0 0 1 .81-.68l5.9-.86 2.64-5.35a1 1 0 0 1 .9-.56 1 1 0 0 1 .9.56l2.64 5.35 5.91.85a1 1 0 0 1 .81.68 1 1 0 0 1 -.26 1l-4.27 4.17 1 5.88a1 1 0 0 1 -.39 1 1 1 0 0 1 -1.06.08l-5.27-2.77-5.28 2.78a1 1 0 0 1 -1.06-.08 1 1 0 0 1 -.4-1l1-5.89-4.28-4.16a1 1 0 0 1 -.24-1z" fill="#93a2c1" data-original="#000000" class=""></path><path d="m47 7h-4v3a5 5 0 0 1 -10 0v-3h-18v3a5 5 0 0 1 -10 0v-3h-4a1 1 0 0 0 -1 1v10.34h48v-10.34a1 1 0 0 0 -1-1z" fill="#93a2c1" data-original="#000000" class=""></path></g></g></svg>