<svg width="29" height="29" viewBox="0 0 29 29" fill="none" xmlns="http://www.w3.org/2000/svg">
<path d="M2.71875 9.96875V8.60938C2.72007 7.52819 3.15015 6.49167 3.91466 5.72716C4.67917 4.96265 5.71569 4.53257 6.79688 4.53125H8.15625V5.89062C8.15625 6.37133 8.34721 6.83235 8.68712 7.17226C9.02703 7.51217 9.48805 7.70312 9.96875 7.70312C10.4495 7.70312 10.9105 7.51217 11.2504 7.17226C11.5903 6.83235 11.7812 6.37133 11.7812 5.89062V4.53125H17.2188V5.89062C17.2188 6.37133 17.4097 6.83235 17.7496 7.17226C18.0895 7.51217 18.5505 7.70312 19.0312 7.70312C19.512 7.70312 19.973 7.51217 20.3129 7.17226C20.6528 6.83235 20.8438 6.37133 20.8438 5.89062V4.53125H22.2031C23.2843 4.53257 24.3208 4.96265 25.0853 5.72716C25.8498 6.49167 26.2799 7.52819 26.2812 8.60938V9.96875H2.71875ZM9.0625 5.89062C9.0625 6.13098 9.15798 6.36149 9.32793 6.53144C9.49789 6.7014 9.7284 6.79688 9.96875 6.79688C10.2091 6.79688 10.4396 6.7014 10.6096 6.53144C10.7795 6.36149 10.875 6.13098 10.875 5.89062V3.625C10.875 3.38465 10.7795 3.15414 10.6096 2.98418C10.4396 2.81423 10.2091 2.71875 9.96875 2.71875C9.7284 2.71875 9.49789 2.81423 9.32793 2.98418C9.15798 3.15414 9.0625 3.38465 9.0625 3.625V5.89062ZM18.125 3.625V5.89062C18.125 6.13098 18.2205 6.36149 18.3904 6.53144C18.5604 6.7014 18.7909 6.79688 19.0312 6.79688C19.2716 6.79688 19.5021 6.7014 19.6721 6.53144C19.842 6.36149 19.9375 6.13098 19.9375 5.89062V3.625C19.9375 3.38465 19.842 3.15414 19.6721 2.98418C19.5021 2.81423 19.2716 2.71875 19.0312 2.71875C18.7909 2.71875 18.5604 2.81423 18.3904 2.98418C18.2205 3.15414 18.125 3.38465 18.125 3.625V3.625ZM26.2812 10.875V20.3906C26.2799 21.4718 25.8498 22.5083 25.0853 23.2728C24.3208 24.0373 23.2843 24.4674 22.2031 24.4688H6.79688C5.71569 24.4674 4.67917 24.0373 3.91466 23.2728C3.15015 22.5083 2.72007 21.4718 2.71875 20.3906V10.875H26.2812ZM17.811 15.9994H15.94L15.3609 14.22C15.3013 14.0387 15.186 13.8808 15.0314 13.7689C14.8768 13.6569 14.6909 13.5967 14.5 13.5967C14.3091 13.5967 14.1232 13.6569 13.9686 13.7689C13.814 13.8808 13.6987 14.0387 13.6391 14.22L13.0609 15.9994H11.189C10.9976 15.9994 10.8111 16.0599 10.6563 16.1724C10.5014 16.2849 10.3861 16.4435 10.327 16.6255C10.2678 16.8075 10.2678 17.0036 10.3269 17.1856C10.3861 17.3677 10.5013 17.5263 10.6561 17.6388L12.17 18.7385L11.5918 20.518C11.5327 20.7 11.5327 20.8961 11.5918 21.0781C11.651 21.2602 11.7662 21.4188 11.9211 21.5313C12.0759 21.6438 12.2624 21.7044 12.4538 21.7043C12.6453 21.7043 12.8317 21.6437 12.9866 21.5311L14.5 20.4314L16.0134 21.5311C16.1683 21.6437 16.3547 21.7043 16.5462 21.7043C16.7376 21.7044 16.9241 21.6438 17.0789 21.5313C17.2338 21.4188 17.349 21.2602 17.4082 21.0781C17.4673 20.8961 17.4673 20.7 17.4082 20.518L16.83 18.7385L18.3439 17.6388C18.4987 17.5263 18.6139 17.3677 18.6731 17.1856C18.7322 17.0036 18.7322 16.8075 18.673 16.6255C18.6139 16.4435 18.4986 16.2849 18.3437 16.1724C18.1889 16.0599 18.0024 15.9994 17.811 15.9994Z" fill="white"/>
</svg>
