<svg width="28" height="27" viewBox="0 0 28 27" fill="none" xmlns="http://www.w3.org/2000/svg">
<g clip-path="url(#clip0_34_371)">
<path d="M22.203 12.8672H23.6525C23.3284 8.22595 19.4692 4.50454 14.6561 4.19214V5.58986H13.3436V4.19214C8.53043 4.50459 4.67125 8.226 4.34717 12.8672H5.79671V14.1328H4.34717C4.67125 18.7741 8.53043 22.4955 13.3436 22.8079V21.4102H14.6561V22.8079C19.4692 22.4954 23.3284 18.774 23.6525 14.1328H22.203V12.8672ZM19.2402 9.29155L16.2162 15.3419C16.1517 15.4709 16.0438 15.575 15.9099 15.6372L9.6355 18.5532C9.54467 18.5955 9.44732 18.616 9.3508 18.616C9.18039 18.616 9.01245 18.5521 8.88656 18.4306C8.68936 18.2404 8.63833 17.9507 8.75946 17.7084L11.7835 11.6581C11.848 11.5291 11.9559 11.425 12.0898 11.3628L18.3642 8.44675C18.6155 8.32978 18.9159 8.37914 19.1131 8.5693C19.3103 8.75952 19.3613 9.04924 19.2402 9.2915V9.29155Z" fill="#99A7C7"/>
<path d="M10.7568 16.6272L14.5071 14.8842L12.5644 13.0107L10.7568 16.6272Z" fill="#99A7C7"/>
<path d="M23.2458 4.58455C20.7762 2.20317 17.4927 0.891663 14.0001 0.891663C10.5076 0.891663 7.22409 2.20317 4.75452 4.58455C2.28494 6.96592 0.924805 10.1321 0.924805 13.5C0.924805 16.8678 2.28488 20.034 4.75446 22.4154C7.22404 24.7968 10.5076 26.1083 14.0001 26.1083C17.4926 26.1083 20.7762 24.7968 23.2457 22.4154C25.7153 20.034 27.0754 16.8678 27.0754 13.5C27.0754 10.1321 25.7153 6.96592 23.2457 4.58455H23.2458ZM14.0001 24.0954C7.94143 24.0954 3.01228 19.3423 3.01228 13.5C3.01228 7.65764 7.94143 2.90453 14.0001 2.90453C20.0589 2.90453 24.988 7.65764 24.988 13.5C24.988 19.3423 20.0589 24.0954 14.0001 24.0954Z" fill="#99A7C7"/>
<path d="M15.4354 13.9893L17.243 10.3729L13.4927 12.1158L15.4354 13.9893Z" fill="#99A7C7"/>
</g>
<defs>
<clipPath id="clip0_34_371">
<rect width="28" height="27" fill="white"/>
</clipPath>
</defs>
</svg>
