<svg width="26" height="26" viewBox="0 0 26 26" fill="none" xmlns="http://www.w3.org/2000/svg">
<path d="M20.3243 12.5698H21.6185C21.3292 8.2723 17.8834 4.82655 13.586 4.53729V5.83148H12.4141V4.53729C8.11665 4.8266 4.67095 8.27235 4.38159 12.5698H5.67583V13.7416H4.38159C4.67095 18.0391 8.11665 21.4848 12.4141 21.7741V20.4799H13.586V21.7741C17.8834 21.4848 21.3292 18.039 21.6185 13.7416H20.3243V12.5698ZM17.679 9.25897L14.9789 14.8611C14.9213 14.9806 14.825 15.077 14.7055 15.1346L9.10332 17.8346C9.02222 17.8738 8.9353 17.8927 8.84912 17.8927C8.69697 17.8927 8.54702 17.8335 8.43462 17.7211C8.25854 17.545 8.21299 17.2767 8.32114 17.0524L11.0212 11.4502C11.0788 11.3308 11.1751 11.2344 11.2946 11.1768L16.8968 8.47674C17.1211 8.36844 17.3894 8.41414 17.5655 8.59022C17.7416 8.76634 17.7871 9.0346 17.679 9.25892V9.25897Z" fill="#99A7C7"/>
<path d="M10.1045 16.0512L13.453 14.4374L11.7184 12.7027L10.1045 16.0512Z" fill="#99A7C7"/>
<path d="M21.2551 4.90067C19.0501 2.69569 16.1184 1.48133 13.0001 1.48133C9.88179 1.48133 6.95005 2.69569 4.74507 4.90067C2.54009 7.10565 1.32568 10.0373 1.32568 13.1557C1.32568 16.2741 2.54004 19.2057 4.74502 21.4107C6.95 23.6157 9.88174 24.8301 13 24.8301C16.1184 24.8301 19.0501 23.6157 21.2551 21.4107C23.4601 19.2057 24.6744 16.2741 24.6744 13.1557C24.6744 10.0373 23.4601 7.10565 21.2551 4.90067H21.2551ZM13.0001 22.9663C7.59053 22.9663 3.1895 18.5653 3.1895 13.1557C3.1895 7.74613 7.59053 3.3451 13.0001 3.3451C18.4097 3.3451 22.8107 7.74613 22.8107 13.1557C22.8107 18.5653 18.4097 22.9663 13.0001 22.9663Z" fill="#99A7C7"/>
<path d="M14.2817 13.6087L15.8956 10.2602L12.5471 11.874L14.2817 13.6087Z" fill="#99A7C7"/>
</svg>
