<svg xmlns="http://www.w3.org/2000/svg" version="1.1" xmlns:xlink="http://www.w3.org/1999/xlink" xmlns:svgjs="http://svgjs.com/svgjs" width="512" height="512" x="0" y="0" viewBox="0 0 512 512" style="enable-background:new 0 0 512 512" xml:space="preserve" class=""><g><path clip-rule="evenodd" d="m117.093 337.967s.001.001.002.002l200.659-.001c.001-.001.001-.001.002-.002v-63.737c0-23.48-19.133-42.594-42.609-42.594h-115.446c-23.479 0-42.609 19.112-42.609 42.594zm100.329-154.115c25.226 0 45.772-20.533 45.772-45.762 0-25.235-20.535-45.777-45.772-45.777-25.23 0-45.778 20.547-45.778 45.777 0 25.225 20.557 45.762 45.778 45.762zm-153.369 186.428c-40.974-40.974-63.528-95.439-63.528-153.374 0-57.944 22.555-112.409 63.528-153.378 40.958-40.963 95.434-63.528 153.368-63.528s112.41 22.565 153.373 63.528c40.968 40.969 63.533 95.434 63.533 153.378 0 57.934-22.565 112.4-63.533 153.374-84.574 84.57-222.172 84.57-306.741 0zm440.825 103.263-99.044-99.055-3.98 4.517c-3.482 3.952-7.088 7.796-10.813 11.521-4.063 4.063-8.276 7.973-12.611 11.744l-4.57 3.976 99.152 99.151c4.234 4.234 9.937 6.602 15.925 6.602 5.997 0 11.691-2.36 15.937-6.599 8.804-8.789 8.798-23.062.004-31.857z" fill-rule="evenodd" fill="#9cabca" data-original="#000000" class=""></path></g></svg>