<svg xmlns="http://www.w3.org/2000/svg" version="1.1" xmlns:xlink="http://www.w3.org/1999/xlink" xmlns:svgjs="http://svgjs.com/svgjs" width="512" height="512" x="0" y="0" viewBox="0 0 64 64" style="enable-background:new 0 0 512 512" xml:space="preserve" class=""><g><g id="Feeling"><path d="m5 22a1 1 0 0 1 -1-1 17.019 17.019 0 0 1 17-17 1 1 0 0 1 0 2 15.0167 15.0167 0 0 0 -15 15 1 1 0 0 1 -1 1z" fill="#99a8c7" data-original="#000000" class=""></path><path d="m11 22a1 1 0 0 1 -1-1 11.0125 11.0125 0 0 1 11-11 1 1 0 0 1 0 2 9.01 9.01 0 0 0 -9 9 1 1 0 0 1 -1 1z" fill="#99a8c7" data-original="#000000" class=""></path><path d="m21 60a17.019 17.019 0 0 1 -17-17 1 1 0 0 1 2 0 15.0167 15.0167 0 0 0 15 15 1 1 0 0 1 0 2z" fill="#99a8c7" data-original="#000000" class=""></path><path d="m21 54a11.0125 11.0125 0 0 1 -11-11 1 1 0 0 1 2 0 9.01 9.01 0 0 0 9 9 1 1 0 0 1 0 2z" fill="#99a8c7" data-original="#000000" class=""></path><path d="m43 60a1 1 0 0 1 0-2 15.0164 15.0164 0 0 0 15-15 1 1 0 0 1 2 0 17.019 17.019 0 0 1 -17 17z" fill="#99a8c7" data-original="#000000" class=""></path><path d="m43 54a1 1 0 0 1 0-2 9.01 9.01 0 0 0 9-9 1 1 0 0 1 2 0 11.0125 11.0125 0 0 1 -11 11z" fill="#99a8c7" data-original="#000000" class=""></path><path d="m59 22a1 1 0 0 1 -1-1 15.0164 15.0164 0 0 0 -15-15 1 1 0 0 1 0-2 17.019 17.019 0 0 1 17 17 1 1 0 0 1 -1 1z" fill="#99a8c7" data-original="#000000" class=""></path><path d="m53 22a1 1 0 0 1 -1-1 9.01 9.01 0 0 0 -9-9 1 1 0 0 1 0-2 11.0125 11.0125 0 0 1 11 11 1 1 0 0 1 -1 1z" fill="#99a8c7" data-original="#000000" class=""></path><path d="m48.2607 22.8877a9.9674 9.9674 0 0 0 -8.1836-3.88 9.5789 9.5789 0 0 0 -7.7392 4.2334c-.1148.169-.2275.3418-.3379.5166q-.1649-.2622-.3374-.5166a9.5824 9.5824 0 0 0 -7.7412-4.2334 9.9441 9.9441 0 0 0 -8.1831 3.88c-2.6851 3.499-2.5781 8.3477.2729 12.3535 5.0581 7.1065 15.0388 13.3428 15.4619 13.6045a.9989.9989 0 0 0 1.0542 0c.4224-.2617 10.4024-6.498 15.461-13.6045 2.8506-4.0058 2.958-8.8545.2724-12.3535z" fill="#99a8c7" data-original="#000000" class=""></path></g></g></svg>