<svg xmlns="http://www.w3.org/2000/svg" version="1.1" xmlns:xlink="http://www.w3.org/1999/xlink" xmlns:svgjs="http://svgjs.com/svgjs" width="512" height="512" x="0" y="0" viewBox="0 0 512 512" style="enable-background:new 0 0 512 512" xml:space="preserve" class=""><g><path d="m377.4 164.3c-9 2.7-18.1 3.1-26.4 1.2-1.7-.4-3-1.8-3.2-3.6-2.8-27.7 19.6-54.8 46.1-62.8 9-2.7 18.1-3.1 26.4-1.2 1.7.4 3 1.8 3.2 3.6 2.9 27.7-19.6 54.9-46.1 62.8zm-65.8 1.2c-17.7 4.1-37-2.8-51.1-15.2s-23.2-30.7-21.4-48.8c.2-1.8 1.5-3.2 3.2-3.6 17.7-4.1 37 2.7 51.1 15.2 14.1 12.4 23.2 30.7 21.4 48.8-.2 1.8-1.6 3.2-3.2 3.6zm-41.9 70.4c-15.2 0-28.9 2.1-38.7 5.4-18.3 6.2-18.3 13.1 0 19.3 21.2 7.2 56.2 7.2 77.4 0 18.3-6.2 18.3-13.1 0-19.3-10.5-3.6-24.5-5.4-38.7-5.4zm122.3 138.9 54.9-25.7c9.4-10.8 6.1-19-5.9-22-9.4-2.4-22.7-.6-35.7 7.5l-13.3 8.3zm-61.5 18.6c10.4 0 22.7-.4 26.8-2.3l26.5-12.4v-168.6c-22.4 14.7-82.5 14.7-104.9 0v17.8c12.4.7 23.6 2.7 32.2 5.6 12 4.1 19.3 10.1 19.4 17.5zm-121.5-32.6c-8.7 5-26.2 15.6-30 19.8 3.5.7 14.7 2.2 30 3.9zm50.4-86.9c11.6 5.7 17.7 17.1 16.4 29.9-1.4 13.7-11.4 28.4-31.2 37.5-9.7 5.1-19 10.1-27.4 14.8v29.3c34 3.7 73.4 7.3 104.9 7.9v-130.1c-14.4 9.5-42.5 12-62.7 10.7zm-42.1.4c6.3-2.2 12.1-3.5 17.5-4-6.2-1.6-12.5-3.8-17.5-7.1zm-155.7 76.9-50.3-.4c-4.3 0-7.9 3-7.9 7.3l-2.4 141.9c0 4.2 3.3 8.1 7.5 8.2l50.4.4c4.3 0 7.9-3.1 7.9-7.3l2.4-141.9c.1-4.2-3.2-8.2-7.6-8.2zm15.6 22.7c-.7 41.9-1.4 83.8-2.1 125.7 25.5-2.2 68.1-1.4 110.9-.6 43.5.8 87.3 1.6 113.1-.7 29.6-8.4 113.2-65.7 166.8-102.5 13.2-9 24.6-16.9 33-22.5 9.2-6.1 15.3-14 10.2-20.8-1.5-2-3.8-3.7-6.7-5-9-4.1-23.2-4.3-37.9 2.6l-103.9 48.5c-15.7 7.3-99.2-.3-125.1-2.9l-22.5-2.5c-.5 0-1-.1-1.5-.3-16.7-2.2-30.1-4.6-36.7-6.7-1.8.3-3.7-.6-4.5-2.3-2.6-5.5 8.2-14 21.7-22.5 3.2-2 15-9.2 19.3-11.4 9-5 18.9-10.4 29.4-15.9.1-.1.2-.1.3-.2 16.9-7.7 25.4-19.8 26.5-30.8.9-8.4-2.6-15.9-9.7-20.5-12.4-7.8-31.1-4.5-49.3 4.2-12.4 5.9-22.5 13.2-31.8 19.7-10.7 7.6-20.2 14.4-30.8 17.5-23 6.9-40.5 25-59.8 42.1-2.9 2.7-5.9 5.3-8.9 7.8zm249.9-250.3v-50c0-5.5 8.3-5.5 8.3 0v48.4c28.9-32.6 23.1-93.8-12.1-118.6-32.3 29.4-30 92 3.8 120.2zm8.3 74.2c0 5.5-8.3 5.5-8.3 0v-15c-13.5.3-25.6 2.3-34.5 5.4-18.3 6.2-18.3 13.1 0 19.2 21.2 7.2 56.2 7.2 77.4 0 18.3-6.2 18.3-13.1 0-19.2-8.9-3-21-5-34.5-5.4v15z" fill="#9cabca" data-original="#000000"></path></g></svg>