<svg width="24" height="24" viewBox="0 0 24 24" fill="none" xmlns="http://www.w3.org/2000/svg">
<g clip-path="url(#clip0_34_327)">
<path d="M10.6567 13.3267C8.6801 13.3267 2.86263 13.3267 2.86263 13.3267C2.24507 13.3267 1.73975 13.832 1.73975 14.4495V22.8773C1.73975 23.4949 2.24507 24.0001 2.86263 24.0001C2.86263 24.0001 8.80183 24.0001 10.7878 24.0001C11.0519 24.0001 11.0519 23.7163 11.0519 23.7163V13.7083C11.0518 13.7083 11.0518 13.3267 10.6567 13.3267Z" fill="#99A7C7"/>
<path d="M21.1375 13.3267C21.1375 13.3267 15.2978 13.3267 13.3513 13.3267C12.8771 13.3267 12.9481 13.8206 12.9481 13.8206V23.7255C12.9481 23.7255 12.9443 23.9998 13.2295 23.9998C15.2065 23.9998 21.1373 23.9998 21.1373 23.9998C21.7549 23.9998 22.2602 23.4946 22.2602 22.877V14.4495C22.2604 13.832 21.7551 13.3267 21.1375 13.3267Z" fill="#99A7C7"/>
<path d="M11.0518 6.69558C11.0518 6.69558 11.0518 6.31509 10.6758 6.31509C8.4244 6.31509 1.59456 6.31509 1.59456 6.31509C0.977002 6.31509 0.47168 6.82042 0.47168 7.4379V10.9429C0.47168 11.5605 0.977002 12.0657 1.59456 12.0657C1.59456 12.0657 8.45499 12.0657 10.7066 12.0657C11.0518 12.0657 11.0518 11.7663 11.0518 11.7663V6.69558Z" fill="#99A7C7"/>
<path d="M22.4054 6.31509C22.4054 6.31509 15.5728 6.31509 13.2952 6.31509C12.9482 6.31509 12.9482 6.64568 12.9482 6.64568V11.7733C12.9482 11.7733 12.9482 12.0657 13.37 12.0657C15.6288 12.0657 22.4054 12.0657 22.4054 12.0657C23.023 12.0657 23.5283 11.5605 23.5283 10.9429V7.4379C23.5283 6.82042 23.023 6.31509 22.4054 6.31509Z" fill="#99A7C7"/>
<path d="M7.23243 5.48435C6.71868 5.48435 6.24944 5.44361 5.83795 5.36319C4.79278 5.159 4.07443 4.76158 3.64184 4.14836C3.25423 3.59878 3.13561 2.92125 3.28917 2.13451C3.55815 0.758025 4.48257 0 5.89194 0C6.19021 0 6.51777 0.0344408 6.86561 0.102423C7.75043 0.275281 8.88215 0.782649 9.89304 1.4596C11.6081 2.60826 11.693 3.32235 11.6076 3.75961C11.482 4.40212 10.8814 4.86123 9.77156 5.16326C9.02172 5.36728 8.09623 5.48435 7.23243 5.48435ZM5.89202 1.79968C5.34621 1.79968 5.15862 1.95216 5.05563 2.47957C4.97136 2.91078 5.07763 3.06139 5.11248 3.11088C5.25843 3.31785 5.63858 3.49046 6.18301 3.59673C6.47678 3.65416 6.83976 3.68451 7.23235 3.68451C8.09566 3.68451 8.85622 3.5537 9.36089 3.41062C9.39762 3.40023 9.45464 3.35679 9.39353 3.32039C8.73376 2.78292 7.52669 2.06522 6.52055 1.86864C6.28617 1.82299 6.07462 1.79968 5.89202 1.79968Z" fill="#99A7C7"/>
<path d="M16.7937 5.48436C16.7937 5.48436 16.7937 5.48436 16.7935 5.48436C15.9297 5.48436 15.0043 5.36729 14.2545 5.16327C13.1445 4.86132 12.5441 4.40213 12.4185 3.7597C12.3332 3.32244 12.4178 2.60835 14.1331 1.45969C15.1438 0.78274 16.2755 0.275372 17.1605 0.102514C17.5084 0.0345323 17.8359 9.15527e-05 18.1339 9.15527e-05C19.5436 9.15527e-05 20.468 0.758198 20.7367 2.13468C20.8904 2.92134 20.7719 3.59887 20.3842 4.14845C19.9516 4.76176 19.2333 5.15909 18.1879 5.36328C17.7766 5.44354 17.3074 5.48436 16.7937 5.48436ZM14.6469 3.30927C14.5884 3.34322 14.6167 3.3968 14.6471 3.40556C15.1515 3.5506 15.9201 3.6846 16.7935 3.6846C17.1863 3.6846 17.5491 3.65425 17.8429 3.59682C18.3873 3.49047 18.7676 3.31794 18.9135 3.11097C18.9485 3.06148 19.0548 2.91087 18.9703 2.47967C18.8674 1.95225 18.6798 1.79977 18.1339 1.79977C17.9513 1.79977 17.74 1.823 17.5054 1.86881C16.4992 2.06531 15.3067 2.77172 14.6469 3.30927Z" fill="#99A7C7"/>
</g>
<defs>
<clipPath id="clip0_34_327">
<rect width="24" height="24" fill="white"/>
</clipPath>
</defs>
</svg>
