<svg width="22" height="23" viewBox="0 0 22 23" fill="none" xmlns="http://www.w3.org/2000/svg">
<path d="M10.9998 11.2862C13.079 11.2862 14.7647 9.14581 14.7647 6.50555C14.7647 3.86524 14.2111 1.72482 10.9998 1.72482C7.78828 1.72482 7.23486 3.86524 7.23486 6.50555C7.23492 9.14581 8.92056 11.2862 10.9998 11.2862Z" fill="#99A7C7"/>
<path d="M18.1028 18.3927C18.0332 13.7932 17.4586 12.4826 13.0617 11.653C13.0617 11.653 12.4427 12.4775 11.0001 12.4775C9.55748 12.4775 8.93855 11.653 8.93855 11.653C4.58963 12.4735 3.98 13.7647 3.89987 18.2433C3.89335 18.609 3.89035 18.6282 3.88916 18.5857C3.88939 18.6652 3.88973 18.8123 3.88973 19.0689C3.88973 19.0689 4.93655 21.2751 11.0001 21.2751C17.0637 21.2751 18.1106 19.0689 18.1106 19.0689C18.1106 18.9041 18.1108 18.7894 18.1109 18.7115C18.1097 18.7378 18.1072 18.6869 18.1028 18.3927Z" fill="#99A7C7"/>
<path d="M16.2247 10.4326C17.9135 10.4326 19.2824 8.69424 19.2824 6.54985C19.2824 4.40541 18.8329 2.66702 16.2247 2.66702C15.786 2.66702 15.4085 2.71637 15.0837 2.8085C15.6861 3.96955 15.7687 5.37979 15.7687 6.50548C15.7687 7.78005 15.4382 8.99691 14.8296 10.0045C15.2479 10.2776 15.7219 10.4326 16.2247 10.4326Z" fill="#99A7C7"/>
<path d="M21.9934 16.2044C21.9367 12.4688 21.4701 11.4044 17.899 10.7305C17.899 10.7305 17.3963 11.4002 16.2247 11.4002C16.1762 11.4002 16.1292 11.3987 16.083 11.3965C16.8275 11.7474 17.5047 12.236 18.0034 12.9509C18.8656 14.1869 19.0639 15.8473 19.1048 18.2865C21.5073 17.7902 21.9997 16.7537 21.9997 16.7537C21.9997 16.6186 21.9997 16.526 21.9999 16.4627C21.999 16.4849 21.997 16.445 21.9934 16.2044Z" fill="#99A7C7"/>
<path d="M5.77491 10.4326C6.27773 10.4326 6.75164 10.2776 7.17013 10.0045C6.56152 8.99698 6.23103 7.78011 6.23103 6.50554C6.23103 5.37979 6.3136 3.96956 6.91592 2.80856C6.59121 2.71643 6.21375 2.66708 5.77491 2.66708C3.16666 2.66708 2.71729 4.40547 2.71729 6.54991C2.71729 8.69424 4.08627 10.4326 5.77491 10.4326Z" fill="#99A7C7"/>
<path d="M5.91681 11.3964C5.87068 11.3986 5.8237 11.4002 5.77514 11.4002C4.60347 11.4002 4.10077 10.7305 4.10077 10.7305C0.529788 11.4043 0.0630714 12.4687 0.00651681 16.2043C0.00283339 16.445 0.000963354 16.4849 0 16.4625C0.000113336 16.5259 0.000226672 16.6185 0.000226672 16.7536C0.000226672 16.7536 0.492671 17.7901 2.89505 18.2864C2.93613 15.8472 3.13424 14.1869 3.99656 12.9508C4.49524 12.236 5.17236 11.7473 5.91681 11.3964Z" fill="#99A7C7"/>
</svg>
