<svg xmlns="http://www.w3.org/2000/svg" version="1.1" xmlns:xlink="http://www.w3.org/1999/xlink" xmlns:svgjs="http://svgjs.com/svgjs" width="512" height="512" x="0" y="0" viewBox="0 0 512 512" style="enable-background:new 0 0 512 512" xml:space="preserve" class=""><g><g><g><path d="m457.345 108.537-42.085-108.537-129.668 50.279 42.085 108.536 12.663 32.657 129.668-50.278z" fill="#9cabca" data-original="#8ac9fe" class=""></path></g><g><g><path d="m327.041 512h-275.528c-28.45 0-51.513-23.063-51.513-51.513v-323.671c0-28.45 23.063-51.513 51.513-51.513h275.528c14.225 0 25.756 11.532 25.756 25.756v338.696l-17.13 16.312 17.13 16.312v3.863c0 14.226-11.532 25.758-25.756 25.758z" fill="#9cabca" data-original="#fe73c5" class=""></path><path d="m327.041 85.303h-41.207c14.225 0 25.756 11.532 25.756 25.756v375.184c0 14.225-11.531 25.756-25.756 25.756h41.207c14.225 0 25.756-11.531 25.756-25.756v-3.863l-17.13-14.85 17.13-17.775v-338.696c0-14.225-11.532-25.756-25.756-25.756z" fill="#9cabca" data-original="#fe4fb7" class=""></path><g><path d="m0 136.816v323.672c0 27.899 22.183 50.603 49.872 51.471v-426.615c-27.689.869-49.872 23.572-49.872 51.472z" fill="#9cabca" data-original="#86e8d0" class=""></path></g><path d="m52.033 482.38h300.764v-32.625h-300.764c-9.009 0-16.312 7.303-16.312 16.312-.001 9.01 7.303 16.313 16.312 16.313z" fill="#ffffff" data-original="#f3f0f3" class=""></path><path d="m311.59 449.755h41.207v32.625h-41.207z" fill="#ffffff" data-original="#e2dee2" class=""></path><path d="m242.387 162.524c-23.736 0-42.977 19.202-42.977 42.889 0-23.687-19.242-42.889-42.977-42.889s-42.977 19.202-42.977 42.889c0 46.483 85.955 102.731 85.955 102.731s85.955-56.248 85.955-102.731c-.001-23.687-19.243-42.889-42.979-42.889z" fill="#ffffff" data-original="#f3f0f3" class=""></path></g><path d="m247.259 357.271h-95.699c-4.267 0-7.726 3.459-7.726 7.726s3.459 7.726 7.726 7.726h95.699c4.267 0 7.726-3.459 7.726-7.726s-3.459-7.726-7.726-7.726z" fill="#ffffff" data-original="#f3f0f3" class=""></path></g><g><path d="m338.005 202.94h151.437v139.074h-151.437z" fill="#9cabca" transform="matrix(.506 -.863 .863 .506 -30.531 491.678)" data-original="#ffc344" class=""></path><path d="m382.664 280.869h151.437v35.553h-151.437z" fill="#9cabca" transform="matrix(.506 -.863 .863 .506 -31.028 543.147)" data-original="#feb237" class=""></path></g></g></g></svg>