<svg width="24" height="24" viewBox="0 0 24 24" fill="none" xmlns="http://www.w3.org/2000/svg">
<g clip-path="url(#clip0_34_280)">
<path d="M23.7068 22.2928L20.9139 19.4999L22.7069 17.7069C22.9579 17.4569 23.0569 17.0919 22.9679 16.7489C22.8789 16.4059 22.6149 16.1359 22.2739 16.0389L15.274 14.0389C14.929 13.939 14.55 14.0359 14.293 14.2929C14.036 14.55 13.9381 14.925 14.038 15.2749L16.038 22.2748C16.136 22.6148 16.406 22.8788 16.749 22.9678C16.832 22.9898 16.916 22.9998 17 22.9998C17.262 22.9998 17.518 22.8968 17.707 22.7068L19.5 20.9138L22.293 23.7068C22.488 23.9018 22.7439 23.9998 23 23.9998C23.256 23.9998 23.512 23.9018 23.707 23.7068C24.0979 23.3158 24.0979 22.6838 23.7068 22.2928Z" fill="#99A7C7"/>
<path d="M4.99997 10C4.44699 10 4 10.448 4 11C4 11.552 4.44699 12 4.99997 12H7.99992C8.5529 12 8.99989 11.552 8.99989 11C8.99989 10.448 8.5529 10 7.99992 10H4.99997Z" fill="#99A7C7"/>
<path d="M15.9999 11C15.9999 10.448 15.5529 10 14.9999 10H12C11.447 10 11 10.448 11 11C11 11.552 11.447 12 12 12H14.9999C15.5529 12 15.9999 11.552 15.9999 11Z" fill="#99A7C7"/>
<path d="M9.99986 13.9999H4.99997C4.44699 13.9999 4 14.4479 4 14.9999C4 15.5519 4.44699 15.9999 4.99997 15.9999H9.99991C10.5529 15.9999 10.9999 15.5519 10.9999 14.9999C10.9999 14.4479 10.5529 13.9999 9.99986 13.9999Z" fill="#99A7C7"/>
<path d="M7.99992 19.9998C8.5529 19.9998 8.99989 19.5519 8.99989 18.9999C8.99989 18.4479 8.5529 17.9999 7.99992 17.9999H4.99997C4.44699 17.9999 4 18.4479 4 18.9999C4 19.5519 4.44699 19.9998 4.99997 19.9998H7.99992V19.9998Z" fill="#99A7C7"/>
<path d="M9.99983 22.0001H1.99998V8.0003H21.9997V10.0003C21.9997 10.5523 22.4467 11.0003 22.9997 11.0003C23.5526 11.0003 23.9996 10.5523 23.9996 10.0003V7.00033V1.00043C23.9996 0.448435 23.5526 0.000457764 22.9997 0.000457764H0.999969C0.446993 0.000457764 0 0.448435 0 1.00043V7.00033V23.0001C0 23.5521 0.446993 24 0.999969 24H9.99983C10.5528 24 10.9998 23.5521 10.9998 23.0001C10.9998 22.4481 10.5529 22.0001 9.99983 22.0001ZM9.99983 3.00041C10.5518 3.00041 10.9998 3.44839 10.9998 4.00038C10.9998 4.55237 10.5518 5.00035 9.99983 5.00035C9.44784 5.00035 8.99986 4.55237 8.99986 4.00038C8.99986 3.44839 9.44784 3.00041 9.99983 3.00041ZM6.99987 3.00041C7.55187 3.00041 7.99984 3.44839 7.99984 4.00038C7.99984 4.55237 7.55187 5.00035 6.99987 5.00035C6.44788 5.00035 5.99991 4.55237 5.99991 4.00038C5.99991 3.44839 6.44788 3.00041 6.99987 3.00041ZM3.99992 3.00041C4.55191 3.00041 4.99989 3.44839 4.99989 4.00038C4.99989 4.55237 4.55191 5.00035 3.99992 5.00035C3.44793 5.00035 2.99995 4.55237 2.99995 4.00038C2.99995 3.44839 3.44793 3.00041 3.99992 3.00041Z" fill="#99A7C7"/>
</g>
<defs>
<clipPath id="clip0_34_280">
<rect width="24" height="24" fill="white"/>
</clipPath>
</defs>
</svg>
