<svg xmlns="http://www.w3.org/2000/svg" version="1.1" xmlns:xlink="http://www.w3.org/1999/xlink" xmlns:svgjs="http://svgjs.com/svgjs" width="512" height="512" x="0" y="0" viewBox="0 0 24 24" style="enable-background:new 0 0 512 512" xml:space="preserve" class=""><g><g transform="translate(-416 -416)"><path d="m433 423c0-1.657-1.343-3-3-3h-4c-1.657 0-3 1.343-3 3v10c0 1.657 1.343 3 3 3h4c1.657 0 3-1.343 3-3zm3.106-1.447-1 2c-.141.281-.141.613 0 .894l.776 1.553s-.776 1.553-.776 1.553c-.141.281-.141.613 0 .894l.776 1.553s-.776 1.553-.776 1.553c-.141.281-.141.613 0 .894l1 2c.246.494.848.694 1.341.447.494-.246.694-.848.447-1.341l-.776-1.553s.776-1.553.776-1.553c.141-.281.141-.613 0-.894l-.776-1.553s.776-1.553.776-1.553c.141-.281.141-.613 0-.894l-.776-1.553s.776-1.553.776-1.553c.247-.493.047-1.095-.447-1.341-.493-.247-1.095-.047-1.341.447zm-18 .894.776 1.553s-.776 1.553-.776 1.553c-.141.281-.141.613 0 .894l.776 1.553s-.776 1.553-.776 1.553c-.141.281-.141.613 0 .894l.776 1.553s-.776 1.553-.776 1.553c-.247.493-.047 1.095.447 1.341.493.247 1.095.047 1.341-.447l1-2c.141-.281.141-.613 0-.894l-.776-1.553s.776-1.553.776-1.553c.141-.281.141-.613 0-.894l-.776-1.553s.776-1.553.776-1.553c.141-.281.141-.613 0-.894l-1-2c-.246-.494-.848-.694-1.341-.447-.494.246-.694.848-.447 1.341z" fill="#99a8c7" data-original="#000000" class=""></path></g></g></svg>