<svg width="24" height="24" viewBox="0 0 24 24" fill="none" xmlns="http://www.w3.org/2000/svg">
<g clip-path="url(#clip0_34_248)">
<path d="M23.2969 6.02498H0.703125C0.314812 6.02498 0 6.3398 0 6.72811V23.2969C0 23.6852 0.314812 24 0.703125 24H23.2969C23.6852 24 24 23.6852 24 23.2969V6.72811C24 6.3398 23.6852 6.02498 23.2969 6.02498ZM15.9674 15.5976L10.3189 19.3632C10.2013 19.4416 10.0653 19.4813 9.92887 19.4813C9.81511 19.4813 9.70111 19.4537 9.59714 19.3981C9.36853 19.2758 9.2258 19.0375 9.2258 18.7782V11.2469C9.2258 10.9876 9.36853 10.7493 9.59714 10.627C9.82584 10.5046 10.1032 10.518 10.3189 10.6619L15.9674 14.4275C16.163 14.5579 16.2805 14.7774 16.2805 15.0125C16.2805 15.2476 16.163 15.4672 15.9674 15.5976Z" fill="#99A7C7"/>
<path d="M21.0374 3.01256H2.9624C2.57409 3.01256 2.25928 3.32737 2.25928 3.71569C2.25928 4.104 2.57409 4.41881 2.9624 4.41881H21.0374C21.4257 4.41881 21.7405 4.104 21.7405 3.71569C21.7405 3.32737 21.4257 3.01256 21.0374 3.01256Z" fill="#99A7C7"/>
<path d="M18.7779 0H5.22168C4.83337 0 4.51855 0.314812 4.51855 0.703125C4.51855 1.09144 4.83337 1.40625 5.22168 1.40625H18.7779C19.1662 1.40625 19.4811 1.09144 19.4811 0.703125C19.4811 0.314812 19.1662 0 18.7779 0Z" fill="#99A7C7"/>
</g>
<defs>
<clipPath id="clip0_34_248">
<rect width="24" height="24" fill="white"/>
</clipPath>
</defs>
</svg>
