<svg xmlns="http://www.w3.org/2000/svg" version="1.1" xmlns:xlink="http://www.w3.org/1999/xlink" xmlns:svgjs="http://svgjs.com/svgjs" width="512" height="512" x="0" y="0" viewBox="0 0 32 32" style="enable-background:new 0 0 512 512" xml:space="preserve" class=""><g><g><path d="m10.11 17.17c1.09-.97 2.71-1.02 3.86-.12l1.36 1.07 6.48-6.45c-.5-.64-1.04-1.28-1.57-1.91l-.42-.5c-2.02-2.39-3.22-4.53-3.57-6.35-.12-.57-.63-.94-1.21-.91h-.01c-.5.05-.9.41-1.01.9-.14.7-.93 1.52-1.7 2.31-1.31 1.36-2.94 3.05-2.36 5.29.52 1.98.49 2.8.43 3.11-.21-.07-.65-.27-1.42-.86-.91-.7-1.7-.49-2.08-.3-2.23 1.09-2.29 7-2.29 7.06 0 .81.09 1.59.27 2.35z" fill="#93a2c1" data-original="#000000" class=""></path><path d="m17.67 24.25c-1.07 1.07-2.78 1.17-3.97.23l-1.47-1.15-4.29 3.83c1.88 1.76 4.42 2.84 7.21 2.84 5.81 0 10.54-4.71 10.54-10.49 0-.88-.25-1.74-.64-2.6z" fill="#93a2c1" data-original="#000000" class=""></path><path d="m27.978 8.745h-3.372c-.271 0-.531.107-.723.298-.644.641-.188 1.737.723 1.737h.933l-10.058 10.011-2.749-2.165c-.38-.301-.923-.284-1.285.039l-9.113 8.143c-.412.368-.447 1.001-.079 1.412.344.384.987.459 1.412.08l8.487-7.584 2.786 2.194c.398.315.966.279 1.324-.076l10.692-10.643v.927c0 .907 1.101 1.361 1.745.72.192-.191.299-.45.299-.72v-3.355c0-.562-.458-1.018-1.022-1.018z" fill="#93a2c1" data-original="#000000" class=""></path></g></g></svg>