<svg width="22" height="23" viewBox="0 0 22 23" fill="none" xmlns="http://www.w3.org/2000/svg">
<g clip-path="url(#clip0_164_561)">
<path d="M8.95267 3.53464C5.92818 3.53464 3.46753 6.11246 3.46753 9.28098C3.46753 12.4495 5.92818 15.0273 8.95267 15.0273C11.9772 15.0273 14.4378 12.4495 14.4378 9.28098C14.4378 6.11242 11.9772 3.53464 8.95267 3.53464ZM12.2956 9.28098C12.2956 7.34992 10.796 5.77885 8.95267 5.77885V4.47187C11.4839 4.47187 13.5432 6.62925 13.5432 9.28098H12.2956Z" fill="#99A7C7"/>
<path d="M20.8697 18.5776L17.043 14.5686L15.9626 15.7005L15.3515 15.0604C16.6306 13.5082 17.4052 11.4876 17.4052 9.28093C17.4052 4.39826 13.6134 0.425842 8.95262 0.425842C4.29185 0.425842 0.5 4.39826 0.5 9.28097C0.5 14.1637 4.29185 18.1361 8.95258 18.1361C11.0589 18.1361 12.9877 17.3246 14.4693 15.9845L15.0804 16.6247L13.9999 17.7566L17.8266 21.7655C18.2331 22.1913 18.7734 22.4258 19.3482 22.4258C19.9229 22.4258 20.4633 22.1913 20.8698 21.7655C21.2761 21.3398 21.5 20.7737 21.5 20.1716C21.5 19.5695 21.2761 19.0033 20.8697 18.5776ZM8.95258 16.3343C5.24018 16.3343 2.21987 13.1702 2.21987 9.28097C2.21987 5.39174 5.24018 2.22765 8.95258 2.22765C12.665 2.22765 15.6853 5.39178 15.6853 9.28097C15.6853 13.1702 12.6651 16.3343 8.95258 16.3343Z" fill="#99A7C7"/>
</g>
<defs>
<clipPath id="clip0_164_561">
<rect width="21" height="22" fill="white" transform="translate(0.5 0.425842)"/>
</clipPath>
</defs>
</svg>
