<svg xmlns="http://www.w3.org/2000/svg" version="1.1" xmlns:xlink="http://www.w3.org/1999/xlink" xmlns:svgjs="http://svgjs.com/svgjs" width="512" height="512" x="0" y="0" viewBox="0 0 512 512" style="enable-background:new 0 0 512 512" xml:space="preserve" class=""><g><path d="m142.194 2.175a2.214 2.214 0 0 1 2.187-2.175h223.238a2.2 2.2 0 0 1 2.172 2.172v378.394l-108.291-91.35a8.555 8.555 0 0 0 -11 0l-108.3 91.35v-378.391zm261.682 45.1h-17.016v351.647a8.533 8.533 0 0 1 -14.036 6.523l-116.824-98.545-116.831 98.545a8.532 8.532 0 0 1 -14.036-6.523v-351.643h-17.016a25.491 25.491 0 0 0 -25.459 25.466v413.793a25.491 25.491 0 0 0 25.459 25.462h295.759a25.492 25.492 0 0 0 25.466-25.459v-413.796a25.493 25.493 0 0 0 -25.466-25.466zm-107.009 173.139a8.521 8.521 0 0 0 12.664-9.2l-10.363-46.345 35.624-31.4a8.53 8.53 0 0 0 -4.839-14.9l-47.275-4.45-18.852-43.592a8.532 8.532 0 0 0 -15.667 0l-18.837 43.6-47.283 4.45a8.534 8.534 0 0 0 -4.846 14.9l35.639 31.4-10.378 46.345a8.525 8.525 0 0 0 12.672 9.2l40.874-24.202zm-45.218-41.445a8.544 8.544 0 0 1 8.695 0l28.232 16.711-7.176-32.012a8.553 8.553 0 0 1 2.69-8.268l24.6-21.687-32.659-3.078a8.52 8.52 0 0 1 -7.026-5.114l-13.005-30.107-13.023 30.107a8.508 8.508 0 0 1 -7.033 5.114l-32.66 3.078 24.621 21.687a8.553 8.553 0 0 1 2.69 8.268l-7.171 32.012z" fill="#99a8c7" fill-rule="evenodd" data-original="#000000" class=""></path></g></svg>