<svg width="20" height="20" viewBox="0 0 20 20" fill="none" xmlns="http://www.w3.org/2000/svg">
<path d="M10.0637 19.816L9.80368 19.656C7.50953 18.2193 5.37426 16.5432 3.43368 14.656C2.0945 13.2987 1.07029 11.6634 0.433681 9.86604C-0.135949 8.14344 -0.0864202 6.27604 0.573695 4.58605C0.908315 3.75485 1.42108 3.00712 2.07589 2.3955C2.7307 1.78388 3.51161 1.32325 4.36367 1.04604C4.65174 0.945658 4.95037 0.878558 5.25369 0.846047H5.37368C5.65079 0.796546 5.93235 0.776429 6.21368 0.786042H6.3237C6.94758 0.795847 7.56567 0.907311 8.15368 1.11604H8.21368C8.24785 1.12893 8.27863 1.14945 8.30368 1.17604C8.5232 1.23756 8.73467 1.32483 8.93368 1.43604L9.31369 1.60604C9.41481 1.6623 9.51173 1.7258 9.60369 1.79604L9.74368 1.89604C9.83618 1.94324 9.92336 2.00023 10.0037 2.06605C11.093 1.21963 12.4342 0.761998 13.8137 0.766045C14.4456 0.757257 15.0745 0.855305 15.6737 1.05605C16.5195 1.32953 17.2948 1.78573 17.9446 2.39232C18.5944 2.99891 19.1027 3.74103 19.4337 4.56605C20.08 6.25831 20.1329 8.11983 19.5837 9.84605C18.9533 11.6523 17.9285 13.2954 16.5837 14.656C14.6522 16.537 12.5308 18.2127 10.2537 19.656L10.0037 19.806L10.0637 19.816ZM14.9737 3.92604C14.7802 3.92395 14.5923 3.99122 14.4441 4.11567C14.2959 4.24012 14.1971 4.41352 14.1657 4.60448C14.1343 4.79544 14.1722 4.99134 14.2728 5.15672C14.3733 5.32209 14.5297 5.44601 14.7137 5.50604C15.0305 5.62799 15.3025 5.84357 15.4937 6.12405C15.6849 6.40454 15.786 6.73662 15.7837 7.07604C15.7713 7.18616 15.7813 7.29765 15.8132 7.40377C15.8451 7.5099 15.8981 7.60846 15.9691 7.69351C16.0402 7.77856 16.1277 7.84834 16.2265 7.89861C16.3252 7.94889 16.4331 7.97864 16.5437 7.98605C16.7453 7.97703 16.9366 7.8949 17.082 7.75502C17.2274 7.61515 17.3169 7.4271 17.3337 7.22604V7.10604C17.3505 6.42609 17.1568 5.75754 16.7791 5.19189C16.4014 4.62623 15.8582 4.19111 15.2237 3.94605C15.1421 3.9252 15.0576 3.91844 14.9737 3.92604Z" fill="#99A7C7"/>
</svg>
