<svg width="24" height="25" viewBox="0 0 24 25" fill="none" xmlns="http://www.w3.org/2000/svg">
<g clip-path="url(#clip0_164_557)">
<path d="M11.6668 19.6474C11.6671 18.4612 11.9738 17.297 12.5547 16.2772C13.1355 15.2575 13.969 14.42 14.9674 13.8528C15.9658 13.2856 17.0923 13.0097 18.2283 13.054C19.3643 13.0984 20.4679 13.4614 21.4229 14.1049C21.4296 13.616 21.4332 13.0943 21.4332 12.5313C21.4332 9.63678 21.3389 7.83022 21.1525 5.95897H21.179C21.0759 4.91625 20.6943 3.92469 20.0776 3.0972C19.4609 2.26972 18.6339 1.63956 17.6908 1.2785C17.6409 1.25882 17.5911 1.24007 17.5407 1.22225C17.168 1.09152 16.7827 1.00397 16.3916 0.96116L16.3544 0.956941C14.8625 0.797097 14.6231 0.669128 11.4772 0.669128C8.33131 0.669128 7.82234 0.797097 6.33184 0.959285L6.29455 0.963503C5.88405 1.00849 5.47991 1.10286 5.0902 1.24475V1.22366C4.11846 1.56841 3.26183 2.19667 2.62185 3.03396C1.98188 3.87125 1.58538 4.88246 1.47937 5.94772C1.2925 7.82272 1.19727 9.63116 1.19727 12.5313C1.19727 15.4315 1.2925 17.2399 1.47937 19.1149C1.60698 20.3944 2.15242 21.5892 3.02418 22.4987C3.89594 23.4083 5.04097 23.9773 6.26715 24.1104L6.30443 24.1146C7.79629 24.2768 8.03527 24.4048 11.1812 24.4048C12.2233 24.4048 12.978 24.3907 13.5705 24.3658C12.9671 23.752 12.4878 23.0182 12.1608 22.2078C11.8338 21.3973 11.6658 20.5267 11.6668 19.6474ZM6.4109 6.91053H16.2178C16.5016 6.91053 16.7738 7.02817 16.9744 7.23757C17.1751 7.44696 17.2878 7.73097 17.2878 8.0271C17.2878 8.32323 17.1751 8.60723 16.9744 8.81663C16.7738 9.02602 16.5016 9.14366 16.2178 9.14366H6.41314C6.12935 9.14366 5.85718 9.02602 5.65651 8.81663C5.45584 8.60723 5.3431 8.32323 5.3431 8.0271C5.3431 7.73097 5.45584 7.44696 5.65651 7.23757C5.85718 7.02817 6.12935 6.91053 6.41314 6.91053H6.4109ZM6.4109 13.9216C6.13084 13.9156 5.86419 13.7953 5.66816 13.5866C5.47213 13.3778 5.36234 13.0971 5.36234 12.8048C5.36234 12.5125 5.47213 12.2319 5.66816 12.0231C5.86419 11.8143 6.13084 11.694 6.4109 11.688H12.0041C12.1465 11.685 12.2881 11.7116 12.4205 11.7664C12.5529 11.8211 12.6735 11.9029 12.7752 12.0069C12.8769 12.1109 12.9578 12.2351 13.0129 12.3721C13.0681 12.5091 13.0965 12.6562 13.0965 12.8048C13.0965 12.9534 13.0681 13.1006 13.0129 13.2376C12.9578 13.3746 12.8769 13.4987 12.7752 13.6027C12.6735 13.7067 12.5529 13.7885 12.4205 13.8433C12.2881 13.898 12.1465 13.9247 12.0041 13.9216H6.4109Z" fill="#99A7C7"/>
<path d="M17.9905 14.6257C17.0386 14.6257 16.1082 14.9202 15.3168 15.472C14.5254 16.0238 13.9086 16.8081 13.5443 17.7257C13.1801 18.6433 13.0848 19.653 13.2705 20.6271C13.4561 21.6012 13.9145 22.496 14.5875 23.1983C15.2606 23.9006 16.1181 24.3789 17.0516 24.5726C17.9851 24.7664 18.9528 24.667 19.8321 24.2869C20.7115 23.9068 21.4631 23.2631 21.9919 22.4373C22.5207 21.6115 22.8029 20.6406 22.8029 19.6474C22.8029 18.3156 22.2959 17.0383 21.3934 16.0965C20.4909 15.1548 19.2668 14.6257 17.9905 14.6257ZM19.8978 20.3824H17.8948C17.7429 20.3824 17.5972 20.3194 17.4898 20.2074C17.3824 20.0953 17.322 19.9433 17.322 19.7847V16.5738C17.322 16.4153 17.3824 16.2633 17.4898 16.1512C17.5972 16.0391 17.7429 15.9762 17.8948 15.9762C18.0467 15.9762 18.1924 16.0391 18.2998 16.1512C18.4072 16.2633 18.4675 16.4153 18.4675 16.5738V19.1871H19.8978C20.0497 19.1871 20.1954 19.2501 20.3028 19.3621C20.4103 19.4742 20.4706 19.6262 20.4706 19.7847C20.4706 19.9433 20.4103 20.0953 20.3028 20.2074C20.1954 20.3194 20.0497 20.3824 19.8978 20.3824Z" fill="#99A7C7"/>
</g>
<defs>
<clipPath id="clip0_164_557">
<rect width="23" height="24" fill="white" transform="translate(0.5 0.669128)"/>
</clipPath>
</defs>
</svg>
