<svg width="25" height="26" viewBox="0 0 25 26" fill="none" xmlns="http://www.w3.org/2000/svg">
<path d="M22.8027 3.09766H8.05664C6.84473 3.09766 5.85938 4.12293 5.85938 5.38281C5.85938 6.6432 6.84473 7.66797 8.05664 7.66797H22.8027C24.0142 7.66797 25 6.6432 25 5.38281C25 4.12293 24.0142 3.09766 22.8027 3.09766Z" fill="#99A7C7"/>
<path d="M22.8027 10.7148H8.05664C6.84473 10.7148 5.85938 11.7401 5.85938 13C5.85938 14.2604 6.84473 15.2852 8.05664 15.2852H22.8027C24.0142 15.2852 25 14.2604 25 13C25 11.7401 24.0142 10.7148 22.8027 10.7148Z" fill="#99A7C7"/>
<path d="M22.8027 18.332H8.05664C6.84473 18.332 5.85938 19.3573 5.85938 20.6172C5.85938 21.8776 6.84473 22.9023 8.05664 22.9023H22.8027C24.0142 22.9023 25 21.8776 25 20.6172C25 19.3573 24.0142 18.332 22.8027 18.332Z" fill="#99A7C7"/>
<path d="M2.19727 3.09766C0.985352 3.09766 0 4.12293 0 5.38281C0 6.6432 0.985352 7.66797 2.19727 7.66797C3.40869 7.66797 4.39453 6.6432 4.39453 5.38281C4.39453 4.12293 3.40869 3.09766 2.19727 3.09766Z" fill="#99A7C7"/>
<path d="M2.19727 10.7148C0.985352 10.7148 0 11.7401 0 13C0 14.2604 0.985352 15.2852 2.19727 15.2852C3.40869 15.2852 4.39453 14.2604 4.39453 13C4.39453 11.7401 3.40869 10.7148 2.19727 10.7148Z" fill="#99A7C7"/>
<path d="M2.19727 18.332C0.985352 18.332 0 19.3573 0 20.6172C0 21.8776 0.985352 22.9023 2.19727 22.9023C3.40869 22.9023 4.39453 21.8776 4.39453 20.6172C4.39453 19.3573 3.40869 18.332 2.19727 18.332Z" fill="#99A7C7"/>
</svg>
