<?xml version="1.0"?>
<svg xmlns="http://www.w3.org/2000/svg" xmlns:xlink="http://www.w3.org/1999/xlink" xmlns:svgjs="http://svgjs.com/svgjs" version="1.1" width="512px" height="512px" x="0" y="0" viewBox="0 0 16.933333 16.933333" style="enable-background:new 0 0 512 512" xml:space="preserve" class=""><g><path id="path1944" d="m4.2363539.5292225c-.9929256.0559991-2.104157.5491506-2.8623576 1.4965494-.75819791.947301-1.13219966 2.3578846-.5839433 4.1485846.5546116 1.8113984 2.1669375 4.0001635 4.0736545 5.8988645 1.8976313 1.9049 4.0843225 3.515736 5.8942125 4.070035 1.790457.548302 3.201323.174358 4.148585-.583943.947263-.758301 1.440463-1.869083 1.494999-2.81378.03001-.519801-.211365-.971085-.551905-1.324986-.340543-.353899-.78377-.629526-1.223182-.848527-.878819-.4381-1.760099-.6480231-1.760099-.6480231-.08949-.02101-.183454.01029-.248562.07028l-1.33222 1.3317021c-1.103394-.5379-2.2480609-1.4084251-3.2525145-2.4205251-1.014468-1.006099-1.8873708-2.1524986-2.426208-3.2581976l1.3317009-1.3327354c.06509-.065.091702-.1590622.070281-.2485628 0 0-.2099865-.8812-.6480228-1.7601009-.2190165-.4393988-.4941806-.8826791-.8480105-1.2231793-.3317134-.3193018-.7489481-.5516562-1.2764082-.5534554zm6.3133101 2.9099007c-.442272.028998-.7677282.3787484-.7668792.79375.000127.4351998.3585372.7938478.7937502.7937499.435271 0 .793861-.3588676.79375-.7942685-.000032-.4347977-.357584-.7928319-.820621-.7932314zm2.113566 0c-.442376.028998-.767729.3787484-.766877.79375.000125.4351998.359048.7939484.794266.7937499.435385 0 .793859-.358767.79375-.7942685-.000034-.4347977-.358005-.7928319-.821139-.7932314zm2.121318 0c-.442402.028998-.767213.3787484-.766361.79375.000125.4351998.35854.7938478.79375.7937499.435385 0 .793859-.358767.79375-.7942685-.000032-.4347977-.357973-.7928319-.821139-.7932314zm-4.467945 1.8463974c-.7282893 0-1.3223979.5946166-1.3223979 1.3229166v.5333021c-.00389.148799.1157235.271817.2645833.271817l1.3720076-.00159c-.0299-.083121-.04912-.1713785-.04909-.2640673v-.5327811c0-.5041423.205893-.9631547.536916-1.2981119-.08843-.018547-.178766-.031522-.272333-.031522zm4.235402 0c-.09383 0-.184192.012885-.272854.031522.331176.3349731.536919.7938215.536919 1.298112v.5327839c.000026.091062-.01865.1775645-.04754.259416l1.370978-.00159c.145884 0 .264195-.1181655.264584-.2640647v-.5332996c0-.7283-.594622-1.3229167-1.322917-1.3229167zm-2.117185.00722c-.728401 0-1.323433.5940795-1.323433 1.3223981v.533818c-.000039.1461982.118383.2646495.264584.2645833h2.645833c.146159.0000106.264623-.1184248.264583-.2645833v-.533818c0-.7283186-.594616-1.3223981-1.322916-1.3223981z" font-variant-ligatures="normal" font-variant-position="normal" font-variant-caps="normal" font-variant-numeric="normal" font-variant-alternates="normal" font-feature-settings="normal" text-indent="0" text-align="start" text-decoration-line="none" text-decoration-style="solid" text-decoration-color="rgb(0,0,0)" text-transform="none" text-orientation="mixed" white-space="normal" shape-padding="0" isolation="auto" mix-blend-mode="normal" solid-color="rgb(0,0,0)" solid-opacity="1" vector-effect="none" paint-order="fill markers stroke" fill="#ff9200" data-original="#000000" class=""/></g></svg>
