<?xml version="1.0"?>
<svg xmlns="http://www.w3.org/2000/svg" xmlns:xlink="http://www.w3.org/1999/xlink" xmlns:svgjs="http://svgjs.com/svgjs" version="1.1" width="512px" height="512px" x="0" y="0" viewBox="0 0 439.987 439.987" style="enable-background:new 0 0 512 512" xml:space="preserve" class=""><g>
<g>
	<g id="Single_Flower">
		<path d="M227.994,157.187v274.8c0,4.418-3.582,8-8,8s-8-3.582-8-8v-274.8C217.154,159.107,222.833,159.107,227.994,157.187z" fill="#c1c1c1" data-original="#000000" class=""/>
		<path d="M226.714,139.667c-3.265,3.711-8.921,4.073-12.632,0.808c-0.286-0.252-0.556-0.522-0.808-0.808    c-20.72-14.48-81.6-61.92-72.32-111.68c4.13-21.993,32.874-34.846,55.28-24.16c9.193,4.266,17.049,10.96,22.72,19.36    c0.332,0.574,1.067,0.771,1.641,0.439c0.182-0.105,0.334-0.257,0.439-0.439c5.601-8.462,13.476-15.173,22.72-19.36    c22.393-10.679,51.148,2.154,55.28,24.16C308.314,77.747,247.434,125.187,226.714,139.667z" fill="#c1c1c1" data-original="#000000" class=""/>
		<path d="M295.994,204.254c-5.545,40.899-20.195,54.405-52,59.28v-36.8c9.268-15.81,30.694-23.301,48.48-26.24    c1.762-0.199,3.352,1.068,3.551,2.83C296.06,203.633,296.049,203.947,295.994,204.254z" fill="#c1c1c1" data-original="#000000" class=""/>
		<path d="M195.994,322.734v36.8c-31.812-4.877-46.468-18.475-52-59.28c-0.315-1.745,0.845-3.415,2.589-3.729    c0.307-0.055,0.621-0.066,0.931-0.031C165.237,299.422,186.693,306.867,195.994,322.734z" fill="#c1c1c1" data-original="#000000" class=""/>
	</g>
</g>















</g></svg>
