<?xml version="1.0"?>
<svg xmlns="http://www.w3.org/2000/svg" xmlns:xlink="http://www.w3.org/1999/xlink" xmlns:svgjs="http://svgjs.com/svgjs" version="1.1" width="512px" height="512px" x="0" y="0" viewBox="0 0 426.66667 426" style="enable-background:new 0 0 512 512" xml:space="preserve" class=""><g><path d="m426.667969 64.332031v-10.664062c-.035157-29.441407-23.894531-53.300781-53.335938-53.335938h-320c-29.441406.035157-53.2968748 23.894531-53.332031 53.335938v10.664062zm0 0" fill="#bebebe" data-original="#000000" class=""/><path d="m0 85.667969v245.332031c.0351562 29.441406 23.890625 53.300781 53.332031 53.332031h320c29.441407-.03125 53.300781-23.890625 53.335938-53.332031v-245.332031zm64 74.664062c0-2.828125 1.121094-5.542969 3.121094-7.542969 2.003906-2 4.714844-3.125 7.546875-3.121093h85.332031c2.828125-.003907 5.542969 1.121093 7.542969 3.121093 2.003906 2 3.125 4.714844 3.125 7.542969v64c0 2.832031-1.121094 5.542969-3.125 7.546875-2 2-4.714844 3.121094-7.542969 3.121094h-85.332031c-2.832031 0-5.542969-1.121094-7.546875-3.121094-2-2.003906-3.121094-4.714844-3.121094-7.546875zm288 138.667969h-277.332031c-5.890625 0-10.667969-4.777344-10.667969-10.667969s4.777344-10.664062 10.667969-10.664062h277.332031c5.890625 0 10.667969 4.773437 10.667969 10.664062s-4.777344 10.667969-10.667969 10.667969zm0-64h-128c-5.890625 0-10.667969-4.777344-10.667969-10.667969s4.777344-10.664062 10.667969-10.664062h128c5.890625 0 10.667969 4.773437 10.667969 10.664062s-4.777344 10.667969-10.667969 10.667969zm0-64h-128c-5.890625 0-10.667969-4.777344-10.667969-10.667969s4.777344-10.664062 10.667969-10.664062h128c5.890625 0 10.667969 4.773437 10.667969 10.664062s-4.777344 10.667969-10.667969 10.667969zm0 0" fill="#bebebe" data-original="#000000" class=""/><path d="m85.332031 171h64v42.667969h-64zm0 0" fill="#bebebe" data-original="#000000" class=""/></g></svg>
