<?xml version="1.0"?>
<svg xmlns="http://www.w3.org/2000/svg" xmlns:xlink="http://www.w3.org/1999/xlink" xmlns:svgjs="http://svgjs.com/svgjs" version="1.1" width="512px" height="512px" x="0" y="0" viewBox="0 0 32 32" style="enable-background:new 0 0 512 512" xml:space="preserve" class=""><g transform="matrix(-1,0,0,1,32,0)"><g id="Layer_2" data-name="Layer 2"><path d="m27.67 3.13h-23.34a3.34 3.34 0 0 0 -3.33 3.33v15.33a3.34 3.34 0 0 0 3.33 3.34h2.67l1.92 3a1.48 1.48 0 0 0 1.27.7 1.52 1.52 0 0 0 1.28-.73l1.82-3h14.38a3.34 3.34 0 0 0 3.33-3.31v-15.33a3.34 3.34 0 0 0 -3.33-3.33zm-6.67 9h-10a1 1 0 0 1 -1-1 1 1 0 0 1 1-1h10a1 1 0 0 1 1 1 1 1 0 0 1 -1 1zm1 4.55a1 1 0 0 1 -1 1h-10a1 1 0 0 1 0-2h10a1 1 0 0 1 1 1z" fill="#ff9200" data-original="#000000" class=""/></g></g></svg>
