<?xml version="1.0"?>
<svg xmlns="http://www.w3.org/2000/svg" xmlns:xlink="http://www.w3.org/1999/xlink" xmlns:svgjs="http://svgjs.com/svgjs" version="1.1" width="512px" height="512px" x="0" y="0" viewBox="0 0 32 32" style="enable-background:new 0 0 512 512" xml:space="preserve" class=""><g><path d="m27 16a1 1 0 0 0 -2 0 9 9 0 0 1 -18 0 1 1 0 0 0 -2 0 11 11 0 0 0 10 11v3a1 1 0 0 0 2 0v-3a11 11 0 0 0 10-11z" fill="#9d9d9d" data-original="#000000" class=""/><path d="m16.16 21a6 6 0 0 0 6-6v-8a6 6 0 0 0 -12 0v8a6 6 0 0 0 6 6zm-4-14a4 4 0 0 1 8 0v8a4 4 0 0 1 -8 0z" fill="#9d9d9d" data-original="#000000" class=""/></g></svg>
