<svg clip-rule="evenodd" fill-rule="evenodd" height="512" stroke-linejoin="round" stroke-miterlimit="2" viewBox="0 0 24 24" width="512" xmlns="http://www.w3.org/2000/svg"><g id="Icon"><circle cx="19" cy="5" r="3.75"/><path d="m22.177 8.53c-.842.758-1.956 1.22-3.177 1.22-2.622 0-4.75-2.128-4.75-4.75 0-1.221.462-2.335 1.22-3.177-1.089-.371-2.256-.573-3.47-.573-5.933 0-10.75 4.817-10.75 10.75s4.817 10.75 10.75 10.75 10.75-4.817 10.75-10.75c0-1.214-.202-2.381-.573-3.47zm-15.147 10.132 1.477-1.477c.234-.235.552-.366.884-.366h5.218c.332 0 .65.131.884.366 0 0 1.477 1.477 1.477 1.477.292.292.768.292 1.06 0 .293-.293.293-.768 0-1.061l-1.476-1.477c-.516-.516-1.216-.805-1.945-.805-1.322 0-3.896 0-5.218 0-.729 0-1.429.289-1.945.805l-1.476 1.477c-.293.293-.293.768 0 1.061.292.292.768.292 1.06 0zm4.97-11.043c-1.932 0-3.5 1.568-3.5 3.5 0 1.931 1.568 3.5 3.5 3.5s3.5-1.569 3.5-3.5c0-1.932-1.568-3.5-3.5-3.5z"/></g></svg>