<?xml version="1.0"?>
<svg xmlns="http://www.w3.org/2000/svg" xmlns:xlink="http://www.w3.org/1999/xlink" xmlns:svgjs="http://svgjs.com/svgjs" version="1.1" width="512px" height="512px" x="0" y="0" viewBox="0 0 512 512" style="enable-background:new 0 0 512 512" xml:space="preserve"><g>
<g>
	<g>
		<path d="M256,0C115.041,0,0,115.049,0,256c0,140.959,115.049,256,256,256c140.959,0,256-115.049,256-256    C512,115.041,396.951,0,256,0z M256,482C131.383,482,30,380.617,30,256S131.383,30,256,30s226,101.383,226,226    S380.617,482,256,482z" fill="#d9d9d9" data-original="#000000"/>
	</g>
</g>
<g>
	<g>
		<path d="M181,121c-17.383,0-30,18.925-30,45s12.617,45,30,45s30-18.925,30-45S198.383,121,181,121z" fill="#d9d9d9" data-original="#000000"/>
	</g>
</g>
<g>
	<g>
		<path d="M331,121c-17.383,0-30,18.925-30,45s12.617,45,30,45s30-18.925,30-45S348.383,121,331,121z" fill="#d9d9d9" data-original="#000000"/>
	</g>
</g>
<g>
	<g>
		<path d="M421,226c0,8.271-6.729,15-15,15s-15-6.729-15-15h-30c0,19.346,12.272,35.878,29.44,42.225    C384.242,336.956,326.318,391,256,391s-128.242-54.044-134.44-122.775C138.728,261.878,151,245.346,151,226h-30    c0,8.271-6.729,15-15,15s-15-6.729-15-15H61c0,19.731,12.771,36.525,30.476,42.581C97.925,353.708,169.251,421,256,421    s158.075-67.292,164.524-152.419C438.229,262.525,451,245.731,451,226H421z" fill="#d9d9d9" data-original="#000000"/>
	</g>
</g>
<g>
</g>
<g>
</g>
<g>
</g>
<g>
</g>
<g>
</g>
<g>
</g>
<g>
</g>
<g>
</g>
<g>
</g>
<g>
</g>
<g>
</g>
<g>
</g>
<g>
</g>
<g>
</g>
<g>
</g>
</g></svg>
