<?xml version="1.0"?>
<svg xmlns="http://www.w3.org/2000/svg" xmlns:xlink="http://www.w3.org/1999/xlink" xmlns:svgjs="http://svgjs.com/svgjs" version="1.1" width="512px" height="512px" x="0" y="0" viewBox="0 0 24 24" style="enable-background:new 0 0 512 512" xml:space="preserve" class=""><g><circle cx="18.5" cy="14.5" r="3" fill="#ff9200" data-original="#000000" class=""/><path d="m21.25 19h-5.5c-1.517 0-2.75 1.233-2.75 2.75v1.5c0 .414.336.75.75.75h9.5c.414 0 .75-.336.75-.75v-1.5c0-1.517-1.233-2.75-2.75-2.75z" fill="#ff9200" data-original="#000000" class=""/><circle cx="4" cy="17" r="2" fill="#ff9200" data-original="#000000" class=""/><path d="m5.25 20h-2.5c-1.517 0-2.75 1.233-2.75 2.75v.5c0 .414.336.75.75.75h6.5c.414 0 .75-.336.75-.75v-.5c0-1.517-1.233-2.75-2.75-2.75z" fill="#ff9200" data-original="#000000" class=""/><path d="m12.25 0h-9.5c-1.517 0-2.75 1.233-2.75 2.75v7.5c0 1.517 1.233 2.75 2.75 2.75h4.957l3.034 2.801c.142.131.324.199.509.199.102 0 .204-.021.301-.063.272-.12.449-.389.449-.687v-2.25h.25c1.517 0 2.75-1.233 2.75-2.75v-7.5c0-1.517-1.233-2.75-2.75-2.75zm-2 8.5h-5.5c-.414 0-.75-.336-.75-.75s.336-.75.75-.75h5.5c.414 0 .75.336.75.75s-.336.75-.75.75zm0-3.5h-5.5c-.414 0-.75-.336-.75-.75s.336-.75.75-.75h5.5c.414 0 .75.336.75.75s-.336.75-.75.75z" fill="#ff9200" data-original="#000000" class=""/></g></svg>
