<?xml version="1.0" encoding="iso-8859-1"?>
<!-- Generator: Adobe Illustrator 19.0.0, SVG Export Plug-In . SVG Version: 6.00 Build 0)  -->
<svg version="1.1" id="Capa_1" xmlns="http://www.w3.org/2000/svg" xmlns:xlink="http://www.w3.org/1999/xlink" x="0px" y="0px"
	 viewBox="0 0 512 512" style="enable-background:new 0 0 512 512;" xml:space="preserve">
<g>
	<g>
		<path d="M30,155.779H15c-8.284,0-15,6.716-15,15v240c0,8.284,6.716,15,15,15h15c16.569,0,30-13.431,30-30v-210
			C60,169.211,46.569,155.779,30,155.779z"/>
	</g>
</g>
<g>
	<g>
		<path d="M467,155.779H321.211l-47.52-47.505c-27.129-27.144-70.137-29.487-100.078-5.61L90,169.56c0,193.727,0,145.941,0,232.601
			c43.198,15.379,88.462,23.619,135,23.619h60c24.814,0,45-20.186,45-45c0-5.845-1.113-11.44-3.164-16.582
			c19.102-5.2,33.164-22.705,33.164-43.418c0-5.845-1.113-11.44-3.164-16.582c19.102-5.2,33.164-22.705,33.164-43.418
			c0-5.259-0.908-10.312-2.578-15H467c24.814,0,45-20.186,45-45C512,175.966,491.814,155.779,467,155.779z"/>
	</g>
</g>
<g>
</g>
<g>
</g>
<g>
</g>
<g>
</g>
<g>
</g>
<g>
</g>
<g>
</g>
<g>
</g>
<g>
</g>
<g>
</g>
<g>
</g>
<g>
</g>
<g>
</g>
<g>
</g>
<g>
</g>
</svg>
