<?xml version="1.0" encoding="UTF-8"?>
<svg xmlns="http://www.w3.org/2000/svg" viewBox="0 0 64 64" width="512" height="512"><g id="Layer_24" data-name="Layer 24"><path d="M55.11,9.79H51V4a2,2,0,0,0-4,0V9.79H17V4a2,2,0,0,0-4,0V9.79H8.89A6.9,6.9,0,0,0,2,16.68V55.11A6.9,6.9,0,0,0,8.89,62H55.11A6.9,6.9,0,0,0,62,55.11V16.68A6.9,6.9,0,0,0,55.11,9.79Zm-46.22,4H55.11A2.9,2.9,0,0,1,58,16.68v2.39H6V16.68A2.9,2.9,0,0,1,8.89,13.79ZM55.11,58H8.89A2.9,2.9,0,0,1,6,55.11v-32H58v32A2.9,2.9,0,0,1,55.11,58Z"/><path d="M44.68,35.45l-7.52-1.09-3.37-6.82a2,2,0,0,0-3.58,0l-3.37,6.82-7.52,1.09a2,2,0,0,0-1.11,3.41l5.44,5.31-1.28,7.49a2,2,0,0,0,2.9,2.11L32,50.23l6.73,3.54a2,2,0,0,0,2.9-2.11l-1.28-7.49,5.44-5.31a2,2,0,0,0-1.11-3.41ZM36.8,42a2,2,0,0,0-.57,1.77L37,48.34,32.93,46.2a2,2,0,0,0-1.86,0L27,48.34l.77-4.53A2,2,0,0,0,27.2,42l-3.3-3.22,4.56-.66A2,2,0,0,0,30,37.07l2-4.13,2,4.13a2,2,0,0,0,1.5,1.09l4.56.66Z"/></g></svg>
