<svg xmlns="http://www.w3.org/2000/svg" version="1.1" xmlns:xlink="http://www.w3.org/1999/xlink" xmlns:svgjs="http://svgjs.com/svgjs" width="512" height="512" x="0" y="0" viewBox="0 0 32 32" style="enable-background:new 0 0 512 512" xml:space="preserve" class=""><g transform="matrix(-1.8369701987210297e-16,-1,1,-1.8369701987210297e-16,-1.7763568394002505e-15,32)"><g id="Layer_30" data-name="Layer 30"><path d="m5 12h2v17a1 1 0 0 1 -2 0zm10 17a1 1 0 0 0 2 0v-9h-2zm2-26a1 1 0 0 0 -2 0v9h2zm8 26a1 1 0 0 0 2 0v-17h-2zm3-24h-4a2 2 0 0 0 -2 2v2a2 2 0 0 0 2 2h4a2 2 0 0 0 2-2v-2a2 2 0 0 0 -2-2zm-10 8h-4a2 2 0 0 0 -2 2v2a2 2 0 0 0 2 2h4a2 2 0 0 0 2-2v-2a2 2 0 0 0 -2-2zm-10-8h-4a2 2 0 0 0 -2 2v2a2 2 0 0 0 2 2h4a2 2 0 0 0 2-2v-2a2 2 0 0 0 -2-2zm19-2a1 1 0 0 0 -2 0v1h2zm-20 0a1 1 0 0 0 -2 0v1h2z" fill="#000000" data-original="#000000" class=""></path></g></g></svg>