<svg height="511pt" viewBox="0 -14 511.99739 511" width="511pt" xmlns="http://www.w3.org/2000/svg"><path d="m309.492188 187.90625c-1.125 0-2.257813-.191406-3.351563-.578125l-50.140625-17.832031-50.144531 17.832031c-3.105469 1.105469-6.558594.605469-9.226563-1.332031-2.667968-1.941406-4.210937-5.070313-4.121094-8.367188l1.464844-53.199218-32.453125-42.179688c-2.011719-2.609375-2.605469-6.050781-1.585937-9.1875 1.019531-3.136719 3.519531-5.566406 6.683594-6.5l51.046874-15.046875 30.085938-43.902344c1.867188-2.71875 4.953125-4.34375 8.25-4.34375s6.382812 1.625 8.25 4.34375l30.085938 43.902344 51.046874 15.046875c3.164063.933594 5.664063 3.363281 6.683594 6.5 1.019532 3.136719.425782 6.574219-1.585937 9.1875l-32.453125 42.183594 1.464844 53.195312c.089843 3.296875-1.453126 6.429688-4.121094 8.367188-1.730469 1.257812-3.796875 1.910156-5.878906 1.910156zm-123.222657-106.285156 25.722657 33.433594c1.402343 1.820312 2.132812 4.070312 2.070312 6.371093l-1.160156 42.167969 39.746094-14.132812c2.167968-.769532 4.535156-.769532 6.703124 0l39.742188 14.132812-1.15625-42.167969c-.066406-2.300781.667969-4.550781 2.070312-6.371093l25.722657-33.433594-40.460938-11.929688c-2.207031-.648437-4.121093-2.039062-5.421875-3.9375l-23.847656-34.796875-23.847656 34.796875c-1.300782 1.898438-3.214844 3.289063-5.421875 3.9375zm0 0"/><path d="m401.765625 95.832031c-2.082031 0-4.148437-.652343-5.878906-1.910156-2.667969-1.9375-4.210938-5.066406-4.117188-8.363281l.613281-22.414063-13.671874-17.773437c-2.011719-2.613282-2.601563-6.050782-1.585938-9.1875 1.019531-3.136719 3.519531-5.566406 6.683594-6.5l21.507812-6.339844 12.675782-18.496094c1.867187-2.722656 4.953124-4.347656 8.25-4.347656 3.296874 0 6.382812 1.625 8.25 4.347656l12.675781 18.496094 21.503906 6.339844c3.164063.933594 5.664063 3.363281 6.6875 6.5 1.015625 3.136718.425781 6.574218-1.585937 9.1875l-13.675782 17.773437.617188 22.414063c.09375 3.296875-1.449219 6.425781-4.117188 8.363281-2.667968 1.9375-6.121094 2.433594-9.226562 1.332031l-21.128906-7.511718-21.125 7.511718c-1.09375.386719-2.226563.578125-3.351563.578125zm24.476563-28.703125c1.132812 0 2.265624.191406 3.347656.578125l10.730468 3.8125-.3125-11.382812c-.066406-2.300781.667969-4.550781 2.070313-6.371094l6.941406-9.027344-10.921875-3.21875c-2.203125-.648437-4.121094-2.039062-5.421875-3.9375l-6.4375-9.394531-6.4375 9.394531c-1.300781 1.898438-3.214843 3.285157-5.421875 3.9375l-10.921875 3.21875 6.945313 9.027344c1.398437 1.820313 2.132812 4.070313 2.066406 6.371094l-.3125 11.382812 10.730469-3.8125c1.089843-.386719 2.21875-.578125 3.355469-.578125zm0 0"/><path d="m110.234375 95.832031c-1.125 0-2.257813-.191406-3.351563-.578125l-21.125-7.511718-21.125 7.511718c-3.109374 1.105469-6.558593.605469-9.230468-1.332031-2.667969-1.9375-4.207032-5.066406-4.117188-8.363281l.617188-22.414063-13.675782-17.773437c-2.011718-2.613282-2.601562-6.050782-1.582031-9.1875 1.019531-3.140625 3.519531-5.570313 6.683594-6.503906l21.503906-6.339844 12.675781-18.496094c1.867188-2.71875 4.953126-4.34375 8.25-4.34375 3.296876 0 6.382813 1.625 8.25 4.34375l12.675782 18.496094 21.503906 6.34375c3.164062.929687 5.664062 3.363281 6.683594 6.5 1.019531 3.136718.425781 6.574218-1.582032 9.1875l-13.675781 17.769531.617188 22.414063c.089843 3.296874-1.449219 6.429687-4.117188 8.367187-1.730469 1.257813-3.792969 1.910156-5.878906 1.910156zm-24.476563-28.703125c1.132813 0 2.269532.191406 3.351563.578125l10.730469 3.8125-.3125-11.382812c-.066406-2.300781.667968-4.550781 2.066406-6.371094l6.945312-9.027344-10.921874-3.21875c-2.207032-.648437-4.121094-2.039062-5.421876-3.9375l-6.4375-9.394531-6.4375 9.394531c-1.300781 1.898438-3.214843 3.285157-5.421874 3.9375l-10.921876 3.21875 6.945313 9.027344c1.402344 1.820313 2.132813 4.070313 2.070313 6.371094l-.3125 11.382812 10.730468-3.8125c1.082032-.386719 2.214844-.578125 3.347656-.578125zm0 0"/><path d="m256 414.003906c-.648438 0-1.308594-.070312-1.949219-.199218-.640625-.121094-1.269531-.320313-1.871093-.570313-.609376-.25-1.191407-.5625-1.730469-.921875-.550781-.359375-1.058594-.777344-1.519531-1.238281-.460938-.460938-.878907-.96875-1.238282-1.519531-.363281-.539063-.671875-1.121094-.921875-1.730469-.25-.601563-.449219-1.230469-.570312-1.871094-.128907-.640625-.199219-1.300781-.199219-1.949219 0-.648437.070312-1.308594.199219-1.949218.121093-.640626.320312-1.269532.570312-1.878907.25-.601562.558594-1.183593.921875-1.722656.359375-.550781.777344-1.058594 1.238282-1.519531.460937-.460938.96875-.878906 1.519531-1.238282.539062-.363281 1.121093-.671874 1.730469-.921874.601562-.25 1.230468-.441407 1.871093-.570313 1.289063-.257813 2.609375-.257813 3.898438 0 .640625.128906 1.269531.320313 1.871093.570313.609376.25 1.1875.558593 1.726563.921874.550781.359376 1.0625.777344 1.523437 1.238282.460938.460937.878907.96875 1.238282 1.519531.359375.539063.671875 1.121094.921875 1.722656.25.609375.449219 1.238281.566406 1.878907.132813.640624.203125 1.300781.203125 1.949218 0 .648438-.070312 1.3125-.203125 1.949219-.128906.640625-.316406 1.269531-.566406 1.871094-.25.609375-.5625 1.191406-.921875 1.730469-.359375.550781-.777344 1.058593-1.238282 1.519531-.460937.460937-.972656.878906-1.523437 1.238281-.539063.359375-1.117187.671875-1.726563.921875-.601562.25-1.230468.449219-1.871093.570313-.640625.128906-1.300781.199218-1.949219.199218zm0 0"/><path d="m256 381.003906c-5.523438 0-10-4.476562-10-10v-165.003906c0-5.519531 4.476562-10 10-10s10 4.480469 10 10v165.003906c0 5.519532-4.476562 10-10 10zm0 0"/><path d="m425.746094 317.28125c-.523438 0-1.042969-.039062-1.566406-.125-3.257813-.515625-6.050782-2.601562-7.46875-5.582031l-17.972657-37.808594-37.804687-17.972656c-2.980469-1.414063-5.070313-4.207031-5.585938-7.464844s.609375-6.5625 3.003906-8.828125l30.402344-28.773438 5.410156-41.511718c.425782-3.269532 2.4375-6.121094 5.375-7.617188 2.941407-1.5 6.425782-1.449218 9.324219.128906l36.761719 20.019532 41.148438-7.679688c3.242187-.609375 6.574218.425782 8.90625 2.757813 2.332031 2.332031 3.363281 5.664062 2.761718 8.90625l-7.683594 41.148437 20.023438 36.761719c1.574219 2.898437 1.625 6.386719.125 9.324219-1.496094 2.9375-4.347656 4.949218-7.617188 5.375l-41.507812 5.410156-28.777344 30.402344c-1.902344 2.015625-4.535156 3.128906-7.257812 3.128906zm-43.050782-73.285156 27.84375 13.234375c2.074219.988281 3.75 2.660156 4.738282 4.738281l13.234375 27.839844 21.1875-22.386719c1.582031-1.671875 3.691406-2.746094 5.972656-3.042969l30.566406-3.984375-14.746093-27.070312c-1.097657-2.019531-1.46875-4.355469-1.046876-6.617188l5.65625-30.304687-30.300781 5.660156c-2.261719.417969-4.597656.050781-6.617187-1.050781l-27.074219-14.742188-3.980469 30.566407c-.296875 2.28125-1.371094 4.390624-3.042968 5.96875zm0 0"/><path d="m273.648438 483.867188c-.347657 0-.691407-.015626-1.042969-.050782-5.492188-.570312-9.484375-5.484375-8.917969-10.976562 6.554688-63.40625 37.082031-111.574219 61.539062-140.816406 26.410157-31.585938 51.386719-48.371094 52.433594-49.070313 4.597656-3.058594 10.804688-1.816406 13.867188 2.785156 3.058594 4.59375 1.8125 10.804688-2.785156 13.863281-.949219.632813-23.597657 15.859376-48.175782 45.25-22.664062 27.105469-50.953125 71.667969-56.984375 130.046876-.53125 5.140624-4.875 8.96875-9.933593 8.96875zm0 0"/><path d="m86.253906 317.28125c-2.722656 0-5.355468-1.113281-7.261718-3.125l-28.773438-30.402344-41.511719-5.410156c-3.269531-.425781-6.121093-2.4375-7.617187-5.378906-1.496094-2.9375-1.449219-6.425782.128906-9.320313l20.019531-36.761719-7.679687-41.152343c-.609375-3.242188.425781-6.574219 2.757812-8.90625 2.332032-2.332031 5.664063-3.367188 8.90625-2.757813l41.148438 7.683594 36.761718-20.023438c2.898438-1.578124 6.386719-1.625 9.324219-.128906s4.949219 4.347656 5.375 7.617188l5.410157 41.511718 30.40625 28.773438c2.394531 2.269531 3.515624 5.570312 3 8.828125-.515626 3.257813-2.605469 6.050781-5.582032 7.46875l-37.808594 17.972656-17.96875 37.804688c-1.417968 2.976562-4.210937 5.066406-7.46875 5.582031-.523437.085938-1.046874.125-1.566406.125zm-60.492187-56.886719 30.566406 3.984375c2.28125.296875 4.390625 1.371094 5.96875 3.042969l21.191406 22.386719 13.234375-27.839844c.988282-2.078125 2.660156-3.75 4.738282-4.738281l27.839843-13.234375-22.386719-21.191406c-1.671874-1.578126-2.746093-3.6875-3.042968-5.96875l-3.984375-30.566407-27.070313 14.746094c-2.019531 1.097656-4.359375 1.46875-6.617187 1.046875l-30.304688-5.65625 5.65625 30.300781c.425781 2.261719.054688 4.601563-1.046875 6.617188zm0 0"/><path d="m238.351562 483.867188c-5.0625 0-9.402343-3.828126-9.933593-8.972657-6.035157-58.378906-34.320313-102.9375-56.984375-130.042969-24.566406-29.375-47.226563-44.617187-48.179688-45.25-4.597656-3.0625-5.84375-9.273437-2.78125-13.867187 3.0625-4.597656 9.269532-5.84375 13.867188-2.78125 1.050781.699219 26.039062 17.503906 52.433594 49.070313 24.457031 29.242187 54.984374 77.410156 61.539062 140.816406.566406 5.492187-3.425781 10.40625-8.921875 10.972656-.347656.039062-.695313.054688-1.039063.054688zm0 0"/><path d="m334.558594 482.003906c-1.394532 0-2.8125-.292968-4.164063-.910156-5.019531-2.304688-7.222656-8.238281-4.917969-13.261719 15.265626-33.285156 40.710938-53.824219 59.367188-65.195312 19.769531-12.050781 35.832031-16.523438 37.597656-16.996094 5.339844-1.421875 10.816406 1.75 12.238282 7.085937 1.421874 5.335938-1.75 10.816407-7.085938 12.238282-.144531.039062-14.679688 3.984375-32.34375 14.75-16.273438 9.917968-38.4375 27.765625-51.597656 56.457031-1.679688 3.667969-5.304688 5.832031-9.09375 5.832031zm0 0"/><path d="m186.921875 482.003906c-3.789063 0-7.414063-2.164062-9.097656-5.832031-13.15625-28.691406-35.320313-46.539063-51.597657-56.457031-17.660156-10.765625-32.199218-14.710938-32.34375-14.75-5.335937-1.425782-8.507812-6.902344-7.082031-12.238282 1.421875-5.335937 6.902344-8.507812 12.238281-7.085937 1.769532.472656 17.835938 4.953125 37.597657 16.996094 18.65625 11.371093 44.101562 31.910156 59.367187 65.195312 2.304688 5.023438.101563 10.957031-4.921875 13.261719-1.351562.617188-2.765625.910156-4.160156.910156zm0 0"/><path d="m465.84375 354.988281c-5.519531 0-10-4.476562-10-10v-8.324219c0-5.523437 4.480469-10 10-10 5.523438 0 10 4.476563 10 10v8.324219c0 5.523438-4.476562 10-10 10zm0 0"/><path d="m465.84375 400.140625c-5.519531 0-10-4.480469-10-10v-8.328125c0-5.519531 4.480469-10 10-10 5.523438 0 10 4.480469 10 10v8.328125c0 5.519531-4.476562 10-10 10zm0 0"/><path d="m492.582031 373.402344h-8.324219c-5.519531 0-10-4.480469-10-10 0-5.523438 4.480469-10 10-10h8.324219c5.523438 0 10 4.476562 10 10 0 5.519531-4.476562 10-10 10zm0 0"/><path d="m447.433594 373.402344h-8.324219c-5.523437 0-10-4.480469-10-10 0-5.523438 4.476563-10 10-10h8.324219c5.523437 0 10 4.476562 10 10 0 5.519531-4.476563 10-10 10zm0 0"/><path d="m46.152344 354.988281c-5.523438 0-10-4.476562-10-10v-8.324219c0-5.523437 4.476562-10 10-10 5.523437 0 10 4.476563 10 10v8.324219c0 5.523438-4.476563 10-10 10zm0 0"/><path d="m46.152344 400.140625c-5.523438 0-10-4.480469-10-10v-8.328125c0-5.519531 4.476562-10 10-10 5.523437 0 10 4.480469 10 10v8.328125c0 5.519531-4.476563 10-10 10zm0 0"/><path d="m72.890625 373.402344h-8.324219c-5.523437 0-10-4.480469-10-10 0-5.523438 4.476563-10 10-10h8.324219c5.523437 0 10 4.476562 10 10 0 5.519531-4.476563 10-10 10zm0 0"/><path d="m27.742188 373.402344h-8.328126c-5.519531 0-10-4.480469-10-10 0-5.523438 4.480469-10 10-10h8.328126c5.523437 0 10 4.476562 10 10 0 5.519531-4.476563 10-10 10zm0 0"/></svg>