<svg id="Layer_1" height="512" viewBox="0 0 64 64" width="512" xmlns="http://www.w3.org/2000/svg" data-name="Layer 1"><circle cx="32" cy="32" r="4"/><path d="m50 36h-5l-1-.29v-1.71l-3 .86-3 .85-1 .29h-5-5l-1-.29-3-.85-3-.86v1.71l-1 .29h-5-5l-7-2v3l6 3v8h1l-2 14h4l2-10h2l2 10h4l-2-14h1v-8l3-1.5 3 1.5v8h1l-2 14h4l2-10h2l2 10h4l-2-14h1v-8l3-1.5 3 1.5v8h1l-2 14h4l2-10h2l2 10h4l-2-14h1v-8l6-3v-3l-7 2z"/><circle cx="50" cy="32" r="4"/><circle cx="14" cy="32" r="4"/><path d="m33.236 4.633-1.236-2.633-1.236 2.633-2.764.423 2 2.05-.472 2.894 2.472-1.367 2.472 1.367-.472-2.894 2-2.05z"/><path d="m8.236 15.633-1.236-2.633-1.236 2.633-2.764.423 2 2.05-.472 2.894 2.472-1.367 2.472 1.367-.472-2.894 2-2.05z"/><path d="m55 18.106-.472 2.894 2.472-1.367 2.472 1.367-.472-2.894 2-2.05-2.764-.423-1.236-2.633-1.236 2.633-2.764.423z"/><path d="m43 19v-2a7.009 7.009 0 0 0 -7 7h2a5.006 5.006 0 0 1 5-5z"/><path d="m21 17v2a5.006 5.006 0 0 1 5 5h2a7.009 7.009 0 0 0 -7-7z"/><path d="m46 10h2v2h-2z"/><path d="m46 14h2v2h-2z"/><path d="m48 12h2v2h-2z"/><path d="m44 12h2v2h-2z"/><path d="m16 10h2v2h-2z"/><path d="m7 3h2v2h-2z"/><path d="m55 3h2v2h-2z"/><path d="m16 14h2v2h-2z"/><path d="m18 12h2v2h-2z"/><path d="m14 12h2v2h-2z"/></svg>