<?xml version="1.0"?>
<svg xmlns="http://www.w3.org/2000/svg" xmlns:xlink="http://www.w3.org/1999/xlink" xmlns:svgjs="http://svgjs.com/svgjs" version="1.1" width="512px" height="512px" x="0" y="0" viewBox="0 0 24 24" style="enable-background:new 0 0 512 512" xml:space="preserve" class=""><g><g id="Layer_2" data-name="Layer 2"><rect height="12" rx="2" width="13" x="3" y="10" fill="#c1c1c1" data-original="#000000" class=""/><path d="m20.52539 11.64972a.99512.99512 0 0 0 -.97266-.04394l-5 2.5a1.0004 1.0004 0 0 0 -.55273.89453v2a1.00041 1.00041 0 0 0 .55273.89453l5 2.5a1.00039 1.00039 0 0 0 1.44727-.89453v-7a1.00038 1.00038 0 0 0 -.47461-.85059z" fill="#c1c1c1" data-original="#000000" class=""/><path d="m12.3418 8.83008a.99856.99856 0 0 1 -.68946-.27539 3.12238 3.12238 0 0 0 -4.30566.001 1.00024 1.00024 0 1 1 -1.37695-1.4512 5.124 5.124 0 0 1 7.06152.001 1 1 0 0 1 -.68945 1.72461z" fill="#c1c1c1" data-original="#000000" class=""/><path d="m4.76465 5.89453a1 1 0 0 1 -.69043-1.72265 7.86333 7.86333 0 0 1 10.85058-.001.99949.99949 0 0 1 -1.3789 1.44726 6.04513 6.04513 0 0 0 -4.0459-1.61814 6.0292 6.0292 0 0 0 -4.04492 1.61719.99416.99416 0 0 1 -.69043.27734z" fill="#c1c1c1" data-original="#000000" class=""/></g></g></svg>
