<?xml version="1.0"?>
<svg xmlns="http://www.w3.org/2000/svg" xmlns:xlink="http://www.w3.org/1999/xlink" xmlns:svgjs="http://svgjs.com/svgjs" version="1.1" width="512px" height="512px" x="0" y="0" viewBox="0 0 512 512" style="enable-background:new 0 0 512 512" xml:space="preserve" class=""><g>
<g>
	<g>
		<path d="M416.67,145.1c11.307-19.603,6.574-42.004-8.015-55.301C367.127,51.874,312.265,31,256,31S144.873,51.874,103.345,89.799    c-14.589,13.297-19.322,35.698-8.015,55.302C72.546,177.799,60,215.704,60,256c0,69.727,0,121.678,0,180c0,24.814,20.186,45,45,45    c24.814,0,45-20.186,45-45V316c0-24.814-20.186-45-45-45c-5.284,0-10.285,1.082-15,2.763V256    c0-33.182,10.118-64.415,28.394-91.562c15.368,5.576,33.4,2.756,46.664-9.131c49.512-44.238,132.371-44.253,181.883,0.015    c12.161,10.858,29.248,15.452,46.677,9.137C411.885,191.602,422,222.825,422,256v17.763c-4.715-1.681-9.716-2.763-15-2.763    c-24.814,0-45,20.186-45,45v120c0,24.814,20.186,45,45,45c24.814,0,45-20.186,45-45c0-55.936,0-124.161,0-180    C452,215.704,439.454,177.799,416.67,145.1z" fill="#c1c1c1" data-original="#000000" class=""/>
	</g>
</g>
<g>
	<g>
		<path d="M315.311,299.711c-11.308-14.497-26.749-23.681-44.311-27.078V256c0-8.291-6.709-15-15-15c-8.291,0-15,6.709-15,15    v107.763c-4.715-1.681-9.716-2.763-15-2.763c-24.814,0-45,20.186-45,45c0,24.814,20.186,45,45,45c24.814,0,45-20.186,45-45    V303.609c9.668,3.285,16.474,9.177,20.669,14.559c11.06,14.165,14.722,34.424,9.785,54.199    c-2.021,8.027,2.871,16.172,10.913,18.179c1.216,0.308,2.446,0.454,3.647,0.454c6.724,0,12.832-4.541,14.531-11.367    C337.708,350.981,332.024,321.098,315.311,299.711z" fill="#c1c1c1" data-original="#000000" class=""/>
	</g>
</g>
<g>
	<g>
		<path d="M0,376c0,24.404,11.896,45.912,30,59.617V316.383C11.896,330.088,0,351.596,0,376z" fill="#c1c1c1" data-original="#000000" class=""/>
	</g>
</g>
<g>
	<g>
		<path d="M482,316.383v119.235c18.104-13.705,30-35.213,30-59.617S500.104,330.088,482,316.383z" fill="#c1c1c1" data-original="#000000" class=""/>
	</g>
</g>
<g>
</g>
<g>
</g>
<g>
</g>
<g>
</g>
<g>
</g>
<g>
</g>
<g>
</g>
<g>
</g>
<g>
</g>
<g>
</g>
<g>
</g>
<g>
</g>
<g>
</g>
<g>
</g>
<g>
</g>
</g></svg>
