<svg height="512" viewBox="0 0 64 64" width="512" xmlns="http://www.w3.org/2000/svg"><g id="Layer_42" data-name="Layer 42"><path d="m48 3.25h-32a12.76 12.76 0 0 0 -12.75 12.75v32a12.76 12.76 0 0 0 12.75 12.75h32a12.76 12.76 0 0 0 12.75-12.75v-32a12.76 12.76 0 0 0 -12.75-12.75zm-29.66 8a7.09 7.09 0 1 1 -7.09 7.09 7.1 7.1 0 0 1 7.09-7.09zm27.32 41.5a7.09 7.09 0 1 1 7.09-7.09 7.1 7.1 0 0 1 -7.09 7.09zm8.28-38.81-40 40a.71.71 0 0 1 -.53.22.74.74 0 0 1 -.53-.22l-2.82-2.82a.74.74 0 0 1 0-1.06l40-40a.74.74 0 0 1 1.06 0l2.82 2.82a.74.74 0 0 1 0 1.06z"/></g></svg>