<?xml version="1.0"?>
<svg xmlns="http://www.w3.org/2000/svg" xmlns:xlink="http://www.w3.org/1999/xlink" xmlns:svgjs="http://svgjs.com/svgjs" version="1.1" width="512px" height="512px" x="0" y="0" viewBox="0 0 512 512" style="enable-background:new 0 0 512 512" xml:space="preserve" class=""><g><g><path d="m191.354 348.627-11.527 46.29h58.883s-22.875-19.427-47.356-46.29z" fill="#c1c1c1" data-original="#000000"/><path d="m273.289 394.917h58.883l-11.527-46.29c-24.48 26.863-47.356 46.29-47.356 46.29z" fill="#c1c1c1" data-original="#000000"/><path d="m344.589 320.624 18.5 74.293h95.518l-43.172-85.5h-62.122c-2.256 2.983-8.124 10.457-8.724 11.207z" fill="#c1c1c1" data-original="#000000"/><path d="m141.44 424.917h-103.195l-38.245 75.5h122.64z" fill="#c1c1c1" data-original="#000000"/><path d="m370.56 424.917 18.8 75.5h122.64l-38.245-75.5z" fill="#c1c1c1" data-original="#000000"/><path d="m339.643 424.917h-167.286l-18.801 75.5h204.888z" fill="#c1c1c1" data-original="#000000"/><path d="m148.911 394.917 18.5-74.293c-.6-.75-6.468-8.225-8.724-11.208h-62.122l-43.172 85.5h95.518z" fill="#c1c1c1" data-original="#000000"/><path d="m122.268 145.315c0 111.922 133.732 224.935 133.732 224.935s133.732-113.013 133.732-224.935c0-73.858-59.874-133.732-133.732-133.732s-133.732 59.874-133.732 133.732zm133.732-69.825c37.038 0 67.17 30.132 67.17 67.17s-30.132 67.17-67.17 67.17c-37.037 0-67.169-30.132-67.169-67.17s30.132-67.17 67.169-67.17z" fill="#c1c1c1" data-original="#000000"/><path d="m256 179.83c20.495 0 37.17-16.674 37.17-37.17s-16.675-37.17-37.17-37.17-37.169 16.674-37.169 37.17 16.674 37.17 37.169 37.17z" fill="#c1c1c1" data-original="#000000"/></g></g></svg>
