<svg height="512" viewBox="0 0 32 32" width="512" xmlns="http://www.w3.org/2000/svg"><g id="reload"><path d="m16 25a9 9 0 1 0 -9-9 9.0136 9.0136 0 0 0 9 9zm-1-12a1 1 0 0 1 2 0v2.58l1.83 1.83a1.0041 1.0041 0 0 1 -1.42 1.42l-2.12-2.12a1.0414 1.0414 0 0 1 -.29-.71z"/><path d="m16 2a1 1 0 0 0 0 2 12.05 12.05 0 1 1 -8.3131 3.3744l-.0678.5172a1 1 0 0 0 1.9834.26l.3892-2.9746a1.0413 1.0413 0 0 0 -.8623-1.1211l-2.9746-.3889a1 1 0 1 0 -.2588 1.9824l.6227.0816a13.9753 13.9753 0 1 0 9.4813-3.731z"/></g></svg>