<svg id="Capa_1" enable-background="new 0 0 95.938 95.938" height="95.938" viewBox="0 0 95.938 95.938" width="95.938" xmlns="http://www.w3.org/2000/svg"><g><path d="m95.329 59.861c-.031-7.134-.053-12.289-3.562-16.824-3.975-5.134-10.106-6.004-15.076-6.152.837-3.587 1.079-7.564.692-11.863-.106-14.317-10.759-24.608-25.544-25.016l-.213-.006-22.614.018-.243-.001c-8.795 0-15.747 2.626-20.664 7.804-3.043 3.203-7.085 8.798-7.513 17.845l-.018 36.48c-.044.689.025 1.385.016 2.1 0 10.379 1.661 17.85 6.848 23.371 5.183 5.521 12.847 8.32 22.776 8.32.215 0 .432-.001.649-.004h34.547.082c8.858-.074 16.343-2.998 21.646-8.455 5.293-5.447 8.143-13.208 8.24-22.441-.001 0-.043-3.717-.049-5.176zm-64.483-40.404 19.322-.023c4.554.072 8.188 4.151 8.114 8.705-.072 4.509-3.749 7.799-8.242 7.799-.044 0-19.455.008-19.455.008-4.554-.073-8.186-3.823-8.113-8.375.072-4.554 3.814-8.158 8.374-8.114zm36.318 54.275h-38.643c-4.553 0-8.246-3.691-8.246-8.246 0-4.554 3.693-8.246 8.246-8.246h38.644c4.555 0 8.246 3.692 8.246 8.246 0 4.555-3.692 8.246-8.247 8.246z"/></g><g/><g/><g/><g/><g/><g/><g/><g/><g/><g/><g/><g/><g/><g/><g/></svg>