<svg width="17" height="14" viewBox="0 0 17 14" fill="none" xmlns="http://www.w3.org/2000/svg">
<path d="M15.5154 8.75494C15.2378 8.6248 14.9775 8.54391 14.6938 8.54602C13.9009 8.55059 13.2476 9.08766 13.0815 9.88535C13.0634 9.97292 13.0503 10.0239 12.9416 10.0426C11.8527 10.229 11.2549 11.4142 11.7521 12.3755C11.7607 12.3963 11.7679 12.4177 11.7737 12.4395C11.7131 12.4764 11.6533 12.4599 11.5966 12.4599C8.35682 12.4599 5.11691 12.4599 1.87688 12.4599C0.773061 12.4599 0 11.6861 0 10.5863C0 8.3473 0 6.10806 0 3.86859C0 2.73888 0.772353 1.97531 1.91229 1.97355C2.60886 1.97355 3.30507 1.96582 4.00164 1.97707C4.19995 1.98024 4.31717 1.92572 4.39756 1.73931C4.50911 1.48186 4.64155 1.23214 4.77789 0.986296C5.12848 0.354267 5.66817 0.0141599 6.39838 0.00642221C7.28936 -0.00342576 8.17929 9.13692e-05 9.07169 0.0036085C9.86139 0.0060705 10.4319 0.365873 10.7874 1.06367C10.91 1.30389 11.0353 1.54341 11.1455 1.78891C11.2071 1.92607 11.2928 1.97883 11.4447 1.97742C12.1707 1.97074 12.8966 1.97285 13.6222 1.97391C14.7388 1.97566 15.5129 2.74205 15.5147 3.85241C15.5173 5.42926 15.5173 7.00587 15.5147 8.58225L15.5154 8.75494ZM5.00807 6.95311C5.00347 8.46548 6.23796 9.70386 7.75115 9.70773C9.25832 9.7116 10.5027 8.48447 10.5109 6.98652C10.5194 5.47416 9.2739 4.24316 7.74052 4.24316C6.25248 4.24703 5.01268 5.47627 5.00807 6.95311Z" fill="#99A7C7"/>
<path d="M13.8765 12.8873C13.8765 12.4652 13.8765 12.4652 13.4402 12.4628C13.2936 12.4628 13.1459 12.4747 13.0007 12.4339C12.6094 12.3232 12.3498 11.9415 12.4022 11.5511C12.4252 11.3572 12.5178 11.178 12.6632 11.0464C12.8085 10.9149 12.9968 10.8398 13.1933 10.8351C13.3644 10.8305 13.5361 10.8263 13.7065 10.8351C13.8347 10.8424 13.8881 10.8094 13.8786 10.6719C13.8669 10.5027 13.8726 10.3321 13.8786 10.1622C13.8828 9.94962 13.9706 9.7471 14.1234 9.5981C14.2762 9.44911 14.4816 9.36551 14.6958 9.36524C14.9099 9.36496 15.1156 9.44803 15.2687 9.59663C15.4219 9.74523 15.5103 9.94752 15.515 10.1601C15.5203 10.3416 15.5214 10.5234 15.515 10.7049C15.5118 10.8055 15.5483 10.8375 15.6478 10.8343C15.8302 10.8284 16.0133 10.8294 16.196 10.8343C16.4091 10.838 16.6124 10.924 16.7626 11.0742C16.9128 11.2244 16.9981 11.4269 17.0003 11.6386C17.0025 11.8503 16.9215 12.0545 16.7745 12.2077C16.6274 12.361 16.426 12.4512 16.213 12.4593C16.0246 12.4674 15.8355 12.4677 15.6464 12.4624C15.5451 12.4596 15.5129 12.4976 15.5161 12.5947C15.5217 12.7705 15.5196 12.9464 15.5161 13.1222C15.5051 13.5865 15.1506 13.9343 14.6931 13.934C14.2355 13.9336 13.8889 13.5823 13.8786 13.1156C13.8747 13.0396 13.8765 12.9633 13.8765 12.8873Z" fill="#99A7C7"/>
</svg>
