<?xml version="1.0" encoding="iso-8859-1"?>
<!-- Generator: Adobe Illustrator 19.0.0, SVG Export Plug-In . SVG Version: 6.00 Build 0)  -->
<svg version="1.1" id="Capa_1" xmlns="http://www.w3.org/2000/svg" xmlns:xlink="http://www.w3.org/1999/xlink" x="0px" y="0px"
	 viewBox="0 0 512 512" style="enable-background:new 0 0 512 512;" xml:space="preserve">
<g>
	<g>
		<g>
			<circle cx="128" cy="182.857" r="36.571"/>
			<path d="M384.036,404.478c-5.592-1.588-11.607-0.352-16.121,3.313c-2.773,1.943-6.392,2.195-9.407,0.656
				c-3.015-1.539-4.934-4.619-4.986-8.004c0.324-5.805-2.203-11.404-6.772-15c-2.543-1.883-5.617-2.912-8.781-2.942
				c-1.176-0.004-2.347,0.16-3.478,0.487c-8.777,2.562-14.732,15.857-14.482,32.321c1.357,14.653,6.125,28.785,13.925,41.263
				c14.598-0.989,28.765-5.358,41.384-12.763c13.692-9.607,20.969-22.228,17.902-30.839
				C391.613,408.886,388.232,405.76,384.036,404.478z"/>
			<path d="M160.302,227.098c-19.208,14.155-45.395,14.155-64.603,0c-15.455,7.577-27.707,20.409-34.562,36.197
				c17.225,18.663,41.467,29.277,66.864,29.277s49.638-10.614,66.864-29.277C188.009,247.506,175.756,234.675,160.302,227.098z"/>
			<path d="M82.48,213.435c-15.387-22.878-11.402-53.622,9.309-71.822c20.711-18.2,51.712-18.2,72.422,0
				c20.711,18.2,24.695,48.943,9.309,71.822c13.938,7.987,25.505,19.533,33.517,33.457c16.448-28.254,16.526-63.149,0.205-91.476
				c-16.322-28.328-46.549-45.761-79.242-45.702c-32.693-0.059-62.921,17.374-79.243,45.702
				c-16.321,28.328-16.243,63.223,0.206,91.477C56.975,232.969,68.542,221.423,82.48,213.435z"/>
			<rect x="100.571" y="448" width="118.857" height="27.429"/>
			<rect x="100.571" y="402.286" width="118.857" height="27.429"/>
			<rect x="100.571" y="356.571" width="118.857" height="27.429"/>
			<rect x="36.571" y="402.286" width="45.714" height="27.429"/>
			<rect x="36.571" y="356.571" width="45.714" height="27.429"/>
			<rect x="36.571" y="448" width="45.714" height="27.429"/>
			<path d="M456.223,290.076c-4.249-1.104-8.769-0.198-12.263,2.459c-4.565,3.597-7.09,9.193-6.768,14.996
				c-0.05,3.385-1.968,6.465-4.983,8.005s-6.634,1.287-9.406-0.656c-3.306-2.509-7.315-3.919-11.464-4.031
				c-1.583-0.003-3.157,0.241-4.665,0.723c-4.193,1.282-7.573,4.406-9.179,8.487c-3.067,8.612,4.21,21.232,17.696,30.688
				c12.664,7.495,26.908,11.918,41.589,12.915c7.755-12.405,12.52-26.442,13.92-41.004
				C470.951,305.933,464.996,292.638,456.223,290.076z"/>
			<path d="M494.076,133.286c-7.866,40.094-44.446,84.571-65.549,107.491c-2.348,2.548-5.934,3.552-9.263,2.594
				c-1.431-0.413-2.954-0.948-4.421-1.4c-3.738,9.575-8.802,18.577-15.043,26.744c-16.924,23.652-53.397,41.522-73.616,50.049
				c-3.213,1.355-6.917,0.765-9.549-1.522c-16.567-14.393-45.679-42.719-54.487-70.701c-12.125-35.018-6.295-67.058,14.929-81.384
				c3.498-2.318,7.316-4.114,11.333-5.33C268.709,128.9,264.993,96.9,279.147,73.83c0.146-0.239,0.331-0.451,0.481-0.688H0v426.79
				C0,506.473,4.187,512,9.143,512h493.714c4.955,0,9.143-5.527,9.143-12.067V73.143h-16.238
				C499.47,93.083,498.895,113.584,494.076,133.286z M52.67,121.235c42.281-39.93,108.375-39.931,150.658-0.002
				c42.283,39.929,46.064,105.914,8.618,150.411v0c-0.143,0.144-0.249,0.309-0.403,0.443
				c-20.785,24.588-51.347,38.771-83.544,38.771s-62.758-14.184-83.543-38.772c-0.152-0.133-0.257-0.296-0.4-0.439
				C6.61,227.15,10.389,161.165,52.67,121.235z M237.714,475.429c-0.01,10.095-8.191,18.276-18.286,18.286H36.571
				c-10.095-0.01-18.276-8.191-18.286-18.286V356.571c0.01-10.095,8.191-18.276,18.286-18.286h182.857
				c10.095,0.01,18.276,8.191,18.286,18.286V475.429z M386.022,458.63c-15.563,11.576-41.92,15.478-56.232,16.763
				c-0.272,0.022-0.549,0.036-0.817,0.036c-3.223,0.001-6.208-1.695-7.857-4.464c-7.353-12.348-19.647-35.995-19.393-55.638
				c-0.384-25.188,10.464-44.871,27.634-49.893c9.728-2.706,20.162-0.751,28.25,5.295c5.503,4.071,9.65,9.708,11.897,16.174
				c6.557-1.973,13.558-1.92,20.085,0.152c9.642,3.004,17.345,10.311,20.853,19.781C416.446,423.683,406.857,444.014,386.022,458.63
				z M488.987,322.674c0.254,19.379-12.041,43.026-19.389,55.375c-1.648,2.771-4.633,4.469-7.857,4.469
				c-0.268,0-0.545-0.013-0.817-0.036c-14.313-1.286-40.678-5.187-56.438-16.915c-20.629-14.464-30.219-34.795-24.214-51.643
				c3.507-9.468,11.208-16.773,20.848-19.777c6.526-2.081,13.529-2.134,20.085-0.152c2.246-6.467,6.393-12.104,11.897-16.174
				c8.086-6.055,18.524-8.013,28.254-5.299C478.527,277.545,489.371,297.228,488.987,322.674z"/>
			<path d="M476.183,129.513c5.238-20.279,4.935-41.592-0.878-61.714c-0.101-0.22-0.165-0.444-0.249-0.673
				c-3.431-11.604-11.183-21.449-21.659-27.506c-12.1-5.929-26.238-6.039-38.429-0.299c-14.851,7.403-25.32,21.4-28.228,37.737
				c-0.744,3.289-3.237,5.902-6.488,6.799c-3.251,0.897-6.731-0.067-9.057-2.509c-10.873-12.558-27.059-19.212-43.621-17.933
				c-13.408,1.324-25.489,8.669-32.835,19.964c-11.421,18.615-5.392,47.755,15.047,74.998c2.534,0.387,5.032,0.977,7.471,1.765
				c10.818,3.662,20.018,10.985,26.013,20.705c8.718-7.375,19.738-11.474,31.156-11.589h0.286
				c14.118-0.118,27.511,6.241,36.344,17.254c7.718,10.529,10.882,23.717,8.782,36.601
				C437.534,203.215,469.52,163.477,476.183,129.513z"/>
			<path d="M279.504,240.804c5.219,16.562,21.42,37.737,44.83,58.839c28.808-12.777,50.781-27.857,60.75-41.777
				c17.018-22.429,21.701-47.063,11.545-60.121c-5.388-6.638-13.547-10.405-22.094-10.201c-10.683,0.292-20.561,5.745-26.5,14.629
				c-2.039,2.685-5.39,4.03-8.719,3.5c-3.329-0.53-6.097-2.85-7.2-6.036c-2.885-10.292-10.579-18.546-20.643-22.147
				c-2.996-0.996-6.133-1.503-9.29-1.5c-5.278-0.059-10.456,1.446-14.879,4.326C273.594,189.571,270.384,214.446,279.504,240.804z"
				/>
			<path d="M502.857,0H9.143C4.187,0,0,5.527,0,12.067v42.79h298.035c8.342-5.285,17.788-8.578,27.608-9.625
				c17.069-1.686,34.137,3.205,47.723,13.674c6.292-15.944,18.43-28.886,33.938-36.187c17.331-8.2,37.477-7.938,54.589,0.71
				c12.673,6.949,22.569,18.046,28.029,31.428H512v-42.79C512,5.527,507.813,0,502.857,0z M45.714,36.571H27.429
				c-5.049,0-9.143-4.093-9.143-9.143c0-5.049,4.093-9.143,9.143-9.143h18.286c5.049,0,9.143,4.093,9.143,9.143
				C54.857,32.478,50.764,36.571,45.714,36.571z M100.571,36.571H82.286c-5.049,0-9.143-4.093-9.143-9.143
				c0-5.049,4.093-9.143,9.143-9.143h18.286c5.049,0,9.143,4.093,9.143,9.143C109.714,32.478,105.621,36.571,100.571,36.571z
				 M155.429,36.571h-18.286c-5.049,0-9.143-4.093-9.143-9.143c0-5.049,4.093-9.143,9.143-9.143h18.286
				c5.049,0,9.143,4.093,9.143,9.143C164.571,32.478,160.478,36.571,155.429,36.571z"/>
		</g>
	</g>
</g>
<g>
</g>
<g>
</g>
<g>
</g>
<g>
</g>
<g>
</g>
<g>
</g>
<g>
</g>
<g>
</g>
<g>
</g>
<g>
</g>
<g>
</g>
<g>
</g>
<g>
</g>
<g>
</g>
<g>
</g>
</svg>
