<svg enable-background="new 0 0 32 32" height="512" viewBox="0 0 32 32" width="512" xmlns="http://www.w3.org/2000/svg"><g id="Wishlist"><path d="m14.686 10.253-2.357 3.306-1.512-1.825c-.178-.313-.688-1.449.501-2.575.01 0 .459-.334 1.095-.334.428 0 .865.156 1.304.459zm4.912-1.47c-.804 0-1.461.604-1.461.604l-1.324 1.46-3.107 4.369 2.336 2.826 5.412-6.476c.521-.854-.229-1.887-.239-1.897-.492-.563-1.055-.886-1.617-.886zm6.75-2.628v22.759c0 .367-.201.704-.523.879-.148.081-.313.121-.477.121-.19 0-.38-.054-.545-.162l-8.789-5.719-8.789 5.719c-.307.2-.701.216-1.021.041-.322-.175-.523-.512-.523-.879v-22.759c0-2.244 1.825-4.069 4.068-4.069h12.531c2.242 0 4.068 1.825 4.068 4.069zm-3.508 2.201c-1.188-1.366-2.419-1.659-3.242-1.659-1.638 0-2.796 1.075-2.963 1.241l-.625.688-.886-.875c-.031-.032-.073-.063-.115-.094-.813-.615-1.689-.917-2.597-.917-1.387 0-2.314.73-2.472.855-2.116 1.991-1.48 4.348-.844 5.317.021.032.041.063.062.094l6.08 7.331c.198.24.49.375.803.375s.605-.136.803-.375l6.246-7.477c.032-.031.053-.063.074-.094 1.105-1.668.344-3.514-.324-4.41z"/></g></svg>