<svg width="24" height="24" viewBox="0 0 24 24" fill="none" xmlns="http://www.w3.org/2000/svg">
<g clip-path="url(#clip0_34_261)">
<path d="M24 17.5V18.25C24 18.45 23.92 18.64 23.78 18.78L18.78 23.78C18.64 23.92 18.45 24 18.25 24H17.5V18.25C17.5 17.84 17.84 17.5 18.25 17.5H24Z" fill="#99A7C7"/>
<path d="M21.25 5H13.75V7.25C13.75 8.215 12.965 9 12 9C11.035 9 10.25 8.215 10.25 7.25V5H2.75C1.23 5 0 6.23 0 7.75V21.25C0 22.77 1.23 24 2.75 24H16.5V18.25C16.5 17.285 17.285 16.5 18.25 16.5H24V7.75C24 6.23 22.77 5 21.25 5ZM14 19.5H4.75C4.336 19.5 4 19.164 4 18.75C4 18.336 4.336 18 4.75 18H14C14.414 18 14.75 18.336 14.75 18.75C14.75 19.164 14.414 19.5 14 19.5ZM19.25 15.5H4.75C4.336 15.5 4 15.164 4 14.75C4 14.336 4.336 14 4.75 14H19.25C19.664 14 20 14.336 20 14.75C20 15.164 19.664 15.5 19.25 15.5ZM19.25 11.5H4.75C4.336 11.5 4 11.164 4 10.75C4 10.336 4.336 10 4.75 10H19.25C19.664 10 20 10.336 20 10.75C20 11.164 19.664 11.5 19.25 11.5Z" fill="#99A7C7"/>
<path d="M12 8C11.586 8 11.25 7.664 11.25 7.25V3.5C11.25 3.086 11.586 2.75 12 2.75C12.414 2.75 12.75 3.086 12.75 3.5V7.25C12.75 7.664 12.414 8 12 8Z" fill="#99A7C7"/>
<path d="M12 4C10.897 4 10 3.103 10 2C10 0.897 10.897 0 12 0C13.103 0 14 0.897 14 2C14 3.103 13.103 4 12 4Z" fill="#99A7C7"/>
</g>
<defs>
<clipPath id="clip0_34_261">
<rect width="24" height="24" fill="white"/>
</clipPath>
</defs>
</svg>
