<svg width="27" height="28" viewBox="0 0 27 28" fill="none" xmlns="http://www.w3.org/2000/svg">
<g clip-path="url(#clip0_34_242)">
<path d="M1.125 1.16666C0.50368 1.16666 0 1.689 0 2.33333C0 2.97766 0.50368 3.5 1.125 3.5H3.12671C3.29051 3.5 3.45015 3.55345 3.58302 3.65277C3.7159 3.75209 3.81527 3.89226 3.86706 4.05341L7.57617 15.5951C7.74089 16.1075 7.76183 16.6592 7.6355 17.1833L7.33008 18.4525C6.88194 20.3114 8.27728 22.1667 10.125 22.1667H23.625C24.2463 22.1667 24.75 21.6443 24.75 21C24.75 20.3557 24.2463 19.8333 23.625 19.8333H10.125C9.68694 19.8333 9.40572 19.4606 9.51196 19.0199L9.74229 18.0659C9.78131 17.9042 9.87131 17.7607 9.99798 17.6582C10.1247 17.5557 10.2807 17.5 10.4414 17.5H22.5C22.9844 17.5003 23.4146 17.179 23.5679 16.7025L26.5671 7.36914C26.8101 6.61339 26.2675 5.83297 25.4993 5.83333H7.37402C7.21023 5.83333 7.05058 5.77989 6.9177 5.68056C6.78482 5.58124 6.68544 5.44108 6.63365 5.27993L5.56787 1.96419C5.41457 1.48768 4.98439 1.1664 4.5 1.16666H1.125ZM9 23.3333C7.75736 23.3333 6.75 24.378 6.75 25.6667C6.75 26.9553 7.75736 28 9 28C10.2426 28 11.25 26.9553 11.25 25.6667C11.25 24.378 10.2426 23.3333 9 23.3333ZM22.5 23.3333C21.2574 23.3333 20.25 24.378 20.25 25.6667C20.25 26.9553 21.2574 28 22.5 28C23.7426 28 24.75 26.9553 24.75 25.6667C24.75 24.378 23.7426 23.3333 22.5 23.3333Z" fill="#99A7C7"/>
</g>
<defs>
<clipPath id="clip0_34_242">
<rect width="27" height="28" fill="white"/>
</clipPath>
</defs>
</svg>
