<svg width="25" height="26" viewBox="0 0 25 26" fill="none" xmlns="http://www.w3.org/2000/svg">
<g clip-path="url(#clip0_34_316)">
<path d="M22.7274 0H4.54553C3.7079 0 2.98304 0.478748 2.58887 1.1818H21.591C22.8445 1.1818 23.8637 2.24189 23.8637 3.54546V23.3077C24.5398 22.8977 25.0001 22.1439 25.0001 21.2727V2.36366C25.0001 1.06004 23.9808 0 22.7274 0Z" fill="#99A7C7"/>
<path d="M20.4546 2.36365H2.27275C1.01927 2.36365 0 3.42368 0 4.72725V23.6363C0 24.9399 1.01927 26 2.27275 26H20.4546C21.708 26 22.7273 24.94 22.7273 23.6363V4.72725C22.7273 3.42368 21.708 2.36365 20.4546 2.36365ZM11.3636 23.6364C6.35098 23.6364 2.27269 19.395 2.27269 14.1818C2.27269 8.96867 6.35098 4.72725 11.3636 4.72725C16.3763 4.72725 20.4546 8.96867 20.4546 14.1818C20.4546 19.395 16.3763 23.6364 11.3636 23.6364Z" fill="#99A7C7"/>
<path d="M11.3637 10.6364C9.48378 10.6364 7.95459 12.2267 7.95459 14.1818C7.95459 16.1369 9.48378 17.7273 11.3637 17.7273C13.2436 17.7273 14.7728 16.1369 14.7728 14.1818C14.7728 12.2267 13.2436 10.6364 11.3637 10.6364ZM11.3637 15.3636C10.7373 15.3636 10.2273 14.8333 10.2273 14.1818C10.2273 13.5304 10.7373 13 11.3637 13C11.9901 13 12.5 13.5304 12.5 14.1818C12.5001 14.8333 11.9902 15.3636 11.3637 15.3636Z" fill="#99A7C7"/>
<path d="M11.3648 8.27271C11.6783 8.27271 11.933 8.0084 11.933 7.68178C11.933 7.35576 11.6789 7.09085 11.3648 7.09085C11.3643 7.09085 11.3637 7.09085 11.3626 7.09085C9.54208 7.09085 7.83029 7.82836 6.54245 9.16771C6.32049 9.39856 6.32049 9.77249 6.54245 10.0033C6.6534 10.1187 6.79882 10.1764 6.94419 10.1764C7.08956 10.1764 7.23492 10.1187 7.34593 10.0033C8.41905 8.88723 9.84559 8.27265 11.3626 8.27265C11.3632 8.27271 11.3637 8.27271 11.3648 8.27271Z" fill="#99A7C7"/>
</g>
<defs>
<clipPath id="clip0_34_316">
<rect width="25" height="26" fill="white"/>
</clipPath>
</defs>
</svg>
