<svg width="23" height="24" viewBox="0 0 23 24" fill="none" xmlns="http://www.w3.org/2000/svg">
<g clip-path="url(#clip0_34_379)">
<path d="M22.2854 8.8881C21.4479 8.15339 20.1665 8.2409 19.4394 9.14559L19.0024 9.68503L22.0996 12.3967L22.5168 11.8592C23.2344 10.9686 23.1437 9.63848 22.2854 8.8881Z" fill="#99A7C7"/>
<path d="M13.5384 16.4313L13.3079 16.7159C13.1079 16.9658 12.9638 17.2645 12.8914 17.5811L12.265 20.3166C12.2058 20.5755 12.292 20.8474 12.4874 21.0184C12.6776 21.1852 12.9459 21.2336 13.1882 21.1255L15.6617 20.0063C15.948 19.8765 16.2046 19.6767 16.4047 19.4288L16.636 19.1433L13.5384 16.4313Z" fill="#99A7C7"/>
<path d="M18.1328 10.7586L14.4077 15.3577L17.5051 18.0697L21.2299 13.4703L18.1328 10.7586Z" fill="#99A7C7"/>
<path d="M16.8917 3.11739L14.332 0.579528C14.09 0.340138 13.7923 0.199138 13.4785 0.107544V4.21876H17.4789C17.3953 3.80111 17.1914 3.4142 16.8917 3.11739Z" fill="#99A7C7"/>
<path d="M11.5807 17.2543C11.7012 16.7283 11.9413 16.2305 12.2743 15.8144L17.5215 9.33558V5.625H12.8047C12.4322 5.625 12.1309 5.31052 12.1309 4.92188V0H2.02344C0.908746 0 0.00195312 0.946219 0.00195312 2.10938V21.8906C0.00195312 23.0538 0.908746 24 2.02344 24H15.5C16.6147 24 17.5215 23.0538 17.5215 21.8906V20.2285L17.434 20.3365C17.103 20.7479 16.6759 21.0795 16.2002 21.2958L13.7246 22.4158C13.0269 22.7302 12.2193 22.6188 11.6216 22.0965C11.0313 21.5794 10.7753 20.7726 10.9543 19.9898L11.5807 17.2543ZM3.37109 4.21875H10.1094C10.4818 4.21875 10.7832 4.53323 10.7832 4.92188C10.7832 5.31052 10.4818 5.625 10.1094 5.625H3.37109C2.99865 5.625 2.69727 5.31052 2.69727 4.92188C2.69727 4.53323 2.99865 4.21875 3.37109 4.21875ZM3.37109 8.48438H14.1523C14.5248 8.48438 14.8262 8.79886 14.8262 9.1875C14.8262 9.57614 14.5248 9.89062 14.1523 9.89062H3.37109C2.99865 9.89062 2.69727 9.57614 2.69727 9.1875C2.69727 8.79886 2.99865 8.48438 3.37109 8.48438ZM8.76172 18.3281H3.37109C2.99865 18.3281 2.69727 18.0136 2.69727 17.625C2.69727 17.2364 2.99865 16.9219 3.37109 16.9219H8.76172C9.13417 16.9219 9.43555 17.2364 9.43555 17.625C9.43555 18.0136 9.13417 18.3281 8.76172 18.3281ZM3.37109 14.1094C2.99865 14.1094 2.69727 13.7949 2.69727 13.4062C2.69727 13.0176 2.99865 12.7031 3.37109 12.7031H11.457C11.8295 12.7031 12.1309 13.0176 12.1309 13.4062C12.1309 13.7949 11.8295 14.1094 11.457 14.1094H3.37109Z" fill="#99A7C7"/>
</g>
<defs>
<clipPath id="clip0_34_379">
<rect width="23" height="24" fill="white"/>
</clipPath>
</defs>
</svg>
