<svg width="29" height="27" viewBox="0 0 29 27" fill="none" xmlns="http://www.w3.org/2000/svg">
<path d="M17.9709 14.9681C16.8994 15.6392 15.6373 15.9976 14.3459 15.9976C13.0546 15.9976 11.7925 15.6392 10.7209 14.9681C9.64857 15.6527 8.37803 16.0176 7.07781 16.0144C6.20078 16.0172 5.33299 15.8476 4.53125 15.5166V22.7813C4.5334 23.452 4.82053 24.0946 5.32993 24.5689C5.83933 25.0432 6.5296 25.3105 7.25 25.3125H10.4219V20.25C10.4219 19.8025 10.6128 19.3732 10.9527 19.0568C11.2927 18.7403 11.7537 18.5625 12.2344 18.5625H16.7656C17.2463 18.5625 17.7073 18.7403 18.0473 19.0568C18.3872 19.3732 18.5781 19.8025 18.5781 20.25V25.3125H21.75C22.4704 25.3105 23.1607 25.0432 23.6701 24.5689C24.1795 24.0946 24.4666 23.452 24.4688 22.7813V15.39C23.4463 15.8746 22.3016 16.0913 21.1571 16.017C20.0126 15.9427 18.9112 15.5802 17.9709 14.9681V14.9681Z" fill="#99A7C7"/>
<path d="M12.2344 20.25H16.7656V25.3125H12.2344V20.25Z" fill="#99A7C7"/>
<path d="M9.2065 13.8375L10.7417 1.6875H7.49641C6.92599 1.68767 6.37007 1.85487 5.90736 2.16544C5.44464 2.47602 5.09857 2.91422 4.91813 3.41803L2.95881 8.89228C2.6287 9.75281 2.61669 10.6913 2.92469 11.5589C3.23269 12.4265 3.84305 13.1735 4.65894 13.6814C5.3384 14.0697 6.11402 14.288 6.91071 14.3154C7.70739 14.3427 8.49818 14.1781 9.2065 13.8375V13.8375Z" fill="#99A7C7"/>
<path d="M25.7376 8.89228L23.7756 3.41803C23.5951 2.91422 23.249 2.47602 22.7863 2.16544C22.3236 1.85487 21.7677 1.68767 21.1973 1.6875H18.2583L19.8134 13.9911C20.4901 14.2682 21.2299 14.385 21.9668 14.3309C22.7038 14.2769 23.4149 14.0538 24.0366 13.6814C24.853 13.174 25.4638 12.427 25.772 11.5593C26.0802 10.6916 26.0681 9.75285 25.7376 8.89228V8.89228Z" fill="#99A7C7"/>
<path d="M17.3708 13.268C17.5077 13.1579 17.6776 13.0896 17.8575 13.0722L16.4192 1.6875H12.5804L11.1304 13.1625C11.1993 13.1908 11.2639 13.2274 11.3225 13.2713C12.1652 13.9429 13.2381 14.3117 14.3473 14.3111C15.4566 14.3105 16.529 13.9405 17.3708 13.268V13.268Z" fill="#99A7C7"/>
</svg>
