<svg width="32" height="32" viewBox="0 0 32 32" fill="none" xmlns="http://www.w3.org/2000/svg">
<path d="M13.9733 14.8667C14.3047 15.0054 14.6485 15.1125 15 15.1867V27.88C14.7844 27.8244 14.5746 27.7486 14.3733 27.6533L6.37333 24.0933C5.66697 23.7789 5.06688 23.2665 4.64567 22.6181C4.22446 21.9698 4.00019 21.2132 4 20.44V11.56C4.00106 11.2039 4.0504 10.8496 4.14667 10.5067L13.9733 14.8667ZM19.76 11.8933L8.89333 6.78668L6.37333 7.90668C5.91886 8.10645 5.50696 8.39161 5.16 8.74668L14.7733 13.0267C15.1596 13.1981 15.5774 13.2867 16 13.2867C16.4226 13.2867 16.8404 13.1981 17.2267 13.0267L19.76 11.8933ZM26.84 8.74668C26.493 8.39161 26.0811 8.10645 25.6267 7.90668L17.6267 4.34668C17.1154 4.11596 16.5609 3.99664 16 3.99664C15.4391 3.99664 14.8846 4.11596 14.3733 4.34668L11.32 5.70668L22.1867 10.8133L26.84 8.74668ZM27.8533 10.5067L23.1733 12.5867V15.8533C23.1733 16.1186 23.068 16.3729 22.8804 16.5605C22.6929 16.748 22.4385 16.8533 22.1733 16.8533C21.9081 16.8533 21.6538 16.748 21.4662 16.5605C21.2787 16.3729 21.1733 16.1186 21.1733 15.8533V13.4667L18.0267 14.8667C17.6931 14.9994 17.3499 15.1064 17 15.1867V27.88C17.2156 27.8244 17.4254 27.7486 17.6267 27.6533L25.6267 24.0933C26.333 23.7789 26.9331 23.2665 27.3543 22.6181C27.7755 21.9698 27.9998 21.2132 28 20.44V11.56C27.9989 11.2039 27.9496 10.8496 27.8533 10.5067V10.5067Z" fill="#99A7C7"/>
</svg>
