<svg width="67" height="143" viewBox="0 0 67 143" fill="none" xmlns="http://www.w3.org/2000/svg">
<path d="M1.5 1C1.5 0.723858 1.27614 0.5 1 0.5C0.723858 0.5 0.5 0.723858 0.5 1H1.5ZM66.8536 138.854C67.0488 138.658 67.0488 138.342 66.8536 138.146L63.6716 134.964C63.4763 134.769 63.1597 134.769 62.9645 134.964C62.7692 135.16 62.7692 135.476 62.9645 135.672L65.7929 138.5L62.9645 141.328C62.7692 141.524 62.7692 141.84 62.9645 142.036C63.1597 142.231 63.4763 142.231 63.6716 142.036L66.8536 138.854ZM0.5 1V131.5H1.5V1H0.5ZM8 139H66.5V138H8V139ZM0.5 131.5C0.5 135.642 3.85786 139 8 139V138C4.41015 138 1.5 135.09 1.5 131.5H0.5Z" fill="black"/>
</svg>
