<svg width="20" height="20" viewBox="0 0 20 20" fill="none" xmlns="http://www.w3.org/2000/svg">
<path d="M10 20C8.02219 20 6.08878 19.4135 4.44429 18.3147C2.7998 17.2159 1.51808 15.6541 0.761201 13.8268C0.00432432 11.9996 -0.193698 9.98891 0.192155 8.0491C0.578007 6.10929 1.5304 4.32746 2.92893 2.92894C4.32745 1.53041 6.10929 0.578003 8.0491 0.192151C9.98891 -0.193701 11.9996 0.00433564 13.8268 0.761212C15.6541 1.51809 17.2159 2.79981 18.3147 4.4443C19.4135 6.08879 20 8.02218 20 10V10C20 12.6522 18.9464 15.1957 17.0711 17.0711C15.1957 18.9464 12.6522 20 10 20V20ZM8.86 6C8.64751 5.99978 8.43816 6.05127 8.25 6.15001C8.00907 6.28538 7.81934 6.49619 7.71001 6.75C7.63808 6.97936 7.58128 7.21321 7.53999 7.45001C7.41209 8.28361 7.35856 9.12692 7.38001 9.97C7.3715 10.7889 7.41827 11.6074 7.52001 12.42C7.52564 12.4565 7.52564 12.4935 7.52001 12.53C7.56873 12.7887 7.63897 13.043 7.73 13.29C7.82987 13.4882 7.98275 13.6548 8.17165 13.7713C8.36054 13.8879 8.57806 13.9497 8.8 13.95V13.95C9.11086 13.9012 9.41363 13.8104 9.7 13.68C11.1141 13.0163 12.4137 12.132 13.55 11.06L13.61 11C13.708 10.9039 13.7983 10.8003 13.88 10.69C14.0359 10.4785 14.1201 10.2227 14.1201 9.96C14.1201 9.69728 14.0359 9.44146 13.88 9.23001L13.82 9.17001C13.75 9.10001 13.66 8.99001 13.56 8.90001C12.4009 7.80133 11.07 6.89945 9.62 6.23001C9.37628 6.13106 9.12086 6.06383 8.86 6.03V6Z" fill="#808080"/>
</svg>
