<svg width="17" height="16" viewBox="0 0 17 16" fill="none" xmlns="http://www.w3.org/2000/svg">
<g clip-path="url(#clip0_102_927)">
<path d="M14.6584 3.82606H12.9888L12.0671 2.43476C11.7192 1.91302 11.1105 1.59998 10.4845 1.59998H6.65837C6.03228 1.59998 5.42359 1.91302 5.07576 2.43476L4.15402 3.82606H2.48445C1.42359 3.82606 0.571411 4.67824 0.571411 5.73911V12.4869C0.571411 13.5478 1.42359 14.4 2.48445 14.4H14.6584C15.7192 14.4 16.5714 13.5478 16.5714 12.4869V5.73911C16.5714 4.67824 15.7192 3.82606 14.6584 3.82606ZM8.57141 12.8348C6.1888 12.8348 4.25837 10.9043 4.25837 8.52171C4.25837 6.13911 6.1888 4.22606 8.57141 4.22606C10.954 4.22606 12.8845 6.1565 12.8845 8.5391C12.8845 10.9043 10.954 12.8348 8.57141 12.8348ZM14.4149 6.52171C14.3975 6.52171 14.3801 6.52171 14.3453 6.52171H13.6497C13.3366 6.50432 13.0932 6.24345 13.1105 5.93041C13.1279 5.63476 13.354 5.40867 13.6497 5.39128H14.3453C14.6584 5.37389 14.9192 5.61737 14.9366 5.93041C14.954 6.24345 14.7279 6.50432 14.4149 6.52171Z" fill="#99A7C7"/>
<path d="M8.57139 6.13916C7.24965 6.13916 6.17139 7.21742 6.17139 8.53916C6.17139 9.8609 7.24965 10.9218 8.57139 10.9218C9.89313 10.9218 10.9714 9.84351 10.9714 8.52177C10.9714 7.20003 9.89313 6.13916 8.57139 6.13916Z" fill="#99A7C7"/>
</g>
<defs>
<clipPath id="clip0_102_927">
<rect width="16" height="16" fill="white" transform="translate(0.571411)"/>
</clipPath>
</defs>
</svg>
