<svg width="20" height="20" viewBox="0 0 20 20" fill="none" xmlns="http://www.w3.org/2000/svg">
<path d="M14.08 20C13.7456 20 13.4145 19.934 13.1057 19.8057C12.7969 19.6774 12.5164 19.4894 12.2804 19.2525C12.0444 19.0156 11.8575 18.7344 11.7305 18.4251C11.6034 18.1158 11.5387 17.7844 11.54 17.45V17.45V14.05C11.5347 13.3754 11.7969 12.7262 12.2692 12.2445C12.7415 11.7628 13.3855 11.4879 14.06 11.48H17.46C17.7949 11.4813 18.1262 11.5486 18.4351 11.6779C18.744 11.8073 19.0244 11.9962 19.2602 12.2339C19.4961 12.4717 19.6828 12.7535 19.8097 13.0634C19.9367 13.3733 20.0013 13.7051 20 14.04V14.04V17.44C20.0013 17.7749 19.9367 18.1067 19.8097 18.4166C19.6828 18.7265 19.4961 19.0083 19.2602 19.2461C19.0244 19.4838 18.744 19.6727 18.4351 19.8021C18.1262 19.9314 17.7949 19.9987 17.46 20H14.08ZM2.54001 20C2.20514 19.9987 1.87381 19.9314 1.56493 19.8021C1.25605 19.6727 0.975688 19.4838 0.739827 19.2461C0.503966 19.0083 0.317232 18.7265 0.190297 18.4166C0.0633616 18.1067 -0.00129593 17.7749 1.98643e-05 17.44V14.04C-0.00264623 13.3628 0.263156 12.7121 0.739217 12.2304C1.21528 11.7487 1.86279 11.4753 2.54001 11.47H5.92002C6.59377 11.4753 7.23829 11.7459 7.71378 12.2233C8.18927 12.7007 8.45742 13.3462 8.46003 14.02V17.44C8.46266 17.7744 8.39924 18.106 8.2734 18.4158C8.14756 18.7257 7.96177 19.0076 7.7267 19.2455C7.49164 19.4833 7.21192 19.6724 6.9036 19.8019C6.59528 19.9314 6.26442 19.9987 5.93001 20H2.54001ZM14.08 8.53C13.4064 8.53 12.7603 8.26239 12.284 7.78605C11.8076 7.30971 11.54 6.66365 11.54 5.99V2.57C11.5373 1.89277 11.8031 1.24207 12.2792 0.760384C12.7553 0.2787 13.4028 0.00528568 14.08 0H17.46C18.1372 0.00528568 18.7848 0.2787 19.2608 0.760384C19.7369 1.24207 20.0027 1.89277 20 2.57V5.97C20.0027 6.30524 19.9389 6.63768 19.8125 6.94816C19.686 7.25864 19.4993 7.54101 19.2632 7.77899C19.027 8.01698 18.7461 8.20586 18.4367 8.33475C18.1272 8.46365 17.7953 8.53001 17.46 8.53H14.08V8.53ZM2.54001 8.53C2.20561 8.53 1.87451 8.46397 1.56569 8.3357C1.25687 8.20743 0.976414 8.01944 0.740422 7.78252C0.50443 7.5456 0.317553 7.26441 0.190495 6.95509C0.0634379 6.64576 -0.00129667 6.31439 1.98643e-05 5.98V5.98V2.58C-0.00264623 1.90277 0.263156 1.25207 0.739217 0.770386C1.21528 0.288703 1.86279 0.0152878 2.54001 0.0100021H5.92002C6.25489 0.0113128 6.58622 0.0785621 6.8951 0.207924C7.20398 0.337286 7.48436 0.52622 7.72022 0.763939C7.95608 1.00166 8.14281 1.28351 8.26975 1.59339C8.39668 1.90328 8.46134 2.23513 8.46003 2.57V2.57V5.97C8.46266 6.30356 8.39956 6.63437 8.27434 6.94355C8.14913 7.25273 7.96424 7.53421 7.73023 7.77193C7.49622 8.00965 7.21769 8.19895 6.91053 8.32902C6.60336 8.45909 6.27358 8.52738 5.94002 8.53H2.54001V8.53Z" fill="#808080"/>
</svg>
