<svg width="21" height="21" viewBox="0 0 21 21" fill="none" xmlns="http://www.w3.org/2000/svg">
<path d="M14.6978 20.0278H5.35776C4.63889 20.1051 3.91183 20.0204 3.22998 19.7799C2.54814 19.5394 1.92886 19.1492 1.41761 18.638C0.906354 18.1267 0.516147 17.5074 0.275638 16.8256C0.0351292 16.1437 -0.0495731 15.4167 0.0277742 14.6978V5.35778C-0.0495731 4.63891 0.0351292 3.91184 0.275638 3.22999C0.516147 2.54815 0.906354 1.92885 1.41761 1.4176C1.92886 0.906349 2.54814 0.516134 3.22998 0.275625C3.91183 0.0351162 4.63889 -0.0495709 5.35776 0.0277764H14.6978C15.4167 -0.0495709 16.1437 0.0351162 16.8256 0.275625C17.5074 0.516134 18.1267 0.906349 18.6379 1.4176C19.1492 1.92885 19.5394 2.54815 19.7799 3.22999C20.0204 3.91184 20.1051 4.63891 20.0278 5.35778V14.6978C20.1051 15.4167 20.0204 16.1437 19.7799 16.8256C19.5394 17.5074 19.1492 18.1267 18.6379 18.638C18.1267 19.1492 17.5074 19.5394 16.8256 19.7799C16.1437 20.0204 15.4167 20.1051 14.6978 20.0278V20.0278ZM14.6978 10.9478C14.5383 10.9458 14.3817 10.9911 14.2478 11.0778C14.1152 11.1565 14.0086 11.2723 13.9411 11.4109C13.8736 11.5495 13.8481 11.7049 13.8678 11.8578V15.1278C13.8855 15.3346 13.981 15.5271 14.135 15.6663C14.2891 15.8055 14.4902 15.8811 14.6978 15.8778C14.9047 15.8787 15.1046 15.8023 15.2581 15.6636C15.4117 15.5249 15.5078 15.3338 15.5278 15.1278V11.8478C15.5427 11.6942 15.5141 11.5396 15.4451 11.4016C15.3761 11.2637 15.2696 11.1479 15.1378 11.0678C15.0006 10.9809 14.8399 10.9389 14.6778 10.9478H14.6978ZM10.0978 4.02778C9.94212 4.03096 9.79017 4.07585 9.65778 4.15777C9.526 4.24043 9.41975 4.35805 9.35089 4.49754C9.28203 4.63703 9.25325 4.7929 9.26776 4.94777V15.1278C9.28771 15.3338 9.3839 15.5249 9.53745 15.6636C9.69099 15.8023 9.89084 15.8787 10.0978 15.8778C10.3054 15.8811 10.5065 15.8055 10.6605 15.6663C10.8146 15.5271 10.9101 15.3346 10.9278 15.1278V4.94777C10.9457 4.79363 10.9195 4.63757 10.8522 4.49773C10.7849 4.35789 10.6794 4.24 10.5478 4.15777C10.4042 4.07632 10.2428 4.03166 10.0778 4.02778H10.0978ZM5.43778 7.31778C5.28278 7.31591 5.13036 7.35747 4.99778 7.43777C4.86599 7.52043 4.75975 7.63805 4.69089 7.77754C4.62203 7.91703 4.59324 8.07289 4.60776 8.22777V15.1278C4.63048 15.3492 4.74014 15.5525 4.91263 15.6931C5.08512 15.8337 5.30636 15.9001 5.52777 15.8778C5.71887 15.8577 5.8971 15.772 6.03205 15.6353C6.167 15.4985 6.25029 15.3191 6.26776 15.1278V8.22777C6.28228 8.07289 6.25353 7.91703 6.18467 7.77754C6.1158 7.63805 6.00956 7.52043 5.87778 7.43777C5.73943 7.35378 5.57954 7.31207 5.41779 7.31778H5.43778Z" fill="#808080"/>
</svg>
