<svg height="512" viewBox="0 0 57 38" width="512" xmlns="http://www.w3.org/2000/svg"><g id="025---Live-Recording" transform="translate(0 -1)"><path id="Shape" d="m27.941 18h-24.941c-1.65685425 0-3 1.3431458-3 3v15c0 1.6568542 1.34314575 3 3 3h34c1.6568542 0 3-1.3431458 3-3v-5.941c-.0016561-6.6593157-5.3996843-12.0573439-12.059-12.059zm-18.941 18h-5c-.55228475 0-1-.4477153-1-1v-13c0-.5522847.44771525-1 1-1s1 .4477153 1 1v12h4c.55228475 0 1 .4477153 1 1s-.44771525 1-1 1zm5-1c0 .5522847-.4477153 1-1 1s-1-.4477153-1-1v-13c0-.5522847.4477153-1 1-1s1 .4477153 1 1zm10.975-12.775-3 13c-.1048143.4538972-.5091582.7752987-.975.775h-1c-.4658418.0002987-.8701857-.3211028-.975-.775l-3-13c-.1242641-.5384776.2115224-1.0757359.75-1.2s1.0757359.2115224 1.2.75l2.525 10.944 2.525-10.944c.0803848-.348334.3404973-.627323.6823557-.7318748.3418584-.1045517.7135263-.0187822.975.225s.3730291.6085408.2926443.9568748zm8.025 5.775c.5522847 0 1 .4477153 1 1s-.4477153 1-1 1h-4v4h4c.5522847 0 1 .4477153 1 1s-.4477153 1-1 1h-5c-.5522847 0-1-.4477153-1-1v-13c0-.5522847.4477153-1 1-1h5c.5522847 0 1 .4477153 1 1s-.4477153 1-1 1h-4v5z"/><path id="Shape" d="m28.337 9.94c3.3780934-3.989024 8.6979002-5.76260526 13.7939123-4.59878055 5.0960121 1.1638247 9.1184542 5.07098415 10.4299301 10.13100965 1.311476 5.0600255-.3067068 10.4291427-4.1958424 13.9217709-.5791942.4617158-.8557781 1.2057318-.7188308 1.9336692s.664997 1.3205773 1.3723809 1.5402484c.707384.219671 1.4782494.0303964 2.0034499-.4919176 5.0030014-4.4881465 7.0865489-11.3910607 5.4021687-17.8976992-1.6843803-6.50663857-6.8556791-11.53148318-13.4080112-13.02828852-6.5523321-1.49680535-13.392556.78414424-17.7351575 5.91398772-.4945364.5416244-.6529423 1.31048769-.4127695 2.00348137.2401728.69299363.8403924 1.19893793 1.5640346 1.31837473.7236423.1194368 1.4546102-.1667957 1.9047349-.7458561z"/><path id="Shape" d="m35.494 14.129c2.3969688-1.7184461 5.6874269-1.440015 7.7615598.6567657 2.074133 2.0967807 2.3168149 5.3900683.5724402 7.7682343-.4550265.6330904-.4903941 1.4760178-.09 2.145.3346867.5791293.9367272.9526088 1.6042534.9952083.6675263.0425995 1.3121582-.2513211 1.7177466-.7832083 2.9116097-3.9619339 2.5093232-9.4530339-.9486143-12.9483249-3.4579375-3.49529099-8.9443984-3.9565501-12.9373857-1.0876751-.5513071.4163884-.8470492 1.089036-.7811912 1.7767725.065858.6877366.4838808 1.2920337 1.1041912 1.5962275.6363204.3333027 1.4047647.2875116 1.997-.119z"/><circle id="Oval" cx="39" cy="19" r="2"/></g></svg>