<svg width="14" height="14" viewBox="0 0 14 14" fill="none" xmlns="http://www.w3.org/2000/svg">
<path d="M9.02344 4.10156C8.49573 4.10156 8.06641 3.67224 8.06641 3.14453V0H3.17188C2.34262 0 1.66797 0.674652 1.66797 1.50391V12.4961C1.66797 13.3253 2.34262 14 3.17188 14H10.8281C11.6574 14 12.332 13.3253 12.332 12.4961V4.10156H9.02344ZM3.91016 9.84375H5.89859C6.12511 9.84375 6.30875 10.0274 6.30875 10.2539C6.30875 10.4804 6.12511 10.6641 5.89859 10.6641H3.91016C3.68364 10.6641 3.5 10.4804 3.5 10.2539C3.5 10.0274 3.68364 9.84375 3.91016 9.84375ZM3.5 8.06641C3.5 7.83989 3.68364 7.65625 3.91016 7.65625H9.92578C10.1523 7.65625 10.3359 7.83989 10.3359 8.06641C10.3359 8.29292 10.1523 8.47656 9.92578 8.47656H3.91016C3.68364 8.47656 3.5 8.29292 3.5 8.06641ZM9.92578 5.46875C10.1523 5.46875 10.3359 5.65239 10.3359 5.87891C10.3359 6.10542 10.1523 6.28906 9.92578 6.28906H3.91016C3.68364 6.28906 3.5 6.10542 3.5 5.87891C3.5 5.65239 3.68364 5.46875 3.91016 5.46875H9.92578Z" fill="#99A7C7"/>
<path d="M8.88672 3.14459C8.88672 3.21998 8.94805 3.28131 9.02344 3.28131H12.1492C12.0742 3.14279 11.9777 3.01556 11.8617 2.90583L9.22513 0.411475C9.1228 0.314678 9.00884 0.233932 8.88675 0.170166V3.14459H8.88672Z" fill="#99A7C7"/>
</svg>
