<svg width="21" height="23" viewBox="0 0 21 23" fill="none" xmlns="http://www.w3.org/2000/svg">
<path d="M20.3174 9.54409C20.254 6.24233 19.794 3.80712 19.8003 3.80487C19.609 3.43157 19.2734 3.11936 18.8628 2.95989C16.1675 1.91456 13.5171 0.916845 10.9332 0.065575C10.6691 -0.0215735 10.3905 -0.0215735 10.1269 0.065575C7.5434 0.914598 4.89346 1.91052 2.19859 2.9545C1.83607 3.09511 1.53195 3.3552 1.33385 3.67145C1.34912 3.67325 0.77996 5.44991 0.682928 9.37384C0.625428 13.2982 1.11418 14.4738 1.09801 14.4752C1.3626 15.3377 1.85764 16.215 2.56695 17.1071C3.35982 18.1035 4.43121 19.1327 5.72541 20.1443C7.86773 21.8257 9.8726 22.8306 9.9566 22.8661C10.1385 22.9551 10.3312 23.0004 10.5298 23C10.7288 23 10.9215 22.9546 11.103 22.8652C11.1875 22.8297 13.1946 21.8217 15.336 20.1407C16.6306 19.1282 17.702 18.099 18.4954 17.1031C19.2554 16.1476 19.7693 15.2101 20.0178 14.2892C20.0079 14.2878 20.3672 12.8467 20.3174 9.54454V9.54409ZM11.5962 12.1195V14.2115C11.5962 14.8008 11.1187 15.2784 10.5294 15.2788C9.93998 15.2788 9.46201 14.8013 9.46201 14.2119V12.1491C8.69295 11.7668 8.16377 10.9735 8.16377 10.0566C8.16377 8.76649 9.20955 7.72026 10.4997 7.72026C11.7899 7.72026 12.8356 8.76604 12.8361 10.0562C12.8361 10.9501 12.3339 11.7268 11.5962 12.1195Z" fill="#99A7C7"/>
</svg>
