<svg width="20" height="6" viewBox="0 0 20 6" fill="none" xmlns="http://www.w3.org/2000/svg">
<path d="M19.9556 4.39986C19.9586 4.29441 19.9404 4.18946 19.9021 4.09117C19.8638 3.99288 19.8061 3.90327 19.7326 3.82764C19.659 3.75202 19.571 3.69188 19.4739 3.65085C19.3767 3.60983 19.2722 3.58876 19.1668 3.5888H15.9224C15.601 3.58654 15.2899 3.47544 15.0397 3.27367C14.7895 3.0719 14.615 2.79136 14.5447 2.47773L14.3669 1.6666C14.2456 1.19626 13.9735 0.778674 13.5922 0.477684C13.2109 0.176694 12.7416 0.00888382 12.2559 0H7.66718C7.17023 0.0071482 6.69002 0.180684 6.30331 0.492875C5.9166 0.805065 5.6457 1.23787 5.53392 1.72214L5.36727 2.47773C5.29697 2.79136 5.12249 3.0719 4.8723 3.27367C4.62211 3.47544 4.31094 3.58654 3.98954 3.5888H0.789658C0.684601 3.59025 0.580861 3.61236 0.484358 3.6539C0.387854 3.69545 0.300477 3.75558 0.227223 3.8309C0.153968 3.90622 0.0962661 3.99525 0.0574155 4.09287C0.0185649 4.19049 -0.000670241 4.2948 0.000799009 4.39986V4.82207C-0.00215568 4.92805 0.0159863 5.03355 0.0541689 5.13246C0.0923515 5.23137 0.149812 5.32172 0.223213 5.39822C0.296614 5.47473 0.384487 5.53583 0.48173 5.57807C0.578973 5.62031 0.683646 5.64282 0.789658 5.64425H19.2112C19.3163 5.64281 19.42 5.6207 19.5165 5.57915C19.613 5.53761 19.7004 5.47741 19.7736 5.40209C19.8469 5.32677 19.9046 5.23781 19.9434 5.14019C19.9823 5.04257 20.0015 4.93825 20.0001 4.83319L19.9556 4.39986Z" fill="#99A7C7"/>
</svg>
