<svg width="24" height="24" viewBox="0 0 24 24" fill="none" xmlns="http://www.w3.org/2000/svg">
<path d="M7.07803 19.7343C7.07803 18.1832 5.81669 16.9218 4.26557 16.9218C2.71445 16.9218 1.45311 18.1832 1.45311 19.7343V21.1405C1.45311 21.9157 0.775208 22.5936 0 22.5936V23.9999H2.85934C5.18566 23.9999 7.07803 22.0606 7.07803 19.7343Z" fill="#99A7C7"/>
<path d="M11.7685 5.88755C11.3933 5.98847 11.1703 6.37275 11.2714 6.7486C11.3683 7.11019 11.7394 7.34804 12.1325 7.24571C12.5103 7.14408 12.7296 6.75793 12.6296 6.38466C12.5281 6.00746 12.1397 5.78747 11.7685 5.88755V5.88755Z" fill="#99A7C7"/>
<path d="M7.79077 11.2234C8.16389 11.3224 8.54996 11.1053 8.65182 10.7263C8.75335 10.3475 8.52736 9.96525 8.15536 9.86527H8.15466C7.95521 9.81146 7.9013 9.85196 7.76025 9.89799C7.76822 10.3217 7.7738 10.7614 7.77675 11.2165C7.78191 11.218 7.78552 11.2221 7.79077 11.2234V11.2234Z" fill="#99A7C7"/>
<path d="M15.541 17.2507C15.4393 16.8726 15.0512 16.6541 14.6799 16.7543C14.2982 16.8569 14.0836 17.2464 14.1828 17.6153C14.2831 17.9895 14.6649 18.2106 15.0439 18.1124C15.4191 18.0115 15.6421 17.6272 15.541 17.2514V17.2507Z" fill="#99A7C7"/>
<path d="M17.881 8.52012C18.155 8.24548 18.155 7.79914 17.881 7.52515C17.6069 7.25103 17.1614 7.2499 16.8861 7.52515C16.6121 7.79914 16.6121 8.24614 16.8868 8.52012C17.16 8.7934 17.6063 8.7934 17.881 8.52012Z" fill="#99A7C7"/>
<path d="M13.4472 1.4162C11.1374 1.49945 9.01716 2.41252 7.32715 3.57172C7.51657 4.86114 7.65039 6.46607 7.72164 8.45097C7.98489 8.41956 8.25414 8.4362 8.5178 8.50712C9.64457 8.80838 10.3125 9.96346 10.0099 11.0902C9.75477 12.0433 8.89383 12.6544 7.97603 12.6544C7.90848 12.6544 7.84117 12.6341 7.77363 12.6276C7.76514 13.7522 7.73964 14.8649 7.69113 15.9275C8.41131 16.2267 8.97417 16.6253 9.34171 17.1416C10.086 18.1873 9.88761 19.4137 9.80933 19.7652C9.54857 20.933 10.2371 22.1218 11.4167 22.349C12.0835 22.4768 12.7537 22.5399 13.419 22.5399C19.2018 22.5399 24.0467 17.8426 23.9996 11.9156C23.9503 5.90428 18.7483 1.21647 13.4472 1.4162V1.4162ZM15.8909 6.53094C16.7149 5.70835 18.0524 5.70835 18.875 6.53094C19.6976 7.35354 19.6976 8.69181 18.875 9.51436V9.51506C18.0525 10.3362 16.7142 10.3363 15.8916 9.51506C15.0697 8.69176 15.0697 7.35354 15.8909 6.53094V6.53094ZM9.91302 7.11181C9.61373 6.00023 10.2665 4.83353 11.4044 4.52936C12.5229 4.22932 13.6854 4.89672 13.9875 6.02072C14.2895 7.14519 13.6231 8.30214 12.4961 8.60382C11.372 8.90508 10.2151 8.24153 9.91302 7.11181V7.11181ZM15.4075 19.4706C14.2836 19.7717 13.1258 19.1023 12.8244 17.9793C12.5224 16.8548 13.1887 15.6978 14.3157 15.3962C15.4475 15.0951 16.5982 15.7637 16.8988 16.8882C17.2017 18.0144 16.5321 19.1699 15.4075 19.4706V19.4706ZM20.8765 14.0015C20.5753 15.1283 19.4175 15.7952 18.2934 15.4929C17.1696 15.1921 16.4988 14.0387 16.802 12.9098C17.1064 11.7727 18.2711 11.1199 19.3852 11.4184C20.5092 11.7198 21.178 12.8789 20.8765 14.0015V14.0015Z" fill="#99A7C7"/>
<path d="M19.0216 12.7766C18.6533 12.6773 18.2633 12.8918 18.1606 13.2737C18.059 13.6525 18.285 14.0348 18.657 14.1347C19.042 14.2342 19.419 14.0086 19.5188 13.6376C19.619 13.2634 19.3958 12.8768 19.0216 12.7766V12.7766Z" fill="#99A7C7"/>
<path d="M6.36646 12.7031C6.36843 12.4679 6.37494 12.2363 6.37494 12C6.37494 6.54745 6.00895 0.000183105 4.2656 0.000183105C2.52224 0.000183105 2.15625 6.54745 2.15625 12C2.15625 12.2363 2.16277 12.4679 2.16473 12.7031H6.36646Z" fill="#99A7C7"/>
<path d="M4.26578 15.5156C4.99843 15.5156 5.67768 15.7201 6.27866 16.0499C6.30903 15.4188 6.33224 14.7689 6.34846 14.1094H2.18311C2.19932 14.7689 2.22248 15.4188 2.2529 16.0499C2.85388 15.72 3.53313 15.5156 4.26578 15.5156V15.5156Z" fill="#99A7C7"/>
</svg>
