<svg width="21" height="18" viewBox="0 0 21 18" fill="none" xmlns="http://www.w3.org/2000/svg">
<path d="M2.77005 17.1903C2.65193 17.068 2.57948 16.9089 2.56491 16.7395C2.55034 16.5701 2.59455 16.4009 2.69006 16.2603L17.1201 1.70029C17.1201 1.70029 17.1201 1.70029 17.1201 1.64029C17.1365 1.6438 17.1536 1.6438 17.17 1.64029L18.0901 0.710297C18.1578 0.640936 18.2386 0.585746 18.3279 0.547974C18.4172 0.510201 18.5131 0.490602 18.61 0.490296C18.7056 0.490229 18.8001 0.509711 18.8878 0.547547C18.9755 0.585382 19.0546 0.64077 19.1201 0.710297C19.1935 0.77485 19.2514 0.855129 19.2895 0.94516C19.3275 1.03519 19.3449 1.13265 19.3401 1.23029C19.3421 1.32757 19.3236 1.42421 19.2857 1.51382C19.2478 1.60344 19.1913 1.68403 19.1201 1.75029L17.35 3.54028C18.8726 4.99205 20.069 6.75094 20.86 8.70029C20.8997 8.79183 20.9201 8.89054 20.9201 8.9903C20.9201 9.09005 20.8997 9.18874 20.86 9.28029C18.77 14.1903 15.06 17.1203 10.92 17.1203C9.02053 17.1023 7.17425 16.4904 5.64005 15.3703L3.75006 17.2803C3.68151 17.3478 3.60026 17.4012 3.51102 17.4372C3.42177 17.4732 3.32628 17.4913 3.23004 17.4903C3.13691 17.4744 3.04803 17.4396 2.9689 17.388C2.88978 17.3364 2.8221 17.2691 2.77005 17.1903ZM8.77005 12.1903C9.35792 12.5935 10.0453 12.8275 10.7571 12.8665C11.4689 12.9056 12.1778 12.7484 12.8062 12.4119C13.4347 12.0755 13.9587 11.5728 14.3209 10.9588C14.6831 10.3448 14.8696 9.64309 14.86 8.93028C14.8588 8.14377 14.6258 7.37507 14.1901 6.72029L13.1201 7.80029C13.3063 8.14767 13.4025 8.53614 13.4001 8.93028C13.4027 9.57834 13.1485 10.2011 12.6931 10.6621C12.2377 11.1232 11.6181 11.385 10.9701 11.3903C10.5759 11.3928 10.1874 11.2965 9.84006 11.1103L8.77005 12.1903ZM1.03006 9.19029C0.990431 9.09875 0.969971 9.00004 0.969971 8.90028C0.969971 8.80053 0.990431 8.70184 1.03006 8.61029C3.12006 3.70029 6.83005 0.780289 10.9601 0.780289C12.3536 0.793295 13.7243 1.13597 14.9601 1.78029L11.7701 5.00029C11.5251 4.96169 11.2779 4.9383 11.0301 4.93028C9.99123 4.93821 8.99779 5.35714 8.26697 6.09546C7.53614 6.83378 7.12736 7.83143 7.13004 8.87029C7.12854 9.12198 7.15199 9.37321 7.20004 9.62029L3.59006 13.2603C2.55072 12.0433 1.7042 10.674 1.08005 9.20029L1.03006 9.19029Z" fill="#200E32"/>
</svg>
