<svg width="20" height="20" viewBox="0 0 20 20" fill="none" xmlns="http://www.w3.org/2000/svg">
<path d="M6.64001 18.7549V15.6987C6.64001 15.3226 6.78961 14.9618 7.05591 14.6958C7.32221 14.4299 7.68339 14.2804 8.06 14.2804H10.93C11.3058 14.2826 11.6654 14.4335 11.93 14.6999C12.0639 14.8295 12.1702 14.9847 12.2424 15.1564C12.3146 15.328 12.3512 15.5125 12.35 15.6987V18.7549C12.3466 18.9144 12.3758 19.0728 12.436 19.2206C12.4962 19.3683 12.5861 19.5021 12.7 19.6139C12.9314 19.8433 13.244 19.9725 13.57 19.9734H15.57C16.0221 19.9774 16.4705 19.892 16.8895 19.7223C17.3085 19.5525 17.6897 19.3017 18.0113 18.9842C18.3328 18.6668 18.5883 18.289 18.7632 17.8725C18.938 17.4561 19.0287 17.0092 19.03 16.5576V7.85836C19.029 7.4954 18.9478 7.13714 18.7922 6.80912C18.6367 6.4811 18.4106 6.1914 18.13 5.9607L11.46 0.677204C10.8986 0.227148 10.1971 -0.0122861 9.47733 0.000485758C8.75757 0.0132576 8.06503 0.277429 7.51999 0.747117L1 5.9607C0.700004 6.18042 0.454057 6.46549 0.280792 6.79429C0.107527 7.12309 0.0114945 7.48697 0 7.85836V16.5477C0.00131131 16.9989 0.0915973 17.4454 0.265686 17.8617C0.439775 18.2781 0.694255 18.6561 1.01462 18.9742C1.33498 19.2923 1.71495 19.5443 2.13281 19.7157C2.55068 19.8872 2.99826 19.9748 3.45001 19.9734H5.37C5.6945 19.9761 6.00693 19.8506 6.2392 19.6242C6.47146 19.3979 6.60472 19.089 6.60999 18.7649L6.64001 18.7549Z" fill="#808080"/>
</svg>
