<svg width="14" height="18" viewBox="0 0 14 18" fill="none" xmlns="http://www.w3.org/2000/svg">
<path d="M0 14.4988C0 12.1188 3.22875 11.5238 7 11.5238C10.7712 11.5238 14 12.1363 14 14.5163C14 16.8963 10.7712 17.4912 7 17.4912C3.22875 17.4912 0 16.8788 0 14.4988ZM2.40625 4.62875C2.40625 3.71327 2.67773 2.81835 3.18635 2.05716C3.69496 1.29596 4.41788 0.70269 5.26367 0.352351C6.10947 0.00201156 7.04013 -0.0896612 7.93802 0.0889401C8.83591 0.267541 9.66066 0.708396 10.308 1.35574C10.9553 2.00308 11.3962 2.82784 11.5748 3.72573C11.7534 4.62362 11.6617 5.55431 11.3114 6.4001C10.9611 7.24589 10.3678 7.96881 9.60658 8.47742C8.84538 8.98604 7.95046 9.25751 7.03498 9.25751C6.42869 9.25981 5.8279 9.14252 5.26698 8.91236C4.70607 8.6822 4.19606 8.34369 3.76612 7.9162C3.33619 7.4887 2.9948 6.9806 2.76145 6.42101C2.52811 5.86141 2.4074 5.2613 2.40625 4.655V4.62875Z" fill="url(#paint0_linear_216_637)"/>
<defs>
<linearGradient id="paint0_linear_216_637" x1="7" y1="0" x2="7" y2="17.4912" gradientUnits="userSpaceOnUse">
<stop stop-color="#FDBA31"/>
<stop offset="1" stop-color="#FF9200"/>
</linearGradient>
</defs>
</svg>
