<svg width="18" height="17" viewBox="0 0 18 17" fill="none" xmlns="http://www.w3.org/2000/svg">
<path d="M12.8515 16.0061H4.8508C3.54702 16.0706 2.27005 15.6205 1.29494 14.7526C0.85553 14.2892 0.514731 13.7414 0.29317 13.1424C0.0716095 12.5434 -0.0261028 11.9057 0.00594872 11.2679V4.75177C-0.0261028 4.11393 0.0716095 3.47623 0.29317 2.87725C0.514731 2.27827 0.85553 1.73048 1.29494 1.26703C2.2716 0.400924 3.54664 -0.0517129 4.8508 0.00470611H12.8515C14.1556 -0.0517129 15.4307 0.400924 16.4073 1.26703C16.8522 1.74126 17.1959 2.30108 17.4175 2.91239C17.6391 3.52371 17.734 4.17374 17.6963 4.82289H13.9449C13.1134 4.81545 12.3122 5.13465 11.7136 5.71185C11.4185 5.99265 11.1836 6.33053 11.0231 6.70494C10.8627 7.07935 10.78 7.48247 10.7802 7.88981C10.7837 8.30109 10.8684 8.70763 11.0296 9.08603C11.1907 9.46444 11.4251 9.80725 11.7192 10.0947C12.0133 10.3823 12.3614 10.6088 12.7433 10.7613C13.1253 10.9138 13.5337 10.9893 13.9449 10.9834H17.7052V11.259C17.738 11.8982 17.6406 12.5375 17.4191 13.138C17.1975 13.7385 16.8563 14.2878 16.4162 14.7526C15.4369 15.6193 14.1577 16.0691 12.8515 16.0061V16.0061ZM4.1663 3.47167C3.99011 3.46921 3.81993 3.53569 3.69206 3.65692C3.56418 3.77815 3.48874 3.94454 3.4818 4.12061C3.48414 4.3006 3.55728 4.47243 3.6854 4.59888C3.81351 4.72534 3.98629 4.79624 4.1663 4.79622H9.18006C9.35617 4.79392 9.52441 4.72294 9.64895 4.5984C9.77349 4.47386 9.84448 4.30561 9.84678 4.1295C9.84444 3.95422 9.77317 3.78691 9.64838 3.66379C9.5236 3.54067 9.35535 3.47165 9.18006 3.47167H4.1663V3.47167ZM17.0652 9.69441H14.016C13.5885 9.70118 13.1716 9.56096 12.835 9.29721C12.4984 9.03346 12.2626 8.66216 12.167 8.2454C12.1187 7.98785 12.1279 7.7228 12.194 7.46923C12.26 7.21566 12.3814 6.97982 12.5492 6.77861C12.7214 6.57333 12.9362 6.40811 13.1788 6.29448C13.4214 6.18086 13.6859 6.12158 13.9538 6.12078H17.0474C17.2203 6.11837 17.3873 6.1842 17.5121 6.30399C17.6369 6.42379 17.7094 6.58791 17.7141 6.76083V8.98324C17.7094 9.15616 17.6369 9.32028 17.5121 9.44008C17.3873 9.55987 17.2203 9.6257 17.0474 9.62329L17.0652 9.69441ZM14.0871 7.20531C14.0002 7.20373 13.9137 7.21941 13.8329 7.25146C13.752 7.2835 13.6783 7.33127 13.616 7.39199C13.5176 7.48391 13.4497 7.60382 13.4216 7.73553C13.3935 7.86723 13.4065 8.00439 13.4589 8.12847C13.5112 8.25254 13.6004 8.35757 13.7143 8.42935C13.8283 8.50114 13.9615 8.53622 14.096 8.52987H14.3894C14.5647 8.52753 14.732 8.45625 14.8551 8.33147C14.9782 8.20669 15.0472 8.03844 15.0472 7.86314C15.0472 7.68868 14.9779 7.52136 14.8545 7.39799C14.7312 7.27462 14.5639 7.20531 14.3894 7.20531H14.0871Z" fill="#C8D1E5"/>
</svg>
