<svg width="14" height="14" viewBox="0 0 14 14" fill="none" xmlns="http://www.w3.org/2000/svg">
<path d="M9.85602 14C9.62193 14 9.39016 13.9538 9.17398 13.864C8.95781 13.7742 8.7615 13.6426 8.5963 13.4768C8.43111 13.3109 8.30028 13.1141 8.21134 12.8976C8.1224 12.681 8.07709 12.4491 8.07801 12.215V12.215V9.835C8.07427 9.36278 8.25782 8.90833 8.58844 8.57115C8.91906 8.23397 9.36982 8.04154 9.84201 8.036H12.222C12.4564 8.03691 12.6884 8.08399 12.9046 8.17455C13.1208 8.2651 13.317 8.39735 13.4821 8.56376C13.6473 8.73016 13.778 8.92746 13.8668 9.14437C13.9557 9.36129 14.0009 9.59359 14 9.828V9.828V12.208C14.0009 12.4424 13.9557 12.6747 13.8668 12.8916C13.778 13.1085 13.6473 13.3058 13.4821 13.4722C13.317 13.6386 13.1208 13.7709 12.9046 13.8614C12.6884 13.952 12.4564 13.9991 12.222 14H9.85602ZM1.77801 14C1.5436 13.9991 1.31167 13.952 1.09545 13.8614C0.879236 13.7709 0.682982 13.6386 0.517879 13.4722C0.352776 13.3058 0.222063 13.1085 0.133208 12.8916C0.0443532 12.6747 -0.000907153 12.4424 1.3905e-05 12.208V9.828C-0.00185236 9.35394 0.184209 8.89845 0.517452 8.56127C0.850694 8.22409 1.30396 8.0327 1.77801 8.029H4.14401C4.61564 8.03268 5.0668 8.22215 5.39965 8.5563C5.73249 8.89046 5.92019 9.34236 5.92202 9.814V12.208C5.92386 12.4421 5.87947 12.6742 5.79138 12.8911C5.70329 13.108 5.57324 13.3053 5.40869 13.4718C5.24415 13.6383 5.04834 13.7707 4.83252 13.8613C4.61669 13.952 4.38509 13.9991 4.15101 14H1.77801ZM9.85602 5.971C9.38446 5.971 8.93222 5.78367 8.59878 5.45023C8.26534 5.11679 8.07801 4.66455 8.07801 4.193V1.799C8.07614 1.32494 8.2622 0.869447 8.59545 0.532269C8.92869 0.19509 9.38196 0.00369998 9.85602 0H12.222C12.6961 0.00369998 13.1493 0.19509 13.4826 0.532269C13.8158 0.869447 14.0019 1.32494 14 1.799V4.179C14.0019 4.41367 13.9572 4.64638 13.8687 4.86371C13.7802 5.08105 13.6495 5.27871 13.4842 5.44529C13.3189 5.61188 13.1223 5.7441 12.9057 5.83433C12.689 5.92456 12.4567 5.97101 12.222 5.971H9.85602V5.971ZM1.77801 5.971C1.54393 5.971 1.31216 5.92478 1.09599 5.83499C0.879811 5.7452 0.68349 5.61361 0.518295 5.44776C0.353101 5.28192 0.222287 5.08509 0.133347 4.86856C0.0444066 4.65203 -0.000907672 4.42008 1.3905e-05 4.186V4.186V1.806C-0.00185236 1.33194 0.184209 0.876448 0.517452 0.53927C0.850694 0.202092 1.30396 0.0107015 1.77801 0.0070015H4.14401C4.37842 0.00791895 4.61036 0.0549934 4.82657 0.145547C5.04279 0.2361 5.23905 0.368354 5.40415 0.534757C5.56926 0.70116 5.69997 0.898455 5.78882 1.11537C5.87768 1.33229 5.92294 1.56459 5.92202 1.799V1.799V4.179C5.92386 4.41249 5.87969 4.64406 5.79204 4.86048C5.70439 5.07691 5.57496 5.27394 5.41116 5.44035C5.24736 5.60675 5.05239 5.73926 4.83737 5.83031C4.62235 5.92136 4.39151 5.96917 4.15802 5.971H1.77801V5.971Z" fill="#FE9700"/>
</svg>
