<svg width="16" height="14" viewBox="0 0 16 14" fill="none" xmlns="http://www.w3.org/2000/svg">
<path d="M11.0804 13.6639L10.7497 13.3564C9.76655 12.3058 8.95904 11.1037 8.3583 9.79621C8.23821 9.53481 8.15543 9.25786 8.11229 8.97345V8.92732C8.11226 8.72401 8.16822 8.52462 8.27401 8.35101C8.37981 8.1774 8.53133 8.03627 8.71203 7.94308C8.96072 7.84646 9.21825 7.77435 9.48096 7.72778C10.2174 7.62785 10.9601 7.5816 11.7032 7.58938C12.475 7.57796 13.2465 7.62939 14.01 7.74316C14.2355 7.7893 14.4508 7.84312 14.6559 7.90464C14.8866 8.00862 15.0779 8.18378 15.2018 8.40444C15.2875 8.58192 15.3322 8.77638 15.3325 8.97345C15.2994 9.23733 15.2322 9.4958 15.1326 9.74239C14.5257 11.0787 13.705 12.3072 12.7028 13.3794C12.5798 13.5102 12.4337 13.6409 12.3952 13.6793C12.1979 13.828 11.9579 13.9089 11.7109 13.91C11.4798 13.8974 11.2589 13.8111 11.0804 13.6639V13.6639ZM2.66822 11.8954L2.86815 8.37369C2.85506 8.27365 2.86306 8.17198 2.89162 8.07522C2.92018 7.97846 2.96869 7.88875 3.03401 7.81187C3.09934 7.73498 3.18 7.67262 3.27088 7.6288C3.36175 7.58499 3.46078 7.56067 3.56162 7.55744C3.66246 7.5542 3.76286 7.57212 3.85635 7.61002C3.94985 7.64792 4.03441 7.70498 4.10453 7.77752C4.17465 7.85006 4.22878 7.93647 4.26349 8.0312C4.2982 8.12594 4.31271 8.22688 4.30606 8.32755V8.37369L4.50599 11.8877C4.50952 12.0079 4.48934 12.1276 4.44662 12.2399C4.4039 12.3523 4.33948 12.4551 4.25701 12.5426C4.17454 12.6301 4.07565 12.7005 3.96599 12.7497C3.85632 12.799 3.73801 12.8261 3.61785 12.8297C3.49768 12.8332 3.37799 12.813 3.26562 12.7703C3.15325 12.7276 3.05042 12.6631 2.96296 12.5807C2.87549 12.4982 2.8051 12.3993 2.75585 12.2897C2.7066 12.18 2.67945 12.0617 2.67592 11.9415V11.8877L2.66822 11.8954ZM1.31489 6.16684C1.09854 6.12847 0.885235 6.0745 0.676665 6.00537C0.444398 5.90376 0.252423 5.72798 0.130752 5.50556C0.0459606 5.33051 0.00126858 5.13874 0 4.94424C0.0321528 4.68018 0.0993941 4.42159 0.19993 4.17531C0.808477 2.83756 1.629 1.60682 2.62979 0.530566L2.93733 0.238367C3.13225 0.0843988 3.3733 0.000445642 3.62169 0C3.85453 0.000550221 4.08102 0.07604 4.26762 0.2153L4.59825 0.522875C5.57485 1.5758 6.38163 2.7743 6.98963 4.07535C7.11213 4.33853 7.19505 4.61836 7.23569 4.90579C7.23458 5.10988 7.17825 5.30985 7.07265 5.48449C6.96705 5.65914 6.81611 5.80193 6.6359 5.89772C6.38643 5.99198 6.12912 6.06403 5.86697 6.11302C5.13038 6.2104 4.38771 6.2541 3.64478 6.24374C2.87308 6.2616 2.10127 6.21272 1.33798 6.09764L1.31489 6.16684ZM11.0419 5.54401L10.842 2.02229C10.8385 1.90213 10.8586 1.78245 10.9013 1.67008C10.944 1.55771 11.0085 1.45485 11.091 1.36739C11.1734 1.27992 11.2723 1.20955 11.382 1.16031C11.4917 1.11106 11.6099 1.08388 11.7301 1.08035C11.8502 1.07682 11.9699 1.09698 12.0823 1.1397C12.1947 1.18242 12.2976 1.24686 12.385 1.32932C12.4725 1.41179 12.5428 1.51069 12.5921 1.62035C12.6413 1.73001 12.6685 1.8483 12.6721 1.96847V2.02229L12.4721 5.54401C12.4752 5.63792 12.4596 5.7315 12.4265 5.81942C12.3934 5.90734 12.3433 5.98788 12.279 6.05642C12.2147 6.12497 12.1376 6.18019 12.052 6.21893C11.9664 6.25766 11.874 6.27916 11.7801 6.28219C11.6862 6.28521 11.5926 6.26972 11.5047 6.23658C11.4167 6.20344 11.3362 6.15331 11.2677 6.08905C11.1991 6.02479 11.1439 5.94765 11.1052 5.86205C11.0664 5.77645 11.0449 5.68405 11.0419 5.59014V5.54401Z" fill="#C8D1E5"/>
</svg>
