<svg width="23" height="23" viewBox="0 0 23 23" fill="none" xmlns="http://www.w3.org/2000/svg">
<path d="M10.9792 11.7542C14.1433 11.7542 16.7083 9.18913 16.7083 6.025C16.7083 2.86087 14.1433 0.295834 10.9792 0.295834C7.81504 0.295834 5.25 2.86087 5.25 6.025C5.25 9.18913 7.81504 11.7542 10.9792 11.7542Z" fill="#99A7C7"/>
<path fill-rule="evenodd" clip-rule="evenodd" d="M19.9919 13.3625L13.3627 19.9917C13.0575 20.2958 13.0575 20.7917 13.3627 21.0958C13.6669 21.401 14.1627 21.401 14.4669 21.0958L21.096 14.4667C21.4012 14.1625 21.4012 13.6667 21.096 13.3625C20.7919 13.0573 20.296 13.0573 19.9919 13.3625V13.3625Z" fill="#99A7C7"/>
<path fill-rule="evenodd" clip-rule="evenodd" d="M17.2295 11.7604C14.2107 11.7604 11.7607 14.2104 11.7607 17.2292C11.7607 20.2479 14.2107 22.6979 17.2295 22.6979C20.2482 22.6979 22.6982 20.2479 22.6982 17.2292C22.6982 14.2104 20.2482 11.7604 17.2295 11.7604ZM17.2295 13.3229C19.3857 13.3229 21.1357 15.0729 21.1357 17.2292C21.1357 19.3854 19.3857 21.1354 17.2295 21.1354C15.0732 21.1354 13.3232 19.3854 13.3232 17.2292C13.3232 15.0729 15.0732 13.3229 17.2295 13.3229Z" fill="#99A7C7"/>
<path fill-rule="evenodd" clip-rule="evenodd" d="M12.4637 21.6625C11.3814 20.5 10.7189 18.9417 10.7189 17.2292C10.7189 15.476 11.4137 13.8833 12.5429 12.7125C12.0325 12.6729 11.5106 12.6521 10.9793 12.6521C7.51891 12.6521 4.45537 13.5177 2.55329 14.8146C1.10225 15.8042 0.302246 17.0615 0.302246 18.3813V19.8917C0.302246 20.3615 0.488704 20.8125 0.820996 21.1438C1.15329 21.476 1.60329 21.6625 2.07308 21.6625H12.4637Z" fill="#99A7C7"/>
</svg>
