<svg width="19" height="18" viewBox="0 0 19 18" fill="none" xmlns="http://www.w3.org/2000/svg">
<path d="M4.4178 4.00794C5.0787 3.36005 5.9673 2.99715 6.8928 2.99715C7.8183 2.99715 8.7069 3.36005 9.3678 4.00794C9.51158 4.13613 9.69917 4.20408 9.89169 4.19771C10.0842 4.19134 10.2669 4.11114 10.4019 3.97374C10.5369 3.83633 10.6139 3.65225 10.6168 3.45964C10.6198 3.26704 10.5485 3.08068 10.4178 2.93919C9.47586 2.01771 8.21052 1.50171 6.8928 1.50171C5.57508 1.50171 4.30975 2.01771 3.3678 2.93919C3.23709 3.08068 3.16583 3.26704 3.16879 3.45964C3.17175 3.65225 3.2487 3.83633 3.3837 3.97374C3.5187 4.11114 3.70139 4.19134 3.89391 4.19771C4.08643 4.20408 4.27402 4.13613 4.4178 4.00794V4.00794Z" fill="#99A7C7"/>
<path d="M5.16777 4.71523C5.09197 4.78281 5.03069 4.86508 4.98763 4.95705C4.94457 5.04901 4.92064 5.14877 4.91728 5.25026C4.91392 5.35176 4.93121 5.45287 4.9681 5.54749C5.00498 5.6421 5.0607 5.72823 5.13187 5.80067C5.20304 5.87311 5.28817 5.93034 5.38212 5.9689C5.47606 6.00745 5.57686 6.02653 5.67839 6.02497C5.77993 6.02341 5.88009 6.00124 5.97281 5.95982C6.06552 5.9184 6.14886 5.85858 6.21777 5.78398C6.39777 5.60682 6.64021 5.50752 6.89277 5.50752C7.14533 5.50752 7.38777 5.60682 7.56777 5.78398C7.63668 5.85858 7.72002 5.9184 7.81273 5.95982C7.90545 6.00124 8.00561 6.02341 8.10715 6.02497C8.20868 6.02653 8.30948 6.00745 8.40342 5.9689C8.49737 5.93034 8.58251 5.87311 8.65367 5.80067C8.72484 5.72823 8.78056 5.6421 8.81744 5.54749C8.85433 5.45287 8.87162 5.35176 8.86826 5.25026C8.8649 5.14877 8.84097 5.04901 8.79791 4.95705C8.75486 4.86508 8.69357 4.78281 8.61777 4.71523C8.15673 4.26447 7.53756 4.01208 6.89277 4.01208C6.24799 4.01208 5.62881 4.26447 5.16777 4.71523V4.71523Z" fill="#99A7C7"/>
<path d="M16.3129 7.62756C16.211 7.56039 16.0945 7.51853 15.9732 7.50549C15.8519 7.49244 15.7292 7.50858 15.6154 7.55256L12.8239 8.37006C12.8691 8.57703 12.8922 8.78821 12.8929 9.00006V14.2501C12.8922 14.4619 12.8691 14.6731 12.8239 14.8801L15.6154 15.6976C15.7033 15.7337 15.7978 15.7515 15.8929 15.7501C16.0423 15.7494 16.1883 15.7051 16.3129 15.6226C16.4146 15.5538 16.498 15.461 16.5555 15.3525C16.613 15.2439 16.643 15.1229 16.6429 15.0001V8.25006C16.643 8.12721 16.613 8.00619 16.5555 7.89765C16.498 7.7891 16.4146 7.69636 16.3129 7.62756Z" fill="#99A7C7"/>
<path d="M9.89282 6.75H3.89282C2.65018 6.75 1.64282 7.75736 1.64282 9V14.25C1.64282 15.4926 2.65018 16.5 3.89282 16.5H9.89282C11.1355 16.5 12.1428 15.4926 12.1428 14.25V9C12.1428 7.75736 11.1355 6.75 9.89282 6.75Z" fill="#99A7C7"/>
</svg>
