<svg width="17" height="16" viewBox="0 0 17 16" fill="none" xmlns="http://www.w3.org/2000/svg">
<path d="M14.1981 7.61719H2.65883C1.98031 7.61719 1.42834 8.16916 1.42834 8.84768V13.7696C1.42834 14.4481 1.98031 15.0001 2.65883 15.0001H14.1981C14.8766 15.0001 15.4286 14.4481 15.4286 13.7696V8.84768C15.4286 8.16916 14.8766 7.61719 14.1981 7.61719ZM5.14715 13.3595H3.5065C3.27979 13.3595 3.09634 13.176 3.09634 12.9493V9.668C3.09634 9.44129 3.27979 9.25784 3.5065 9.25784C3.73321 9.25784 3.91666 9.44129 3.91666 9.668V12.5391H5.14715C5.37386 12.5391 5.55732 12.7226 5.55732 12.9493C5.55732 13.176 5.37386 13.3595 5.14715 13.3595ZM7.19797 12.9493C7.19797 13.176 7.01451 13.3595 6.7878 13.3595C6.56109 13.3595 6.37764 13.176 6.37764 12.9493V9.668C6.37764 9.44129 6.56109 9.25784 6.7878 9.25784C7.01451 9.25784 7.19797 9.44129 7.19797 9.668V12.9493ZM10.4669 9.76734L9.64653 13.0486C9.60086 13.2313 9.43704 13.3595 9.24878 13.3595C9.06052 13.3595 8.8967 13.2313 8.85103 13.0486L8.03071 9.76734C7.97544 9.54785 8.10921 9.32513 8.32911 9.27025C8.54822 9.21338 8.77132 9.34876 8.8262 9.56866L9.24878 11.2582L9.67136 9.56869C9.72583 9.34879 9.94854 9.21299 10.1684 9.27028C10.3883 9.32513 10.5221 9.54785 10.4669 9.76734V9.76734ZM13.3504 10.8985C13.5771 10.8985 13.7606 11.0819 13.7606 11.3087C13.7606 11.5354 13.5771 11.7188 13.3504 11.7188H12.1199V12.5391H13.3504C13.5771 12.5391 13.7606 12.7226 13.7606 12.9493C13.7606 13.176 13.5771 13.3595 13.3504 13.3595H11.7098C11.483 13.3595 11.2996 13.176 11.2996 12.9493V9.668C11.2996 9.44129 11.483 9.25784 11.7098 9.25784H13.3504C13.5771 9.25784 13.7606 9.44129 13.7606 9.668C13.7606 9.89471 13.5771 10.0782 13.3504 10.0782H12.1199V10.8985H13.3504Z" fill="#99A7C7"/>
<path d="M4.81866 6.57835C3.62181 4.98415 3.62181 2.7579 4.81866 1.16371C4.95445 0.983072 5.21201 0.945802 5.39305 1.082C5.5741 1.2182 5.61055 1.47535 5.47476 1.6564C4.49543 2.96019 4.49543 4.78189 5.47476 6.08566C5.61055 6.26671 5.5741 6.52385 5.39305 6.66005C5.21277 6.7953 4.95511 6.76024 4.81866 6.57835Z" fill="#99A7C7"/>
<path d="M11.4638 6.66012C11.2828 6.52395 11.2463 6.26677 11.3821 6.08573C12.3615 4.78193 12.3615 2.96023 11.3821 1.65646C11.2463 1.47542 11.2828 1.21827 11.4638 1.08207C11.6449 0.94628 11.9028 0.98314 12.0382 1.16378C13.2351 2.75797 13.2351 4.98422 12.0382 6.57842C11.902 6.76004 11.6445 6.79558 11.4638 6.66012Z" fill="#99A7C7"/>
<path d="M6.2883 5.78534C5.31096 4.69425 5.31096 3.04799 6.2883 1.95688C6.4397 1.78825 6.70008 1.77463 6.8675 1.92483C7.03614 2.07582 7.05055 2.3354 6.89955 2.50403C6.20178 3.28351 6.20178 4.45871 6.89955 5.23818C7.05055 5.40681 7.03614 5.66636 6.8675 5.81738C6.69945 5.96819 6.43946 5.95446 6.2883 5.78534Z" fill="#99A7C7"/>
<path d="M9.98942 5.81732C9.82079 5.66633 9.80638 5.40675 9.95737 5.23812C10.6551 4.45865 10.6551 3.28345 9.95737 2.50397C9.80638 2.33534 9.82079 2.07579 9.98942 1.92477C10.1576 1.77416 10.4176 1.78778 10.5686 1.95682C11.546 3.0479 11.546 4.69416 10.5686 5.78528C10.4175 5.95435 10.1575 5.96815 9.98942 5.81732Z" fill="#99A7C7"/>
<path d="M8.42849 5.10148C7.74997 5.10148 7.198 4.54951 7.198 3.87099C7.198 3.19247 7.74997 2.6405 8.42849 2.6405C9.107 2.6405 9.65897 3.19247 9.65897 3.87099C9.65897 4.54951 9.10703 5.10148 8.42849 5.10148Z" fill="#99A7C7"/>
</svg>
