<svg width="19" height="18" viewBox="0 0 19 18" fill="none" xmlns="http://www.w3.org/2000/svg">
<path fill-rule="evenodd" clip-rule="evenodd" d="M9.71423 0.9375C6.92198 0.9375 4.65173 3.228 4.65173 6.05325C4.65173 7.01025 5.07323 8.1975 5.68673 9.38175C7.03748 11.9895 9.28748 14.616 9.28748 14.616C9.39398 14.7405 9.54998 14.8125 9.71423 14.8125C9.87848 14.8125 10.0345 14.7405 10.141 14.616C10.141 14.616 12.391 11.9895 13.7417 9.38175C14.3552 8.1975 14.7767 7.01025 14.7767 6.05325C14.7767 3.228 12.5065 0.9375 9.71423 0.9375V0.9375ZM9.71423 3.9375C8.57573 3.9375 7.65173 4.8615 7.65173 6C7.65173 7.1385 8.57573 8.0625 9.71423 8.0625C10.8527 8.0625 11.7767 7.1385 11.7767 6C11.7767 4.8615 10.8527 3.9375 9.71423 3.9375Z" fill="#99A7C7"/>
<path fill-rule="evenodd" clip-rule="evenodd" d="M13.3022 13.0328C13.912 13.2158 14.4145 13.4423 14.7617 13.7078C14.9867 13.8788 15.1517 14.046 15.1517 14.25C15.1517 14.37 15.0835 14.4788 14.9875 14.5875C14.8285 14.7668 14.5922 14.928 14.2997 15.078C13.2662 15.6068 11.5952 15.9375 9.71423 15.9375C7.83323 15.9375 6.16223 15.6068 5.12873 15.078C4.83623 14.928 4.59998 14.7668 4.44098 14.5875C4.34498 14.4788 4.27673 14.37 4.27673 14.25C4.27673 14.046 4.44173 13.8788 4.66673 13.7078C5.01398 13.4423 5.51648 13.2158 6.12623 13.0328C6.42323 12.9435 6.59198 12.6293 6.50273 12.3323C6.41348 12.0345 6.09923 11.8658 5.80223 11.955C4.87373 12.2348 4.15223 12.618 3.71873 13.0418C3.33773 13.413 3.15173 13.8285 3.15173 14.25C3.15173 14.7765 3.44948 15.3015 4.05473 15.7395C5.11673 16.5075 7.24973 17.0625 9.71423 17.0625C12.1787 17.0625 14.3117 16.5075 15.3737 15.7395C15.979 15.3015 16.2767 14.7765 16.2767 14.25C16.2767 13.8285 16.0907 13.413 15.7097 13.0418C15.2762 12.618 14.5547 12.2348 13.6262 11.955C13.3292 11.8658 13.015 12.0345 12.9257 12.3323C12.8365 12.6293 13.0052 12.9435 13.3022 13.0328V13.0328Z" fill="#99A7C7"/>
</svg>
