<svg width="19" height="23" viewBox="0 0 19 23" fill="none" xmlns="http://www.w3.org/2000/svg">
<path d="M8.92997 22.33C8.23255 22.2285 7.57355 21.9472 7.01786 21.5137C6.79687 21.3691 6.61159 21.1763 6.47601 20.9496C6.34042 20.723 6.25808 20.4685 6.23516 20.2055C6.23516 19.6464 6.7495 19.378 7.23032 19.2662C8.71921 19.1566 10.2141 19.1566 11.703 19.2662C12.1838 19.378 12.6982 19.6352 12.6982 20.2055C12.6774 20.4678 12.5971 20.7219 12.4634 20.9486C12.3297 21.1753 12.1462 21.3685 11.9267 21.5137C11.3681 21.9494 10.7049 22.2309 10.0034 22.33C9.81722 22.3415 9.63051 22.3415 9.44432 22.33C9.273 22.3394 9.10129 22.3394 8.92997 22.33V22.33ZM4.21126 17.6113C2.97413 17.4992 1.82071 16.9384 0.968521 16.0347C0.339132 15.2916 -0.00214968 14.3471 0.00690499 13.3734C-0.0495093 12.4411 0.241286 11.521 0.823186 10.7904C1.23119 10.3706 1.54729 9.87047 1.75136 9.3218C1.95543 8.77313 2.04298 8.18797 2.00845 7.6036V7.12278C1.93597 5.55817 2.45037 4.02289 3.45088 2.8178C4.18813 1.93862 5.10844 1.23098 6.14749 0.744288C7.18655 0.257595 8.31929 0.00358514 9.46667 0H9.5673C10.7403 0.00140366 11.8979 0.26641 12.9547 0.775435C14.0115 1.28446 14.9403 2.02449 15.6726 2.9408C16.6184 4.12264 17.096 5.61129 17.0144 7.12278V7.6036C16.9874 8.18534 17.0763 8.76666 17.2759 9.31374C17.4756 9.86083 17.7819 10.3628 18.1773 10.7904C18.7573 11.522 19.0478 12.4414 18.9936 13.3734C19.0026 14.3471 18.6613 15.2916 18.0319 16.0347C17.1797 16.9384 16.0263 17.4992 14.7892 17.6113C13.0337 17.7678 11.267 17.8908 9.48906 17.8908C7.72593 17.8972 5.96385 17.8039 4.21126 17.6113V17.6113Z" fill="#99A7C7"/>
</svg>
