<svg width="18" height="22" viewBox="0 0 18 22" fill="none" xmlns="http://www.w3.org/2000/svg">
<path d="M4.9564 21.2263C4.30274 21.2235 3.65602 21.092 3.05317 20.8393C2.45033 20.5866 1.90317 20.2176 1.44293 19.7534C0.982693 19.2892 0.618369 18.7389 0.3708 18.134C0.123231 17.529 -0.00274797 16.8812 4.54571e-05 16.2275V4.78654C-0.00278925 3.52354 0.49477 2.31085 1.38386 1.4138C2.27294 0.516761 3.48116 0.00841679 4.74413 0H10.3479C10.4765 0.0027089 10.5991 0.0550087 10.6901 0.145984C10.7811 0.23696 10.8334 0.359574 10.8361 0.488204V3.90564C10.8333 4.36837 10.9217 4.82711 11.0962 5.25568C11.2707 5.68425 11.5279 6.07425 11.8531 6.40342C12.1783 6.73258 12.5652 6.99447 12.9916 7.17412C13.418 7.35376 13.8757 7.44765 14.3384 7.45043H17.5224C17.6472 7.4504 17.7671 7.49926 17.8564 7.58655C17.9456 7.67383 17.9972 7.7926 18 7.91741V16.4079C18.0027 17.0309 17.8828 17.6484 17.647 18.225C17.4111 18.8017 17.064 19.3262 16.6255 19.7687C16.1869 20.2112 15.6655 20.563 15.091 20.804C14.5165 21.045 13.9001 21.1705 13.2771 21.1732L4.9564 21.2263ZM4.9564 14.487C4.96178 14.6964 5.04734 14.8957 5.19547 15.0439C5.34359 15.192 5.54298 15.2776 5.75239 15.2829H11.4622C11.6717 15.2776 11.871 15.192 12.0192 15.0439C12.1673 14.8957 12.2529 14.6964 12.2582 14.487C12.2555 14.2767 12.1707 14.0758 12.0221 13.9272C11.8734 13.7785 11.6725 13.6937 11.4622 13.691H5.75239C5.54394 13.6936 5.34461 13.7769 5.19621 13.9233C5.04781 14.0698 4.96187 14.2679 4.9564 14.4763V14.487ZM4.9564 9.18038C4.96187 9.38878 5.04781 9.58697 5.19621 9.73339C5.34461 9.87981 5.54394 9.96308 5.75239 9.96575H9.29718C9.40871 9.9787 9.52169 9.9679 9.62875 9.93407C9.7358 9.90024 9.83449 9.84415 9.91833 9.76948C10.0022 9.6948 10.0693 9.60324 10.1152 9.5008C10.1612 9.39835 10.1849 9.28735 10.1849 9.17507C10.1849 9.0628 10.1612 8.9518 10.1152 8.84935C10.0693 8.74691 10.0022 8.65535 9.91833 8.58067C9.83449 8.506 9.7358 8.4499 9.62875 8.41607C9.52169 8.38225 9.40871 8.37145 9.29718 8.3844H5.75239C5.54394 8.38707 5.34461 8.47034 5.19621 8.61676C5.04781 8.76318 4.96187 8.96137 4.9564 9.16977V9.18038ZM14.5082 5.8903C13.9453 5.8903 13.4054 5.66667 13.0073 5.26859C12.6092 4.87052 12.3856 4.33062 12.3856 3.76767V0.965793C12.3827 0.899918 12.3932 0.834144 12.4165 0.77244C12.4397 0.710736 12.4752 0.654386 12.5209 0.60678C12.5665 0.559173 12.6213 0.521303 12.6819 0.495451C12.7426 0.4696 12.8079 0.456304 12.8738 0.456366C12.9436 0.454134 13.013 0.467233 13.0772 0.494739C13.1414 0.522244 13.1988 0.563489 13.2453 0.615565L17.4905 5.05187C17.5585 5.12361 17.6041 5.21356 17.6218 5.31077C17.6395 5.40797 17.6286 5.50824 17.5904 5.59935C17.5522 5.69046 17.4882 5.76848 17.4064 5.82391C17.3246 5.87934 17.2285 5.90978 17.1297 5.91153H14.487L14.5082 5.8903Z" fill="#99A7C7"/>
</svg>
