<svg width="18" height="18" viewBox="0 0 18 18" fill="none" xmlns="http://www.w3.org/2000/svg">
<g clip-path="url(#clip0_216_663)">
<path d="M16.6444 2.87016C15.2853 2.63672 11.9306 2.32031 9.33436 2.32031C9.22607 2.32031 9.1192 2.32031 9.01619 2.32031H8.98385C8.88189 2.32031 8.77572 2.32031 8.66744 2.32031C6.15482 2.32031 2.93135 2.61668 1.49416 2.84766C1.3676 3.77262 1.2565 5.66684 1.25439 6.82031C1.2565 8.13375 1.401 10.4112 1.5476 11.1182C1.80564 12.2829 2.93486 13.3499 4.1024 13.5763C4.70006 13.6958 6.87447 13.8393 8.3317 13.873V15.3956L6.04479 16.7593C5.96944 16.8043 5.90368 16.8636 5.85126 16.9339C5.79884 17.0042 5.76079 17.0842 5.73927 17.1693C5.71776 17.2543 5.71321 17.3428 5.72587 17.4296C5.73854 17.5164 5.76818 17.5998 5.81311 17.6752C5.85803 17.7505 5.91735 17.8163 5.98768 17.8687C6.05802 17.9211 6.13799 17.9592 6.22303 17.9807C6.30808 18.0022 6.39652 18.0067 6.48332 17.9941C6.57012 17.9814 6.65358 17.9518 6.72893 17.9068L9.00002 16.5512L11.2708 17.9054C11.4229 17.9962 11.6049 18.0228 11.7767 17.9794C11.9485 17.936 12.096 17.8261 12.1868 17.6739C12.2775 17.5218 12.3041 17.3398 12.2607 17.168C12.2173 16.9962 12.1074 16.8487 11.9553 16.7579L9.66799 15.3942V13.8748C11.1224 13.8466 13.416 13.699 14.0333 13.5749C15.2009 13.3485 16.3301 12.2815 16.5878 11.1168C16.7347 10.4094 16.8789 8.13199 16.8813 6.81891C16.8789 5.67598 16.7696 3.8032 16.6444 2.87016V2.87016ZM8.95432 8.48496C8.93815 8.56073 8.89916 8.62972 8.84259 8.68264C8.78602 8.73557 8.71458 8.76989 8.63791 8.78098C8.56531 8.79056 8.49435 8.80995 8.42697 8.83863C8.03146 9.00668 7.84127 9.45879 7.99068 9.84094C8.01505 9.91422 8.0165 9.99318 7.99483 10.0673C7.97316 10.1414 7.9294 10.2072 7.86939 10.2558C7.63317 10.4581 7.3687 10.6248 7.08435 10.7508C7.01364 10.7828 6.93399 10.7891 6.8591 10.7687C6.78421 10.7483 6.71879 10.7024 6.67408 10.639C6.60568 10.5435 6.51549 10.4657 6.41099 10.4121C6.30649 10.3585 6.19071 10.3306 6.07326 10.3307C5.95179 10.3301 5.8321 10.3599 5.72509 10.4174C5.61807 10.4748 5.52711 10.5582 5.46049 10.6597C5.42954 10.7064 5.38731 10.7445 5.33773 10.7706C5.28814 10.7967 5.23278 10.8098 5.17678 10.8088C5.13551 10.8072 5.09477 10.7989 5.05619 10.7842C4.74555 10.6573 4.45715 10.4817 4.20189 10.2639C4.13901 10.2144 4.09375 10.146 4.07285 10.0688C4.05195 9.99161 4.05652 9.90972 4.08588 9.83531C4.11903 9.75778 4.13865 9.67514 4.14389 9.59098C4.15452 9.38688 4.08666 9.18645 3.95421 9.0308C3.82177 8.87515 3.63479 8.77608 3.43162 8.75391C3.35212 8.74475 3.27757 8.71062 3.2187 8.65642C3.15982 8.60221 3.11965 8.53074 3.10396 8.45227C3.07674 8.30429 3.06309 8.15413 3.06318 8.00367C3.06341 7.82387 3.08357 7.64465 3.1233 7.4693C3.14107 7.39323 3.18186 7.3245 3.24012 7.27247C3.29838 7.22044 3.37127 7.18765 3.44885 7.17855C3.52511 7.17015 3.5998 7.15098 3.67068 7.1216C4.06795 6.95742 4.26342 6.50707 4.11857 6.12281C4.0946 6.0481 4.09411 5.96783 4.11718 5.89283C4.14025 5.81783 4.18577 5.75172 4.2476 5.7034C4.48964 5.50485 4.76022 5.3439 5.05021 5.22598C5.11869 5.19696 5.19488 5.19158 5.26675 5.21068C5.33862 5.22977 5.40209 5.27227 5.44713 5.33145C5.51595 5.4226 5.60498 5.49655 5.70722 5.54747C5.80947 5.59839 5.92213 5.62489 6.03635 5.62489C6.15057 5.62489 6.26323 5.59839 6.36547 5.54747C6.46771 5.49655 6.55675 5.4226 6.62557 5.33145C6.67055 5.27229 6.73395 5.22982 6.80576 5.21072C6.87758 5.19162 6.95371 5.19699 7.02213 5.22598C7.3364 5.35382 7.62778 5.53193 7.88486 5.75332C7.94385 5.80108 7.98712 5.86547 8.00906 5.93812C8.031 6.01078 8.0306 6.08836 8.00791 6.16078C7.98875 6.2143 7.97589 6.26987 7.96959 6.32637C7.94893 6.53118 8.00748 6.73613 8.13321 6.89912C8.25894 7.06212 8.4423 7.17079 8.64564 7.20281C8.72061 7.21424 8.79035 7.2481 8.8457 7.29994C8.90105 7.35177 8.93941 7.41915 8.95572 7.4932C9.02798 7.82008 9.02798 8.15879 8.95572 8.48566L8.95432 8.48496ZM12.3645 9.7541H10.6977C10.5206 9.7541 10.3507 9.68373 10.2254 9.55846C10.1001 9.43319 10.0297 9.26329 10.0297 9.08613C10.0297 8.90898 10.1001 8.73908 10.2254 8.61381C10.3507 8.48854 10.5206 8.41816 10.6977 8.41816H12.3655C12.5427 8.41816 12.7126 8.48854 12.8379 8.61381C12.9631 8.73908 13.0335 8.90898 13.0335 9.08613C13.0335 9.26329 12.9631 9.43319 12.8379 9.55846C12.7126 9.68373 12.5427 9.7541 12.3655 9.7541H12.3645ZM14.3002 7.25238H10.6977C10.5206 7.25238 10.3507 7.18201 10.2254 7.05674C10.1001 6.93147 10.0297 6.76157 10.0297 6.58441C10.0297 6.40726 10.1001 6.23736 10.2254 6.11209C10.3507 5.98682 10.5206 5.91645 10.6977 5.91645H14.3012C14.4784 5.91645 14.6483 5.98682 14.7736 6.11209C14.8988 6.23736 14.9692 6.40726 14.9692 6.58441C14.9692 6.76157 14.8988 6.93147 14.7736 7.05674C14.6483 7.18201 14.4784 7.25238 14.3012 7.25238H14.3002Z" fill="#C8D1E5"/>
<path d="M6.03647 7.01086C5.84045 7.01086 5.64884 7.06899 5.48586 7.17789C5.32289 7.28679 5.19586 7.44157 5.12085 7.62266C5.04584 7.80375 5.02621 8.00302 5.06445 8.19526C5.10269 8.38751 5.19708 8.5641 5.33568 8.7027C5.47429 8.8413 5.65087 8.93569 5.84312 8.97393C6.03537 9.01217 6.23463 8.99254 6.41573 8.91753C6.59682 8.84252 6.7516 8.7155 6.8605 8.55252C6.9694 8.38954 7.02752 8.19793 7.02752 8.00192C7.02604 7.73953 6.92115 7.48831 6.73562 7.30277C6.55008 7.11723 6.29885 7.01234 6.03647 7.01086V7.01086Z" fill="#C8D1E5"/>
<path d="M17.1564 2.30696C17.1007 2.30698 17.0451 2.30145 16.9905 2.29044C15.6746 2.02747 11.7431 1.65762 9.01004 1.68926H8.9914C6.25554 1.65938 2.32543 2.02747 1.01093 2.29044C0.902071 2.31284 0.789852 2.31352 0.680725 2.29243C0.571598 2.27135 0.467713 2.2289 0.375037 2.16755C0.282361 2.10619 0.202722 2.02713 0.140692 1.9349C0.0786627 1.84267 0.0354662 1.7391 0.0135841 1.63013C-0.0082981 1.52116 -0.00843475 1.40894 0.013182 1.29991C0.0347987 1.19089 0.0777428 1.08721 0.139547 0.994832C0.201352 0.902454 0.280799 0.823197 0.373325 0.761615C0.465851 0.700032 0.569633 0.657337 0.678708 0.635982C2.22558 0.326607 6.36593 -0.0256583 9.00019 0.00316986C10.2539 -0.00983795 11.8883 0.0580136 13.6057 0.195123C15.1778 0.320982 16.5676 0.486217 17.3231 0.637389C17.5269 0.680052 17.7077 0.796544 17.8307 0.964463C17.9538 1.13238 18.0104 1.33987 17.9898 1.54703C17.9691 1.75419 17.8725 1.94639 17.7187 2.08667C17.5649 2.22696 17.3646 2.30541 17.1564 2.30696Z" fill="#C8D1E5"/>
</g>
<defs>
<clipPath id="clip0_216_663">
<rect width="18" height="18" fill="white"/>
</clipPath>
</defs>
</svg>
