<svg width="22" height="23" viewBox="0 0 22 23" fill="none" xmlns="http://www.w3.org/2000/svg">
<path d="M11.8126 22.9986H10.1978C9.56187 23.0173 8.94441 22.7843 8.48062 22.3504C8.01683 21.9165 7.74449 21.3172 7.72325 20.6837V20.6259C7.69946 20.0628 7.45961 19.5303 7.0532 19.1383C6.64678 18.7463 6.10482 18.5247 5.53918 18.5193C5.17232 18.5071 4.80959 18.5994 4.49359 18.7855C4.11537 19.014 3.68122 19.1341 3.2389 19.1327C2.816 19.1389 2.39874 19.0355 2.02806 18.8326C1.65738 18.6297 1.34602 18.3342 1.12452 17.9753L0.311302 16.5863C0.107372 16.2344 0 15.8352 0 15.4289C0 15.0225 0.107372 14.6233 0.311302 14.2714C0.537528 13.8874 0.867645 13.5745 1.26393 13.3686C1.57405 13.1927 1.83089 12.9368 2.00745 12.6278C2.28997 12.1395 2.36669 11.5595 2.22079 11.015C2.07489 10.4704 1.71827 10.0057 1.22908 9.72261C0.952705 9.57546 0.709073 9.37414 0.512821 9.13075C0.31657 8.88735 0.171763 8.60693 0.08711 8.30633C0.00245729 8.00574 -0.0202981 7.69118 0.0202264 7.3816C0.0607508 7.07202 0.163712 6.7738 0.322913 6.50489V6.44703L1.12452 5.08123C1.45829 4.53033 1.99413 4.13045 2.61862 3.96626C3.24311 3.80208 3.90721 3.88647 4.47035 4.20157C4.79158 4.37468 5.15073 4.46612 5.51594 4.46778C5.90273 4.4652 6.28277 4.36647 6.62156 4.18051C6.96036 3.99456 7.24719 3.72728 7.45606 3.40292C7.64277 3.09657 7.73564 2.74255 7.72325 2.38435C7.70124 1.95004 7.81931 1.52011 8.06017 1.15745C8.29224 0.811072 8.6043 0.525199 8.97018 0.323803C9.33606 0.122407 9.74508 0.0113626 10.1629 0H11.8126C12.2337 0.00354918 12.6472 0.11116 13.0163 0.313171C13.3853 0.515182 13.6982 0.805278 13.927 1.15745C14.1561 1.5244 14.2656 1.95294 14.2407 2.38435C14.2268 2.74431 14.3241 3.09984 14.5195 3.40292C14.7284 3.72728 15.0152 3.99456 15.354 4.18051C15.6928 4.36647 16.0728 4.4652 16.4596 4.46778C16.8248 4.46612 17.184 4.37468 17.5052 4.20157C18.0659 3.88406 18.7292 3.79834 19.3527 3.96282C19.9761 4.1273 20.5099 4.52886 20.8394 5.08123L21.6294 6.44703C21.7956 6.7087 21.9075 7.00093 21.9583 7.30643C22.0092 7.61194 21.998 7.92449 21.9254 8.2256C21.8528 8.52671 21.7203 8.81026 21.5358 9.05945C21.3512 9.30863 21.1184 9.5184 20.851 9.67632H20.7581C20.5171 9.8162 20.3062 10.0022 20.1376 10.2236C19.969 10.4451 19.8461 10.6976 19.7759 10.9665C19.7058 11.2355 19.6897 11.5157 19.7286 11.7908C19.7676 12.066 19.8608 12.3308 20.003 12.57C20.1682 12.8834 20.4229 13.1412 20.7348 13.3107C21.1272 13.5264 21.4587 13.8368 21.6991 14.2135C21.8964 14.5676 22 14.966 22 15.371C22 15.776 21.8964 16.1744 21.6991 16.5285L20.8626 17.9174C20.7027 18.1943 20.4893 18.437 20.2348 18.6313C19.9802 18.8256 19.6896 18.9678 19.3796 19.0496C19.0696 19.1314 18.7464 19.1512 18.4286 19.1078C18.1109 19.0645 17.805 18.9589 17.5284 18.7971V18.7971C17.2124 18.611 16.8497 18.5186 16.4829 18.5308C15.9152 18.5333 15.3703 18.7536 14.9614 19.1459C14.5525 19.5382 14.311 20.0724 14.2872 20.6374C14.2842 20.9555 14.2175 21.2698 14.0908 21.5618C13.9641 21.8538 13.78 22.1176 13.5494 22.3376C13.3188 22.5577 13.0463 22.7295 12.7481 22.843C12.4498 22.9565 12.1317 23.0094 11.8126 22.9986V22.9986ZM11.011 8.16006C10.1287 8.15079 9.27866 8.49033 8.64716 9.10431C8.01566 9.71829 7.65419 10.5566 7.64194 11.4357C7.64141 11.8679 7.72861 12.2958 7.89831 12.6936C8.06801 13.0914 8.31669 13.451 8.62942 13.7506C9.25171 14.3556 10.0835 14.6995 10.9529 14.7113C11.8229 14.7236 12.6624 14.3919 13.2874 13.7888C13.9123 13.1856 14.2719 12.3603 14.2872 11.4935C14.2986 11.0533 14.2189 10.6153 14.053 10.2071C13.8871 9.79886 13.6386 9.42906 13.3229 9.12075C12.6884 8.50564 11.8382 8.16104 10.9529 8.16006H11.011Z" fill="#99A7C7"/>
</svg>
