<svg width="19" height="21" viewBox="0 0 19 21" fill="none" xmlns="http://www.w3.org/2000/svg">
<path d="M13.2027 20.22H4.91267C3.03267 20.22 1.73267 19.79 0.912668 18.89C0.0926678 17.99 -0.16733 16.52 0.10267 14.54L0.882669 8.34C1.003 7.42541 1.42535 6.57721 2.08268 5.93C2.58918 5.47083 3.24904 5.21759 3.93269 5.22H4.01267C4.00267 5.14701 4.00267 5.07299 4.01267 5C4.01267 3.67392 4.53947 2.40214 5.47715 1.46446C6.41483 0.52678 7.68659 0 9.01267 0C10.3388 0 11.6105 0.52678 12.5482 1.46446C13.4859 2.40214 14.0127 3.67392 14.0127 5V5C14.0117 5.07604 13.9947 5.15101 13.9627 5.22H14.1227C14.8011 5.22739 15.4515 5.49184 15.9427 5.96C16.5928 6.60418 17.0233 7.43702 17.1727 8.34L17.9427 14.54C18.1104 15.268 18.1167 16.024 17.9612 16.7547C17.8057 17.4854 17.4922 18.1733 17.0427 18.77C16.5451 19.2744 15.9443 19.6652 15.2815 19.9155C14.6186 20.1658 13.9095 20.2697 13.2027 20.22V20.22ZM11.9327 8.55C11.6904 8.54461 11.4557 8.63506 11.2797 8.80171C11.1037 8.96836 11.0005 9.19774 10.9927 9.44C10.9927 9.68135 11.0885 9.91281 11.2592 10.0835C11.4299 10.2541 11.6613 10.35 11.9027 10.35C12.144 10.35 12.3755 10.2541 12.5462 10.0835C12.7168 9.91281 12.8127 9.68135 12.8127 9.44V9.44C12.8077 9.20724 12.7137 8.98524 12.55 8.81969C12.3863 8.65413 12.1654 8.55762 11.9327 8.55V8.55ZM6.14268 8.55C5.90108 8.54718 5.66786 8.63849 5.49241 8.80461C5.31696 8.97073 5.21305 9.19861 5.20268 9.44C5.20002 9.55951 5.22094 9.67837 5.26423 9.78979C5.30753 9.90122 5.37235 10.003 5.455 10.0894C5.53765 10.1758 5.63651 10.245 5.74592 10.2931C5.85533 10.3413 5.97315 10.3674 6.09266 10.37C6.21169 10.374 6.33032 10.3543 6.44169 10.3121C6.55306 10.27 6.65496 10.2061 6.74146 10.1242C6.82797 10.0424 6.89736 9.94417 6.94563 9.8353C6.9939 9.72643 7.0201 9.60906 7.02268 9.49V9.49C7.02804 9.37015 7.00939 9.25044 6.96781 9.13791C6.92624 9.02538 6.86258 8.92229 6.78059 8.83472C6.6986 8.74714 6.59995 8.67683 6.4904 8.62794C6.38085 8.57904 6.26262 8.55255 6.14268 8.55V8.55ZM9.01267 1.55C8.0896 1.55263 7.20496 1.91979 6.55131 2.57156C5.89766 3.22334 5.52795 4.10694 5.52268 5.03C5.54273 5.10196 5.54273 5.17804 5.52268 5.25H12.5227C12.5123 5.17703 12.5123 5.10296 12.5227 5.03C12.5267 4.56794 12.4386 4.10972 12.2637 3.68206C12.0887 3.2544 11.8303 2.86587 11.5035 2.53914C11.1768 2.21241 10.7883 1.95401 10.3606 1.77903C9.93295 1.60405 9.47473 1.516 9.01267 1.52V1.55Z" fill="#808080"/>
</svg>
