<svg width="21" height="17" viewBox="0 0 21 17" fill="none" xmlns="http://www.w3.org/2000/svg">
<path d="M10.0101 16.9003C5.88007 16.9003 2.17008 14.0203 0.0800781 9.19028C0.0404491 9.09873 0.0200195 9.00002 0.0200195 8.90027C0.0200195 8.80051 0.0404491 8.70182 0.0800781 8.61028C2.17008 3.79028 5.88007 0.900269 10.0101 0.900269C12.0934 0.905192 14.1148 1.6095 15.7501 2.90027C17.5989 4.40844 19.0424 6.35379 19.9501 8.56027C19.9897 8.65182 20.0102 8.75052 20.0102 8.85028C20.0102 8.95004 19.9897 9.04873 19.9501 9.14027C17.8601 13.9703 14.1501 16.8503 10.0101 16.8503V16.9003ZM6.12009 8.90027C6.11416 9.67201 6.33732 10.4282 6.76135 11.073C7.18539 11.7179 7.79122 12.2224 8.50214 12.5228C9.21306 12.8231 9.9971 12.9058 10.755 12.7603C11.513 12.6149 12.2107 12.2478 12.7599 11.7056C13.3091 11.1634 13.6851 10.4704 13.8403 9.7144C13.9955 8.9584 13.9229 8.17335 13.6317 7.45863C13.3405 6.74392 12.8438 6.13168 12.2044 5.6994C11.5651 5.26713 10.8118 5.03425 10.0401 5.03027C9.52839 5.02632 9.02096 5.12336 8.54684 5.31583C8.07272 5.5083 7.64124 5.79242 7.2771 6.15192C6.91296 6.51141 6.62331 6.93922 6.42477 7.41083C6.22623 7.88244 6.1227 8.38858 6.12009 8.90027ZM7.58008 8.90027C7.58186 8.74237 7.59859 8.585 7.63007 8.43027H7.68008C8.19694 8.43068 8.69389 8.23099 9.06674 7.87305C9.4396 7.51511 9.65941 7.02671 9.68008 6.51027C9.79321 6.50062 9.90695 6.50062 10.0201 6.51027C10.4978 6.51422 10.9637 6.65951 11.3591 6.92781C11.7544 7.19611 12.0614 7.57543 12.2415 8.01796C12.4216 8.46049 12.4667 8.94643 12.3711 9.41454C12.2755 9.88264 12.0434 10.312 11.7042 10.6484C11.365 10.9849 10.9338 11.2134 10.4649 11.3051C9.99603 11.3969 9.51046 11.3478 9.06943 11.1641C8.62839 10.9804 8.25161 10.6702 7.98657 10.2727C7.72153 9.87514 7.58009 9.40804 7.58008 8.93027V8.90027Z" fill="#200E32"/>
</svg>
