<svg width="14" height="14" viewBox="0 0 14 14" fill="none" xmlns="http://www.w3.org/2000/svg">
<g clip-path="url(#clip0_102_942)">
<path d="M5.81613 1.737L3.15698 3.72833H0.728534C0.32784 3.72833 0 4.05617 0 4.45686V9.53232C0 9.93313 0.32784 10.2608 0.728534 10.2608H3.15698L5.81613 12.2522C6.30182 12.6164 6.98179 12.2765 6.98179 11.6693V2.31983C6.98179 1.71271 6.28968 1.37273 5.81613 1.737Z" fill="#99A7C7"/>
<path d="M9.38595 2.92691C9.05811 2.59907 8.51171 2.59907 8.18399 2.92691C7.85615 3.25475 7.85615 3.80115 8.18399 4.12899C9.76248 5.70748 9.76248 8.26962 8.18399 9.84811C7.85615 10.1759 7.85615 10.7223 8.18399 11.0501C8.35386 11.2201 8.57242 11.2929 8.77884 11.2929C8.98526 11.2929 9.21608 11.208 9.37381 11.0379C11.6323 8.8159 11.6323 5.17322 9.38595 2.92691Z" fill="#99A7C7"/>
<path d="M10.3331 1.02063C10.0054 1.34847 10.0054 1.89487 10.3331 2.22271C11.608 3.49764 12.3124 5.18542 12.3124 6.99461C12.3124 8.8038 11.608 10.4916 10.3331 11.7665C10.0054 12.0943 10.0054 12.6407 10.3331 12.9686C10.5031 13.1385 10.7216 13.2236 10.928 13.2236C11.1466 13.2236 11.3652 13.1386 11.523 12.9807C13.1136 11.3901 13.9999 9.26521 13.9999 7.00675C13.9999 4.7483 13.1257 2.63555 11.523 1.03277C11.2073 0.692788 10.6731 0.692788 10.3331 1.02063Z" fill="#99A7C7"/>
</g>
<defs>
<clipPath id="clip0_102_942">
<rect width="14" height="14" fill="white"/>
</clipPath>
</defs>
</svg>
