<svg width="18" height="16" viewBox="0 0 18 16" fill="none" xmlns="http://www.w3.org/2000/svg">
<path fill-rule="evenodd" clip-rule="evenodd" d="M17.4446 1.29994C17.4446 1.37772 16.8558 8.86629 16.5225 12.0217C16.4934 12.8793 16.1269 13.6908 15.5027 14.2797C14.8785 14.8685 14.0471 15.1871 13.1893 15.1661H8.95608H4.65618C3.81169 15.1665 3.00008 14.8389 2.39267 14.2522C1.78526 13.6655 1.42957 12.8657 1.40075 12.0217C1.12231 9.46224 0.684293 4.08623 0.520725 2.07801L0.519911 2.06865L0.478341 1.56031C0.465185 1.39963 0.457522 1.30818 0.456369 1.29994C0.446603 1.07151 0.526285 0.848295 0.678596 0.677742C0.725592 0.627186 0.778758 0.583005 0.836807 0.546284C0.870104 0.525194 0.904961 0.506545 0.941173 0.490506C1.04045 0.446563 1.14774 0.423303 1.25631 0.42215H16.6669C16.7755 0.423303 16.8827 0.446563 16.982 0.490506C17.0814 0.53445 17.1707 0.598162 17.2446 0.677742C17.3193 0.761899 17.3756 0.860671 17.4101 0.967784C17.4445 1.0749 17.4563 1.18804 17.4446 1.29994ZM5.75728 9.29433C5.75728 8.88019 6.09303 8.54444 6.50717 8.54444H11.3792C11.7934 8.54444 12.1291 8.88019 12.1291 9.29433C12.1291 9.70847 11.7934 10.0442 11.3792 10.0442H6.50717C6.09303 10.0442 5.75728 9.70847 5.75728 9.29433ZM5.56225 4.47209C5.1481 4.47209 4.81235 4.80784 4.81235 5.22198C4.81235 5.63612 5.1481 5.97187 5.56225 5.97187H12.3246C12.7388 5.97187 13.0745 5.63612 13.0745 5.22198C13.0745 4.80784 12.7388 4.47209 12.3246 4.47209H5.56225Z" fill="#99A7C7"/>
</svg>
