<svg width="18" height="18" viewBox="0 0 18 18" fill="none" xmlns="http://www.w3.org/2000/svg">
<path fill-rule="evenodd" clip-rule="evenodd" d="M8.47236 1.00348C8.33671 0.637836 7.84078 0.170924 7.48211 0.0712081C7.10651 -0.0331523 1.39592 -0.018656 1.06122 0.0876044C0.720124 0.195835 0.198468 0.737974 0.0928291 1.09405C-0.030943 1.51142 -0.030943 13.3272 0.0928291 13.7445C0.212314 14.1472 0.726098 14.6501 1.13171 14.7614C1.36984 14.8267 2.49489 14.8432 5.69244 14.8282L9.9371 14.8083L10.07 14.6301C10.2017 14.4535 10.1958 14.3943 9.39204 7.87445C8.92985 4.12494 8.53449 1.17083 8.47236 1.00348ZM17.5576 3.73649C17.4336 3.60715 17.2148 3.44079 17.0715 3.36676C16.8251 3.23967 16.6203 3.23221 13.3639 3.23221H9.91714V3.40427C9.91714 3.49892 10.2191 5.99266 10.5882 8.94599C10.9938 12.1923 11.2417 14.4118 11.2149 14.5587C11.1364 14.9889 10.9328 15.2759 9.74044 16.6379L8.56985 17.975L12.5644 17.9949C15.5646 18.0099 16.6377 17.9933 16.8752 17.9281C17.2808 17.8168 17.7946 17.3139 17.914 16.9112C17.9788 16.6929 17.9999 15.1405 17.9999 10.6043C17.9999 4.88214 18.012 4.27708 17.722 3.91332C17.6755 3.85489 17.6211 3.80268 17.5576 3.73649ZM3.84409 3.9286C3.9065 3.85957 4.02542 3.78976 4.10836 3.7735C4.41199 3.71404 5.17978 3.72748 5.42838 3.79666C5.60473 3.8457 5.70826 3.92733 5.76252 4.06012C5.84363 4.25843 6.89488 9.43662 6.89488 9.63767C6.89488 9.84224 6.62421 10.0582 6.36774 10.0582C5.9861 10.0582 5.88706 9.88615 5.70018 8.89786L5.53367 8.01744H4.77347C4.35527 8.01744 4.01319 8.02891 4.01319 8.04292C4.01319 8.28978 3.62929 9.83682 3.54481 9.9302C3.39834 10.0922 2.97958 10.0987 2.80633 9.94174C2.72669 9.86961 2.67778 9.72796 2.67778 9.56962C2.67778 9.11157 3.7213 4.06449 3.84409 3.9286ZM5.25759 6.69799C5.23643 6.59159 5.14696 6.13241 5.05861 5.67761C4.92774 5.00415 4.87545 4.85074 4.77684 4.85074C4.68709 4.85074 4.63627 4.94652 4.58074 5.22019C4.53949 5.42335 4.44643 5.88253 4.37397 6.24057L4.24225 6.89151H4.76904H5.2959L5.25759 6.69799ZM13.7366 7.57861C13.7596 7.38361 13.8318 7.16504 13.897 7.09298C13.9717 7.01022 14.1111 6.96188 14.2748 6.96188C14.6146 6.96188 14.7601 7.13014 14.8139 7.58558L14.8567 7.94707H15.6154C16.4045 7.94707 16.6951 8.00984 16.8499 8.21371C17.0757 8.51138 16.87 8.94627 16.4606 9.03628C16.2973 9.07224 16.232 9.14007 16.1668 9.34162C16.0319 9.75857 15.6875 10.412 15.3559 10.8801C15.1866 11.1193 15.048 11.3324 15.048 11.3538C15.048 11.3751 15.3484 11.6321 15.7157 11.9249C16.3387 12.4214 16.3834 12.4742 16.3834 12.7123C16.3834 13.0498 16.2169 13.2252 15.8981 13.2237C15.6896 13.2227 15.5312 13.1305 14.9924 12.6959C14.3534 12.1807 14.1876 12.0963 14.0984 12.2408C14.0742 12.2801 13.8003 12.5176 13.4898 12.7686C13.0459 13.1275 12.875 13.2249 12.6891 13.2249C12.2786 13.2249 12.0147 12.7519 12.2564 12.4491C12.3035 12.3901 12.5859 12.1437 12.8839 11.9014C13.182 11.6592 13.444 11.4317 13.4663 11.3958C13.4884 11.3599 13.3816 11.1471 13.2289 10.923C12.9525 10.5175 12.4312 9.49869 12.3593 9.22375C12.3371 9.1386 12.2394 9.05978 12.121 9.03156C11.8084 8.95704 11.6743 8.80053 11.6743 8.51004C11.6743 8.06058 11.8301 7.98627 12.8324 7.9577L13.6946 7.93307L13.7366 7.57861ZM14.3814 10.4411C14.5635 10.2079 15.032 9.39784 15.0811 9.23135C15.1277 9.07329 15.1261 9.07301 14.2786 9.07301H13.4295L13.5389 9.3369C13.6473 9.59861 13.981 10.1785 14.1743 10.4411C14.2738 10.5763 14.2759 10.5763 14.3814 10.4411ZM7.129 17.799C7.17778 17.799 7.60546 17.3715 8.0794 16.849L8.94109 15.899H7.55746H6.1739L6.2231 16.3388C6.25023 16.5808 6.3281 16.9053 6.39621 17.0601C6.52293 17.3483 6.97002 17.799 7.129 17.799Z" fill="#C8D1E5"/>
</svg>
