<svg width="22" height="22" viewBox="0 0 22 22" fill="none" xmlns="http://www.w3.org/2000/svg">
<path d="M18.7782 3.22182C16.7006 1.14421 13.9382 0 11 0C8.06184 0 5.29942 1.14421 3.22182 3.22182C1.14421 5.29942 0 8.06184 0 11C0 13.9382 1.14421 16.7006 3.22182 18.7782C5.29942 20.8558 8.06184 22 11 22C13.9382 22 16.7006 20.8558 18.7782 18.7782C20.8558 16.7006 22 13.9382 22 11C22 8.06184 20.8558 5.29942 18.7782 3.22182ZM11 19.6797C6.21402 19.6797 2.32031 15.786 2.32031 11C2.32031 6.21402 6.21402 2.32031 11 2.32031C15.786 2.32031 19.6797 6.21402 19.6797 11C19.6797 15.786 15.786 19.6797 11 19.6797Z" fill="#99A7C7"/>
<path d="M11 3.60938C6.92485 3.60938 3.60938 6.92485 3.60938 11C3.60938 15.0751 6.92485 18.3906 11 18.3906C15.0751 18.3906 18.3906 15.0751 18.3906 11C18.3906 6.92485 15.0751 3.60938 11 3.60938ZM13.7728 13.637C13.6162 13.9316 13.4052 14.1701 13.1397 14.3519C12.874 14.5338 12.5685 14.6668 12.2229 14.7502C12.0338 14.796 11.8396 14.8288 11.6405 14.8496V16.3518H10.3514V14.8212C10.0364 14.7779 9.72336 14.7094 9.41267 14.6137C8.84502 14.4392 8.3356 14.1919 7.8846 13.8717L8.55045 12.5729C8.61591 12.6384 8.73407 12.724 8.90511 12.8294C9.07597 12.9349 9.27789 13.0405 9.51086 13.1459C9.74367 13.2515 10.002 13.3406 10.2858 13.4133C10.5695 13.4861 10.8604 13.5224 11.1588 13.5224C11.9883 13.5224 12.403 13.2569 12.403 12.7256C12.403 12.5583 12.3555 12.4165 12.2612 12.3C12.1665 12.1837 12.0319 12.0818 11.8574 11.9945C11.6828 11.907 11.4716 11.8271 11.2244 11.7543C10.9768 11.6816 10.7004 11.6016 10.3949 11.5143C10.0238 11.4124 9.70187 11.3015 9.42896 11.1813C9.1562 11.0613 8.9286 10.9194 8.74683 10.7556C8.56488 10.592 8.42842 10.4028 8.33762 10.1881C8.24664 9.97362 8.20116 9.71715 8.20116 9.41872C8.20116 9.02579 8.27383 8.6765 8.41953 8.37102C8.56488 8.06537 8.7668 7.81075 9.02512 7.60698C9.28343 7.40338 9.58354 7.24863 9.92561 7.14305C10.0634 7.10075 10.2054 7.06718 10.3514 7.04184V5.63713H11.6405V7.02338C11.9547 7.064 12.2526 7.13651 12.534 7.24124C12.9923 7.41245 13.3925 7.6142 13.7346 7.847L13.0689 9.06943C13.0179 9.01857 12.925 8.94942 12.7904 8.86197C12.6558 8.77469 12.492 8.68925 12.2993 8.6055C12.1064 8.52191 11.8973 8.45108 11.6719 8.39267C11.4461 8.33459 11.217 8.30539 10.9842 8.30539C10.5695 8.30539 10.2601 8.38176 10.0565 8.53467C9.85277 8.68741 9.75089 8.90208 9.75089 9.17853C9.75089 9.33865 9.78915 9.47159 9.86552 9.577C9.94189 9.68257 10.0527 9.77522 10.1984 9.85529C10.3439 9.93535 10.5275 10.008 10.7496 10.0735C10.9715 10.1389 11.2279 10.2083 11.519 10.2809C11.8973 10.3828 12.2411 10.4919 12.5504 10.6082C12.8596 10.7247 13.1214 10.8703 13.3361 11.0448C13.5506 11.2195 13.7163 11.4287 13.8327 11.6724C13.9491 11.9163 14.0073 12.2164 14.0073 12.5727C14.0075 12.9876 13.9291 13.3423 13.7728 13.637Z" fill="#99A7C7"/>
</svg>
