<svg width="20" height="20" viewBox="0 0 20 20" fill="none" xmlns="http://www.w3.org/2000/svg">
<path d="M0 11.0714C6.65036 12.575 7.14286 19.2857 7.14286 19.2857C7.14286 19.2857 7.63536 12.575 14.2857 11.0714C7.63536 9.56786 7.14286 2.85715 7.14286 2.85715C7.14286 2.85715 6.65036 9.56786 0 11.0714Z" fill="#BBC4D9"/>
<path d="M12.1428 15.7143C15.8003 16.5 16.0714 20 16.0714 20C16.0714 20 16.3425 16.5 20 15.7143C16.3425 14.9286 16.0714 11.4286 16.0714 11.4286C16.0714 11.4286 15.8003 14.9286 12.1428 15.7143Z" fill="#BBC4D9"/>
<path d="M9.64282 4.28571C13.3003 5.07143 13.5714 8.57143 13.5714 8.57143C13.5714 8.57143 13.8425 5.07143 17.5 4.28571C13.8425 3.5 13.5714 0 13.5714 0C13.5714 0 13.3003 3.5 9.64282 4.28571Z" fill="#BBC4D9"/>
</svg>
