<svg width="18" height="18" viewBox="0 0 18 18" fill="none" xmlns="http://www.w3.org/2000/svg">
<path d="M17.25 2.58333C17.2485 2.09755 17.0549 1.63208 16.7114 1.28857C16.3679 0.945071 15.9025 0.751451 15.4167 0.75H2.58333C2.09755 0.751451 1.63208 0.945071 1.28857 1.28857C0.945071 1.63208 0.751451 2.09755 0.75 2.58333V15.4167C0.751451 15.9025 0.945071 16.3679 1.28857 16.7114C1.63208 17.0549 2.09755 17.2485 2.58333 17.25H15.4167C15.9029 17.25 16.3692 17.0568 16.713 16.713C17.0568 16.3692 17.25 15.9029 17.25 15.4167V2.58333ZM12.6667 3.5C13.0293 3.5 13.3837 3.60752 13.6852 3.80897C13.9867 4.01042 14.2217 4.29675 14.3604 4.63175C14.4992 4.96674 14.5355 5.33537 14.4648 5.691C14.394 6.04663 14.2194 6.3733 13.963 6.6297C13.7066 6.88609 13.38 7.0607 13.0243 7.13144C12.6687 7.20218 12.3001 7.16587 11.9651 7.02711C11.6301 6.88835 11.3438 6.65337 11.1423 6.35188C10.9409 6.05039 10.8333 5.69593 10.8333 5.33333C10.8348 4.84755 11.0284 4.38208 11.3719 4.03857C11.7154 3.69507 12.1809 3.50145 12.6667 3.5V3.5ZM2.58333 15.4167V8.9725C3.47086 8.33535 4.55215 8.02631 5.64233 8.09821C6.7325 8.1701 7.76384 8.61848 8.56 9.36667L14.7383 15.4167H2.58333Z" fill="#C8D1E5"/>
</svg>
