<svg width="30" height="30" viewBox="0 0 30 30" fill="none" xmlns="http://www.w3.org/2000/svg">
<path fill-rule="evenodd" clip-rule="evenodd" d="M15.0024 0C19.0125 0 22.7811 1.55904 25.6117 4.39099C31.4628 10.2419 31.4628 19.7609 25.6117 25.6118C22.7434 28.4814 18.8813 30 14.9689 30C12.8362 30 10.6895 29.5492 8.68093 28.6196C8.08913 28.3823 7.535 28.159 7.13721 28.159C6.67939 28.1618 6.06386 28.374 5.46926 28.5791C4.24935 28.9979 2.73075 29.5199 1.60715 28.4005C0.487736 27.2797 1.00417 25.7653 1.42011 24.5468C1.62529 23.9467 1.83605 23.327 1.83605 22.858C1.83605 22.4728 1.65042 21.9815 1.36568 21.2738C-1.24861 15.6281 -0.0398672 8.82386 4.39451 4.39239C7.22514 1.56044 10.9923 0 15.0024 0ZM15.0038 2.09361C11.552 2.09361 8.30966 3.43631 5.87403 5.87327C2.05798 9.68642 1.01953 15.5415 3.28766 20.4448C3.61427 21.2529 3.92972 22.0401 3.92972 22.858C3.92972 23.6745 3.64917 24.4966 3.40211 25.2224C3.19833 25.8198 2.88986 26.7214 3.08806 26.9196C3.28208 27.1206 4.18933 26.8038 4.78812 26.5986C5.50694 26.3529 6.32207 26.071 7.13023 26.0654C7.93978 26.0654 8.70327 26.3725 9.51142 26.6977C14.4622 28.9867 20.3175 27.9455 24.1322 24.1323C29.1653 19.0965 29.1653 10.9049 24.1322 5.87187C21.6951 3.43491 18.4542 2.09361 15.0038 2.09361ZM20.5128 14.1845C21.2832 14.1845 21.9086 14.8084 21.9086 15.5802C21.9086 16.3521 21.2832 16.9759 20.5128 16.9759C19.7423 16.9759 19.1114 16.3521 19.1114 15.5802C19.1114 14.8084 19.7297 14.1845 20.5002 14.1845H20.5128ZM14.9174 14.1845C15.6879 14.1845 16.3132 14.8084 16.3132 15.5802C16.3132 16.3521 15.6879 16.9759 14.9174 16.9759C14.1469 16.9759 13.516 16.3521 13.516 15.5802C13.516 14.8084 14.133 14.1845 14.9048 14.1845H14.9174ZM9.32146 14.1845C10.0919 14.1845 10.7172 14.8084 10.7172 15.5802C10.7172 16.3521 10.0919 16.9759 9.32146 16.9759C8.55099 16.9759 7.9201 16.3521 7.9201 15.5802C7.9201 14.8084 8.53843 14.1845 9.30889 14.1845H9.32146Z" fill="white"/>
</svg>
