<?xml version="1.0"?>
<svg xmlns="http://www.w3.org/2000/svg" xmlns:xlink="http://www.w3.org/1999/xlink" xmlns:svgjs="http://svgjs.com/svgjs" version="1.1" width="512px" height="512px" x="0" y="0" viewBox="0 0 512 512" style="enable-background:new 0 0 512 512" xml:space="preserve" class=""><g>
<path d="M89.043,512C39.946,512,0,472.054,0,422.957V89.043C0,39.946,39.946,0,89.043,0h333.913  C472.054,0,512,39.946,512,89.043v333.913C512,472.054,472.054,512,422.957,512H89.043z" fill="#ff9200" data-original="#d7ebff" class=""/>
<path d="M89.043,478.609c-30.684,0-55.652-24.968-55.652-55.652V89.043c0-30.684,24.968-55.652,55.652-55.652  h333.913c30.684,0,55.652,24.968,55.652,55.652v333.913c0,30.684-24.968,55.652-55.652,55.652H89.043z" fill="#afafaf" data-original="#73e6e6" class=""/>
<path d="M422.957,33.391H256v445.217h166.957c30.684,0,55.652-24.968,55.652-55.652V89.043  C478.609,58.359,453.641,33.391,422.957,33.391z" fill="#afafaf" data-original="#57d9d9" class=""/>
<path d="M89.412,478.609h333.176c-2.519-39.218-18.684-75.955-46.491-104.737  c-31.723-32.946-74.463-51.089-120.097-51.089s-88.375,18.143-120.097,51.089C108.095,402.653,91.931,439.391,89.412,478.609z" fill="#ffffff" data-original="#ffc033" class=""/>
<path d="M256,322.783v155.826h166.588c-2.519-39.218-18.684-75.955-46.491-104.737  C344.375,340.925,301.635,322.783,256,322.783z" fill="#ffffff" data-original="#f9a926" class=""/>
<path d="M422.957,105.739h-16.696V89.043c0-9.223-7.479-16.696-16.696-16.696  c-9.217,0-16.696,7.473-16.696,16.696v16.696h-16.696c-9.217,0-16.696,7.473-16.696,16.696s7.479,16.696,16.696,16.696h16.696  v16.696c0,9.223,7.479,16.696,16.696,16.696c9.217,0,16.696-7.473,16.696-16.696V139.13h16.696c9.217,0,16.696-7.473,16.696-16.696  S432.174,105.739,422.957,105.739z" fill="#ffffff" data-original="#6b7a99" class=""/>
<path d="M256,356.174c-55.239,0-100.174-44.94-100.174-100.174S200.761,155.826,256,155.826  S356.174,200.766,356.174,256S311.239,356.174,256,356.174z" fill="#ffffff" data-original="#ffeacc" class=""/>
<path d="M356.174,256c0-55.234-44.935-100.174-100.174-100.174v200.348  C311.239,356.174,356.174,311.234,356.174,256z" fill="#ffffff" data-original="#ffd9b3" class=""/>
<g>
</g>
<g>
</g>
<g>
</g>
<g>
</g>
<g>
</g>
<g>
</g>
<g>
</g>
<g>
</g>
<g>
</g>
<g>
</g>
<g>
</g>
<g>
</g>
<g>
</g>
<g>
</g>
<g>
</g>
</g></svg>
