<svg width="16" height="17" viewBox="0 0 16 17" fill="none" xmlns="http://www.w3.org/2000/svg">
<path d="M12.482 10.1412C12.2557 10.1093 12.0254 10.1226 11.8043 10.1803C11.5832 10.2379 11.3758 10.3388 11.194 10.4772C10.818 10.6932 10.114 11.2772 9.70598 11.1172C7.53625 10.2194 5.7928 8.52467 4.83396 6.38123C4.68196 5.96523 5.258 5.26123 5.474 4.88523C5.75235 4.51436 5.87309 4.04863 5.80998 3.58924C5.33862 2.67163 4.73182 1.83021 4.00998 1.09324C3.7724 0.835966 3.45288 0.669117 3.10598 0.621218C1.94598 0.573218 0.65 2.10922 0.426 2.47722C-0.142 3.27722 -0.142 4.30923 0.426 5.58123C1.818 8.98923 7.05797 14.1252 10.49 15.5572C11.0296 15.8297 11.6218 15.9826 12.226 16.0052C12.7101 16.0099 13.1833 15.8616 13.578 15.5812C13.866 15.4132 15.482 14.0612 15.434 12.8692C15.389 12.5254 15.2248 12.2083 14.97 11.9732C14.2288 11.2476 13.3884 10.6308 12.474 10.1412" fill="white"/>
</svg>
