<svg width="25" height="24" viewBox="0 0 25 24" fill="none" xmlns="http://www.w3.org/2000/svg">
<path d="M4.85277 23.964C4.2517 23.9609 3.65714 23.8394 3.10303 23.6065C2.54891 23.3735 2.04616 23.0338 1.62336 22.6065C1.20057 22.1793 0.866051 21.6729 0.638943 21.1164C0.411835 20.5599 0.296532 19.9641 0.299687 19.363L0.215805 13.1684C0.215211 13.1281 0.22482 13.0883 0.243668 13.0527C0.262517 13.0171 0.290028 12.9869 0.323674 12.9647H0.407556C0.453889 12.9472 0.504998 12.9472 0.551332 12.9647C3.08091 14.62 5.9449 15.696 8.93861 16.1159H9.0584C9.25596 16.1145 9.44757 16.0479 9.60352 15.9266C9.75947 15.8054 9.87109 15.6361 9.92113 15.4449C10.0417 14.9722 10.3174 14.5535 10.7041 14.2559C11.0907 13.9583 11.566 13.799 12.0539 13.8034V13.8034C12.5451 13.8015 13.0225 13.9664 13.4077 14.2712C13.793 14.5759 14.0634 15.0024 14.1747 15.4809C14.2271 15.673 14.341 15.8426 14.4989 15.9638C14.6569 16.085 14.8502 16.151 15.0493 16.1519H15.1692C18.1629 15.7319 21.0269 14.6559 23.5565 13.0006V13.0006H23.6523H23.7361C23.7684 13.0242 23.7948 13.0548 23.8135 13.0901C23.8322 13.1254 23.8426 13.1644 23.844 13.2043L23.7481 19.3989C23.7513 20 23.6361 20.5958 23.4089 21.1523C23.1818 21.7089 22.8473 22.2152 22.4245 22.6424C22.0017 23.0697 21.4989 23.4095 20.9448 23.6424C20.3907 23.8753 19.7961 23.9968 19.1951 24L4.85277 23.964ZM11.1672 16.4874V18.0929C11.1672 18.3324 11.2615 18.5622 11.4297 18.7326C11.5979 18.9031 11.8264 19.0004 12.0659 19.0035C12.1859 19.0052 12.305 18.9827 12.4162 18.9375C12.5274 18.8923 12.6285 18.8253 12.7134 18.7404C12.7982 18.6555 12.8653 18.5545 12.9104 18.4433C12.9556 18.3321 12.9781 18.213 12.9765 18.0929V16.4874C12.9912 16.3598 12.9787 16.2306 12.94 16.1082C12.9012 15.9858 12.837 15.873 12.7516 15.7772C12.6662 15.6813 12.5615 15.6046 12.4443 15.5521C12.3272 15.4996 12.2002 15.4725 12.0718 15.4725C11.9435 15.4725 11.8165 15.4996 11.6994 15.5521C11.5822 15.6046 11.4775 15.6813 11.3921 15.7772C11.3067 15.873 11.2425 15.9858 11.2037 16.1082C11.165 16.2306 11.1525 16.3598 11.1672 16.4874V16.4874ZM15.4807 13.9951C15.1383 13.3947 14.6431 12.8956 14.0455 12.5484C13.4479 12.2012 12.769 12.0182 12.0778 12.0181C11.3837 12.0204 10.7019 12.2026 10.0992 12.547C9.49649 12.8914 8.9934 13.3862 8.63906 13.9832C8.604 14.0419 8.55508 14.0912 8.49661 14.1267C8.43813 14.1622 8.37183 14.1828 8.30354 14.1868H8.18375C5.78257 13.7304 3.49458 12.8062 1.44997 11.467L0.251786 10.6762C0.204005 10.6421 0.164996 10.5972 0.137921 10.5451C0.110846 10.4931 0.0964698 10.4353 0.0960163 10.3766C0.0960163 9.77753 0.000141251 7.78855 0.000141251 7.77657C-0.00459534 7.17292 0.109836 6.57427 0.336838 6.01491C0.563839 5.45555 0.898948 4.94648 1.32301 4.51684C1.74708 4.08721 2.25174 3.74547 2.80809 3.5112C3.36444 3.27692 3.96156 3.15472 4.56521 3.15158H6.96158C7.0707 2.27286 7.50035 1.46534 8.1681 0.88382C8.83585 0.302302 9.69474 -0.0122849 10.5801 0.00036732H13.6714C14.5344 0.0164496 15.3626 0.342462 16.005 0.918841C16.6474 1.49522 17.061 2.28348 17.1701 3.1396H19.5665C20.1707 3.14274 20.7684 3.26486 21.3254 3.49899C21.8825 3.73311 22.3879 4.07467 22.8129 4.50414C23.2379 4.93361 23.5742 5.44259 23.8025 6.00202C24.0308 6.56145 24.1467 7.16037 24.1436 7.76459C24.1436 7.76459 24.0716 8.85493 24.0477 10.3407C24.0455 10.4007 24.0305 10.4596 24.0037 10.5134C23.9768 10.5671 23.9387 10.6145 23.8919 10.6522C23.3288 11.0596 22.7896 11.419 22.6937 11.443C20.6475 12.809 18.3439 13.7427 15.924 14.1868V14.1868C15.8555 14.1839 15.7887 14.1637 15.7301 14.1281C15.6714 14.0925 15.6228 14.0426 15.5885 13.9832L15.4807 13.9951ZM8.84274 3.1396H15.289C15.1938 2.76568 14.9778 2.43369 14.6744 2.19531C14.371 1.95694 13.9974 1.82555 13.6116 1.8216H10.5801C10.1841 1.81211 9.79656 1.93733 9.48095 2.17676C9.16534 2.41619 8.9403 2.75565 8.84274 3.1396V3.1396Z" fill="#99A7C7"/>
</svg>
