<svg width="18" height="14" viewBox="0 0 18 14" fill="none" xmlns="http://www.w3.org/2000/svg">
<path d="M3.70143 13.5021C2.77094 13.5512 1.85899 13.2291 1.16564 12.6067C0.472302 11.9842 0.0541988 11.1121 0.00306393 10.1817V3.6668C-0.0162346 3.20466 0.0557774 2.74325 0.214981 2.30898C0.374185 1.8747 0.617461 1.47608 0.930879 1.13592C1.2443 0.795756 1.6217 0.520725 2.04152 0.326572C2.46133 0.132418 2.91532 0.0229499 3.37748 0.00442527H8.91153C9.8438 -0.0422351 10.7567 0.281587 11.4512 0.90528C12.1457 1.52897 12.5654 2.40194 12.6189 3.33385V9.84873C12.6531 10.7808 12.3176 11.6887 11.6856 12.3746C11.0536 13.0605 10.1762 13.469 9.24448 13.5111H3.70143V13.5021ZM16.1643 11.3425L14.8325 10.6766C14.5911 10.5524 14.3886 10.3641 14.2473 10.1323C14.106 9.90055 14.0314 9.63428 14.0317 9.36282V4.14371C14.0283 3.87162 14.1016 3.60407 14.2433 3.37172C14.3849 3.13937 14.5891 2.95161 14.8325 2.82994L16.1643 2.15506C16.3572 2.05627 16.5727 2.01008 16.7891 2.02114C17.0056 2.0322 17.2153 2.10011 17.3971 2.21804C17.5828 2.33453 17.7356 2.49652 17.8411 2.68865C17.9466 2.88077 18.0013 3.09667 18 3.31586V10.2177C18.0013 10.4369 17.9466 10.6528 17.8411 10.8449C17.7356 11.037 17.5828 11.199 17.3971 11.3155C17.1983 11.443 16.9674 11.5117 16.7312 11.5135C16.5341 11.5148 16.3396 11.4685 16.1643 11.3785V11.3425Z" fill="white"/>
</svg>
