<svg width="18" height="21" viewBox="0 0 18 21" fill="none" xmlns="http://www.w3.org/2000/svg">
<path d="M7.98508 19.6716V17.6716C5.92672 17.4484 4.0222 16.4764 2.6338 14.9405C1.24541 13.4046 0.469998 11.4119 0.455078 9.34155C0.455078 9.07633 0.560435 8.82198 0.747971 8.63444C0.935508 8.44691 1.18986 8.34155 1.45508 8.34155C1.72029 8.34155 1.97465 8.44691 2.16218 8.63444C2.34972 8.82198 2.45508 9.07633 2.45508 9.34155C2.45508 11.0814 3.14622 12.7499 4.37646 13.9802C5.6067 15.2104 7.27526 15.9015 9.01508 15.9015C10.7549 15.9015 12.4235 15.2104 13.6537 13.9802C14.8839 12.7499 15.5751 11.0814 15.5751 9.34155C15.5381 9.19409 15.5353 9.04015 15.5667 8.89143C15.5982 8.74271 15.6632 8.60312 15.7567 8.48327C15.8502 8.36342 15.9698 8.26646 16.1064 8.19978C16.243 8.1331 16.3931 8.09845 16.5451 8.09845C16.6971 8.09845 16.8471 8.1331 16.9837 8.19978C17.1203 8.26646 17.2399 8.36342 17.3335 8.48327C17.427 8.60312 17.4919 8.74271 17.5234 8.89143C17.5549 9.04015 17.552 9.19409 17.5151 9.34155C17.4985 11.4212 16.7147 13.4216 15.314 14.9589C13.9133 16.4962 11.9943 17.4622 9.92508 17.6716V19.6716C9.87089 19.8878 9.746 20.0797 9.57026 20.2168C9.39452 20.354 9.17799 20.4284 8.95508 20.4284C8.73216 20.4284 8.51564 20.354 8.3399 20.2168C8.16415 20.0797 8.03927 19.8878 7.98508 19.6716ZM8.77508 13.8415C7.62841 13.8469 6.52645 13.3971 5.71095 12.591C4.89545 11.7849 4.43301 10.6882 4.42508 9.54155V4.87155C4.43564 3.72572 4.89891 2.63057 5.71384 1.82501C6.52877 1.01945 7.6292 0.568856 8.77508 0.571545H9.13508C10.281 0.568856 11.3814 1.01945 12.1963 1.82501C13.0112 2.63057 13.4745 3.72572 13.4851 4.87155V9.49156C13.4771 10.6382 13.0147 11.7349 12.1992 12.541C11.3837 13.3471 10.2817 13.7969 9.13508 13.7915H8.77508V13.8415Z" fill="white"/>
</svg>
