<svg width="32" height="31" viewBox="0 0 32 31" fill="none" xmlns="http://www.w3.org/2000/svg">
<path d="M15.2375 29.8381L14.8586 29.6171C11.4377 27.5116 8.26068 25.0335 5.38565 22.2282C3.24446 20.1313 1.62256 17.5633 0.649181 14.7288C-0.314446 11.8936 -0.202091 8.80302 0.964916 6.04527C1.52679 4.73769 2.36314 3.56622 3.41732 2.6101C4.47151 1.65398 5.71889 0.935534 7.07495 0.50359C8.44029 0.0639892 9.88205 -0.0872141 11.3089 0.0595458C12.7357 0.206306 14.1165 0.647891 15.3638 1.35622L15.7901 1.60878L16.2164 1.35622C17.4027 0.680853 18.7109 0.246713 20.0657 0.0787222C21.4205 -0.0892688 22.7951 0.0122117 24.1105 0.377353L24.521 0.50359C25.881 0.936226 27.1319 1.65648 28.1889 2.6154C29.2459 3.57432 30.0842 4.74949 30.6468 6.06108C31.8149 8.8241 31.9272 11.92 30.9626 14.7604C29.9642 17.5782 28.3455 20.1357 26.2261 22.244C23.344 25.032 20.1677 27.499 16.7531 29.6014L16.39 29.8381C16.2087 29.9467 16.0014 30.004 15.7901 30.004C15.5788 30.004 15.3714 29.9467 15.1901 29.8381H15.2375ZM7.817 2.69818C6.75899 3.04276 5.78799 3.61197 4.97047 4.36681C4.15295 5.12165 3.50824 6.04432 3.08053 7.07155C2.17764 9.28685 2.10475 11.7537 2.87528 14.0184C3.74095 16.4917 5.15515 18.7371 7.01183 20.5863C9.75515 23.2637 12.7896 25.6256 16.0585 27.6279L15.8374 27.4857L16.5795 27.0279C19.1562 25.366 21.5812 23.4799 23.8263 21.3915L24.6631 20.6021C26.5179 18.7544 27.9272 16.5081 28.7838 14.0341C29.5626 11.7652 29.4896 9.2906 28.5785 7.07155C28.1508 6.04432 27.5061 5.12165 26.6886 4.36681C25.8711 3.61197 24.9001 3.04276 23.842 2.69818C22.6132 2.30938 21.3095 2.21829 20.0386 2.43241C18.7676 2.64652 17.5658 3.15976 16.5321 3.9297C16.337 4.07824 16.0985 4.15867 15.8532 4.15867C15.608 4.15867 15.3695 4.07824 15.1743 3.9297L14.8586 3.70865C13.8452 3.01548 12.6871 2.56274 11.4723 2.3849C10.2575 2.20706 9.01812 2.30877 7.84861 2.68237L7.817 2.69818ZM23.3842 11.2081C23.3296 10.5955 23.0974 10.0122 22.7159 9.52978C22.3345 9.04738 21.8205 8.6869 21.237 8.49253C20.9418 8.40878 20.692 8.21112 20.5425 7.94316C20.3929 7.6752 20.3559 7.35885 20.4397 7.06365C20.5234 6.76844 20.721 6.51858 20.989 6.36906C21.257 6.21953 21.5733 6.18259 21.8685 6.26633V6.26633C22.8937 6.59456 23.7983 7.2201 24.4673 8.06342C25.1364 8.90674 25.5397 9.9298 25.6261 11.0028C25.6481 11.3078 25.5496 11.6092 25.3519 11.8424C25.1541 12.0756 24.8728 12.2219 24.5683 12.25H24.4736C24.1862 12.2514 23.9086 12.1452 23.6953 11.9525C23.4821 11.7597 23.3486 11.4942 23.3211 11.2081H23.3842Z" fill="white"/>
</svg>
