<svg width="13" height="13" viewBox="0 0 13 13" fill="none" xmlns="http://www.w3.org/2000/svg">
<path d="M12.8454 0.118136C12.7466 0.0308377 12.6158 -0.011084 12.4846 0.00251813L4.12751 0.93108C3.89227 0.957114 3.71427 1.15592 3.7143 1.39257V9.66663C3.29351 9.41483 2.81183 9.28299 2.32144 9.28544C1.0414 9.28547 0 10.1184 0 11.1426C0 12.1668 1.0414 12.9997 2.32142 12.9997C3.60143 12.9997 4.64284 12.1673 4.64284 11.1426V4.1319L12.0714 3.30454V8.73668C11.6505 8.48537 11.1688 8.35402 10.6786 8.35688C9.39851 8.35688 8.35714 9.18982 8.35714 10.214C8.35714 11.2382 9.39854 12.0712 10.6786 12.0712C11.9586 12.0712 13 11.2387 13 10.214V0.464038C13 0.331988 12.9438 0.206196 12.8454 0.118136Z" fill="white"/>
</svg>
