<svg width="27" height="30" viewBox="0 0 27 30" fill="none" xmlns="http://www.w3.org/2000/svg">
<path d="M21.8334 9.33333C24.1346 9.33333 26.0001 7.46785 26.0001 5.16667C26.0001 2.86548 24.1346 1 21.8334 1C19.5322 1 17.6667 2.86548 17.6667 5.16667C17.6667 7.46785 19.5322 9.33333 21.8334 9.33333Z" stroke="white" stroke-width="1.8" stroke-linecap="round" stroke-linejoin="round"/>
<path d="M5.16667 19.0555C7.46785 19.0555 9.33333 17.19 9.33333 14.8888C9.33333 12.5876 7.46785 10.7222 5.16667 10.7222C2.86548 10.7222 1 12.5876 1 14.8888C1 17.19 2.86548 19.0555 5.16667 19.0555Z" stroke="white" stroke-width="1.8" stroke-linecap="round" stroke-linejoin="round"/>
<path d="M21.8334 28.7777C24.1346 28.7777 26.0001 26.9122 26.0001 24.611C26.0001 22.3098 24.1346 20.4443 21.8334 20.4443C19.5322 20.4443 17.6667 22.3098 17.6667 24.611C17.6667 26.9122 19.5322 28.7777 21.8334 28.7777Z" stroke="white" stroke-width="1.8" stroke-linecap="round" stroke-linejoin="round"/>
<path d="M8.76392 16.9863L18.25 22.5141" stroke="white" stroke-width="1.8" stroke-linecap="round" stroke-linejoin="round"/>
<path d="M18.2361 7.26367L8.76392 12.7914" stroke="white" stroke-width="1.8" stroke-linecap="round" stroke-linejoin="round"/>
</svg>
