<?xml version="1.0"?>
<svg xmlns="http://www.w3.org/2000/svg" xmlns:xlink="http://www.w3.org/1999/xlink" xmlns:svgjs="http://svgjs.com/svgjs" version="1.1" width="512px" height="512px" x="0" y="0" viewBox="0 0 24 24" style="enable-background:new 0 0 512 512" xml:space="preserve" class=""><g><defs><style>.cls-1{fill:rgb(0,0,0);}</style></defs><path class="" d="M11.74,15.816a.367.367,0,0,0,.52,0L14.372,13.7a.368.368,0,0,0-.26-.628H13v-5a1,1,0,1,0-2,0v5H9.888a.368.368,0,0,0-.26.628Z" fill="#ffffff" data-original="#000000"/><path class="" d="M19.5,14a.5.5,0,0,0-.5.5v2A2.5,2.5,0,0,1,16.5,19h-9A2.5,2.5,0,0,1,5,16.5v-2a.5.5,0,0,0-1,0v2A3.5,3.5,0,0,0,7.5,20h9A3.5,3.5,0,0,0,20,16.5v-2A.5.5,0,0,0,19.5,14Z" fill="#ffffff" data-original="#000000"/></g></svg>
