<?xml version="1.0"?>
<svg xmlns="http://www.w3.org/2000/svg" xmlns:xlink="http://www.w3.org/1999/xlink" xmlns:svgjs="http://svgjs.com/svgjs" version="1.1" width="512px" height="512px" x="0" y="0" viewBox="0 0 64 64" style="enable-background:new 0 0 512 512" xml:space="preserve" class=""><g><path d="m4 35c18.621 4.21 20 23 20 23s1.379-18.79 20-23c-18.621-4.21-20-23-20-23s-1.379 18.79-20 23z" fill="#ffffff" data-original="#000000" class=""/><path d="m38 48c10.241 2.2 11 12 11 12s.759-9.8 11-12c-10.241-2.2-11-12-11-12s-.759 9.8-11 12z" fill="#ffffff" data-original="#000000" class=""/><path d="m31 16c10.241 2.2 11 12 11 12s.759-9.8 11-12c-10.241-2.2-11-12-11-12s-.759 9.8-11 12z" fill="#ffffff" data-original="#000000" class=""/></g></svg>
