<?xml version="1.0"?>
<svg xmlns="http://www.w3.org/2000/svg" xmlns:xlink="http://www.w3.org/1999/xlink" xmlns:svgjs="http://svgjs.com/svgjs" version="1.1" width="512px" height="512px" x="0" y="0" viewBox="0 0 512 512" style="enable-background:new 0 0 512 512" xml:space="preserve"><g><g id="_28" data-name="28"><path d="m422.507 4h-331.807a86.8 86.8 0 0 0 -86.7 86.7v332.99a84.405 84.405 0 0 0 84.31 84.31h167.89a251.554 251.554 0 0 0 251.8-251.8v-166.707a85.591 85.591 0 0 0 -85.493-85.493zm-334.197 472a52.369 52.369 0 0 1 -52.31-52.31v-332.99a54.766 54.766 0 0 1 54.7-54.7h331.8a53.554 53.554 0 0 1 53.5 53.493v166.707a222.211 222.211 0 0 1 -2.285 31.7h-101.505a84.406 84.406 0 0 0 -84.31 84.31v6.847a151.835 151.835 0 0 1 -31.9 3.381 149.886 149.886 0 0 1 -106.686-44.19 16 16 0 0 0 -22.628 22.627 181.679 181.679 0 0 0 129.314 53.563 184.185 184.185 0 0 0 31.9-2.8v62.072a222.19 222.19 0 0 1 -31.7 2.29zm231.59-9.363v-94.427a52.369 52.369 0 0 1 52.31-52.31h94.428a219.173 219.173 0 0 1 -146.738 146.737z" fill="#ffffff" data-original="#000000"/><path d="m138 264.433a16 16 0 0 0 16-16v-30.746a16 16 0 0 0 -32 0v30.746a16 16 0 0 0 16 16z" fill="#ffffff" data-original="#000000"/><path d="m374 264.433a16 16 0 0 0 16-16v-30.746a16 16 0 0 0 -32 0v30.746a16 16 0 0 0 16 16z" fill="#ffffff" data-original="#000000"/></g></g></svg>
