<svg width="21" height="20" viewBox="0 0 21 20" fill="none" xmlns="http://www.w3.org/2000/svg">
<path d="M19.42 0.571547C19.1702 0.326686 18.8604 0.151655 18.5218 0.0639179C18.1831 -0.0238187 17.8274 -0.0211907 17.49 0.0715473L1.40001 4.72154C1.0492 4.81595 0.732426 5.00793 0.486379 5.27522C0.240332 5.54251 0.0751587 5.87414 0.0100605 6.23155C-0.0284837 6.63786 0.0441733 7.04698 0.220327 7.41514C0.39648 7.78331 0.669495 8.09663 1.01006 8.32155L6.01006 11.3915C6.26026 11.5469 6.55576 11.6127 6.84826 11.5782C7.14075 11.5437 7.41289 11.4109 7.62005 11.2015L13.3801 5.44154C13.5165 5.31646 13.6949 5.24705 13.8801 5.24705C14.0652 5.24705 14.2436 5.31646 14.3801 5.44154C14.5205 5.58217 14.5994 5.77279 14.5994 5.97154C14.5994 6.17029 14.5205 6.36091 14.3801 6.50154L8.74004 12.2615C8.53224 12.4694 8.39974 12.7405 8.36351 13.0322C8.32729 13.3238 8.38939 13.6192 8.54003 13.8715L11.62 18.9215C11.8189 19.2403 12.1035 19.4966 12.4413 19.6611C12.7791 19.8256 13.1564 19.8916 13.53 19.8515C13.9074 19.8075 14.2634 19.653 14.5533 19.4075C14.8433 19.1621 15.0543 18.8365 15.16 18.4715L19.93 2.47154C20.0253 2.13592 20.0312 1.78121 19.947 1.44264C19.8627 1.10407 19.6915 0.793437 19.4501 0.541549" fill="white"/>
</svg>
