<svg width="19" height="20" viewBox="0 0 19 20" fill="none" xmlns="http://www.w3.org/2000/svg">
<path fill-rule="evenodd" clip-rule="evenodd" d="M12.3212 11.9384C12.2203 12.1084 12.1047 12.2722 11.9747 12.4278C11.9194 12.4938 11.9281 12.5925 11.9944 12.6478C12.0606 12.7031 12.1591 12.6941 12.2144 12.6281C12.3553 12.4594 12.4803 12.2825 12.59 12.0984C12.6341 12.0244 12.6097 11.9284 12.5356 11.8844C12.4616 11.84 12.3656 11.8644 12.3212 11.9384ZM12.7622 10.8275C12.7187 11.0219 12.66 11.2138 12.5859 11.4006C12.5541 11.4809 12.5934 11.5719 12.6737 11.6034C12.7537 11.6353 12.8447 11.5959 12.8766 11.5159C12.9569 11.3134 13.0203 11.1059 13.0672 10.8953C13.0859 10.8113 13.0328 10.7278 12.9484 10.7091C12.8644 10.6903 12.7806 10.7434 12.7622 10.8275V10.8275ZM12.8353 9.63407C12.8544 9.83344 12.8578 10.0338 12.8456 10.2338C12.8403 10.3197 12.9059 10.3941 12.9922 10.3991C13.0781 10.4044 13.1522 10.3388 13.1575 10.2528C13.1709 10.0366 13.1672 9.81969 13.1462 9.60407C13.1381 9.51813 13.0616 9.45532 12.9759 9.46344C12.89 9.47157 12.8269 9.54813 12.8353 9.63407ZM12.535 8.47688C12.6156 8.66126 12.6809 8.85063 12.7309 9.04344C12.7525 9.12688 12.8378 9.17688 12.9216 9.15532C13.005 9.13376 13.055 9.04844 13.0334 8.96501C12.9794 8.75626 12.9084 8.55094 12.8212 8.35157C12.7866 8.27251 12.6944 8.23625 12.6153 8.27094C12.5362 8.30563 12.5003 8.39782 12.535 8.47688V8.47688ZM11.8878 7.47188C12.0231 7.62313 12.1444 7.78251 12.2516 7.94876C12.2981 8.02126 12.395 8.04219 12.4675 7.99532C12.54 7.94875 12.5609 7.85188 12.5141 7.77938C12.3984 7.59969 12.2672 7.42688 12.1203 7.26344C12.0628 7.19907 11.9641 7.19376 11.8997 7.25126C11.8356 7.30876 11.8303 7.40782 11.8878 7.47188V7.47188Z" fill="#3C3F45"/>
<path fill-rule="evenodd" clip-rule="evenodd" d="M9.0625 4.6875C6.13031 4.6875 3.75 7.06781 3.75 10C3.75 12.9322 6.13031 15.3125 9.0625 15.3125C11.9947 15.3125 14.375 12.9322 14.375 10C14.375 7.06781 11.9947 4.6875 9.0625 4.6875ZM9.375 5.32281C11.8166 5.48375 13.75 7.51781 13.75 10C13.75 12.4822 11.8166 14.5162 9.375 14.6772V5.32281Z" fill="#3C3F45"/>
<path fill-rule="evenodd" clip-rule="evenodd" d="M8.17531 1.82469V3.26156C8.17531 3.75125 8.57281 4.14875 9.0625 4.14875C9.55218 4.14875 9.94968 3.75125 9.94968 3.26156V1.82469C9.94968 1.335 9.55218 0.9375 9.0625 0.9375C8.57281 0.9375 8.17531 1.335 8.17531 1.82469V1.82469Z" fill="#3C3F45"/>
<path fill-rule="evenodd" clip-rule="evenodd" d="M14.2159 3.59187L13.2 4.60781C12.8537 4.95406 12.8537 5.51625 13.2 5.8625C13.5462 6.20875 14.1084 6.20875 14.4547 5.8625L15.4706 4.84656C15.8169 4.50031 15.8169 3.93812 15.4706 3.59187C15.1244 3.24562 14.5622 3.24562 14.2159 3.59187Z" fill="#3C3F45"/>
<path fill-rule="evenodd" clip-rule="evenodd" d="M17.2378 9.11281H15.8009C15.3113 9.11281 14.9138 9.51031 14.9138 10C14.9138 10.4897 15.3113 10.8872 15.8009 10.8872H17.2378C17.7275 10.8872 18.125 10.4897 18.125 10C18.125 9.51031 17.7275 9.11281 17.2378 9.11281Z" fill="#3C3F45"/>
<path fill-rule="evenodd" clip-rule="evenodd" d="M15.4706 15.1534L14.4547 14.1375C14.1084 13.7912 13.5462 13.7912 13.2 14.1375C12.8537 14.4837 12.8537 15.0459 13.2 15.3922L14.2159 16.4081C14.5622 16.7544 15.1244 16.7544 15.4706 16.4081C15.8169 16.0619 15.8169 15.4997 15.4706 15.1534Z" fill="#3C3F45"/>
<path fill-rule="evenodd" clip-rule="evenodd" d="M9.94968 18.1753V16.7384C9.94968 16.2488 9.55218 15.8513 9.0625 15.8513C8.57281 15.8513 8.17531 16.2488 8.17531 16.7384V18.1753C8.17531 18.665 8.57281 19.0625 9.0625 19.0625C9.55218 19.0625 9.94968 18.665 9.94968 18.1753Z" fill="#3C3F45"/>
<path fill-rule="evenodd" clip-rule="evenodd" d="M3.90906 16.4081L4.925 15.3922C5.27125 15.0459 5.27125 14.4837 4.925 14.1375C4.57875 13.7912 4.01656 13.7912 3.67031 14.1375L2.65437 15.1534C2.30812 15.4997 2.30812 16.0619 2.65437 16.4081C3.00062 16.7544 3.56281 16.7544 3.90906 16.4081Z" fill="#3C3F45"/>
<path fill-rule="evenodd" clip-rule="evenodd" d="M0.887188 10.8872H2.32406C2.81375 10.8872 3.21125 10.4897 3.21125 10C3.21125 9.51031 2.81375 9.11281 2.32406 9.11281H0.887188C0.3975 9.11281 0 9.51031 0 10C0 10.4897 0.3975 10.8872 0.887188 10.8872V10.8872Z" fill="#3C3F45"/>
<path fill-rule="evenodd" clip-rule="evenodd" d="M2.65437 4.84656L3.67031 5.8625C4.01656 6.20875 4.57875 6.20875 4.925 5.8625C5.27125 5.51625 5.27125 4.95406 4.925 4.60781L3.90906 3.59187C3.56281 3.24562 3.00062 3.24562 2.65437 3.59187C2.30812 3.93812 2.30812 4.50031 2.65437 4.84656Z" fill="#3C3F45"/>
</svg>
