<svg width="16" height="16" viewBox="0 0 16 16" fill="none" xmlns="http://www.w3.org/2000/svg">
<path d="M8 0C3.5888 0 0 3.5888 0 8C0 12.4112 3.5888 16 8 16C12.4112 16 16 12.4112 16 8C16 3.5888 12.4112 0 8 0ZM8.8 12.8H7.2V11.2H8.8V12.8ZM9.5808 8.892C9.424 9.0184 9.2728 9.1392 9.1528 9.2592C8.8264 9.5848 8.8008 9.8808 8.8 9.8936V10H7.2V9.8664C7.2 9.772 7.2232 8.9248 8.0208 8.1272C8.1768 7.9712 8.3704 7.8128 8.5736 7.648C9.1608 7.172 9.5464 6.8248 9.5464 6.3464C9.5472 5.4936 8.8528 4.8 8 4.8C7.1472 4.8 6.4528 5.4936 6.4528 6.3472H4.8528C4.8528 4.612 6.2648 3.2 8 3.2C9.7352 3.2 11.1472 4.612 11.1472 6.3472C11.1472 7.6248 10.204 8.3872 9.5808 8.892Z" fill="#3C3F45"/>
</svg>
