<svg width="16" height="16" viewBox="0 0 16 16" fill="none" xmlns="http://www.w3.org/2000/svg">
<path fill-rule="evenodd" clip-rule="evenodd" d="M13.4987 0.0218094C12.7818 0.077739 12.0104 0.201228 11.3409 0.367297C9.30553 0.87207 7.71561 1.78754 6.13411 3.36533C5.29274 4.20471 4.61508 5.08398 4.05361 6.06486L3.84155 6.43526L6.70468 9.29745L9.56778 12.1597L9.9383 11.9477C11.4517 11.0819 12.8513 9.83036 13.9199 8.38717C14.9136 7.04517 15.547 5.4823 15.842 3.64416C15.9702 2.84473 15.9993 2.45667 15.9999 1.53644C16.0005 0.688368 15.9983 0.656199 15.9286 0.50476C15.8343 0.30005 15.7009 0.165963 15.5039 0.0777702C15.3528 0.0101796 15.3016 0.00586531 14.5933 0.000581862C14.1805 -0.00251318 13.6879 0.00705331 13.4987 0.0218094ZM11.2545 2.70887C12.7021 2.89685 13.6252 4.31469 13.2129 5.71665C13.0766 6.17997 12.6733 6.71469 12.2543 6.98755C11.4066 7.53972 10.2867 7.48026 9.49288 6.8409C8.75634 6.24771 8.44693 5.18277 8.75312 4.29474C8.88691 3.90674 9.01769 3.70269 9.3394 3.38002C9.73487 2.98335 10.1398 2.78046 10.6745 2.71105C10.9478 2.6756 10.9969 2.67541 11.2545 2.70887ZM10.6998 3.64954C10.2858 3.72979 9.87269 4.06068 9.68856 4.45953C9.57857 4.69776 9.54014 5.10499 9.60378 5.35797C9.80317 6.15095 10.6138 6.60811 11.3936 6.36733C12.0535 6.16355 12.4791 5.47314 12.359 4.80124C12.2184 4.01497 11.4754 3.49923 10.6998 3.64954ZM3.29887 4.36581C2.93498 4.39572 2.58403 4.43018 2.51898 4.4424C2.3452 4.47498 2.07043 4.62338 1.92896 4.76106C1.76821 4.9175 0.103678 7.43364 0.0428203 7.61219C-0.0458698 7.87245 0.0327192 8.21047 0.238902 8.45541C0.387011 8.63136 0.587376 8.69692 1.31131 8.80625C1.67749 8.86155 1.98428 8.89966 1.993 8.89091C2.00176 8.88215 2.04301 8.72418 2.08466 8.53982C2.29454 7.61134 2.6927 6.58954 3.19592 5.68804C3.38268 5.35347 3.58808 5.02905 4.01824 4.38919C4.07447 4.30556 4.07447 4.30334 4.01824 4.30731C3.98647 4.30956 3.66273 4.33589 3.29887 4.36581ZM3.3197 7.64054C3.07774 8.30648 2.86436 9.20938 2.88879 9.46374C2.91706 9.75774 2.96275 9.81054 4.60849 11.4509C6.0866 12.9242 6.19093 13.0213 6.34933 13.0727C6.5541 13.139 6.72298 13.1272 7.24411 13.0102C7.60697 12.9287 8.50879 12.6487 8.60448 12.5879C8.64163 12.5643 8.11109 12.0178 6.0558 9.96251C4.62825 8.53498 3.45098 7.36699 3.43966 7.36699C3.42834 7.36699 3.37436 7.49011 3.3197 7.64054ZM1.75401 10.802C1.67755 10.8515 1.26853 11.2419 0.845097 11.6696C0.260949 12.2597 0.0659623 12.476 0.0367221 12.5665C-0.0712947 12.901 0.232804 13.233 0.587783 13.168C0.692547 13.1488 0.816263 13.0384 1.54689 12.312C2.00826 11.8534 2.40581 11.4401 2.43035 11.3937C2.49881 11.2641 2.4868 11.0517 2.40399 10.9278C2.2546 10.7042 1.98572 10.6522 1.75401 10.802ZM11.3396 12.1698C10.6683 12.6315 9.8093 13.1012 9.09447 13.3975C8.67926 13.5696 7.91907 13.8123 7.47084 13.9159C7.18341 13.9824 7.10354 14.0121 7.10407 14.0525C7.10444 14.0809 7.15213 14.4028 7.21005 14.7677C7.29583 15.308 7.33067 15.4573 7.39772 15.5717C7.59033 15.9002 8.02459 16.0692 8.38557 15.9561C8.56139 15.901 11.0768 14.2418 11.2425 14.0717C11.3653 13.9455 11.5179 13.6752 11.5565 13.5155C11.5772 13.4297 11.701 11.9535 11.6886 11.9406C11.6852 11.937 11.5281 12.0402 11.3396 12.1698ZM3.20827 12.1675C3.15576 12.1934 2.4215 12.907 1.5766 13.7534C-0.0832723 15.4161 -0.0343926 15.357 0.0180834 15.6365C0.0449469 15.7798 0.220294 15.9551 0.363587 15.9819C0.64323 16.0344 0.584093 16.0833 2.24788 14.4234C3.09478 13.5784 3.80896 12.8423 3.83498 12.7875C4.02531 12.3865 3.60569 11.9714 3.20827 12.1675ZM4.58591 13.585C4.53431 13.6175 4.12372 14.0149 3.67355 14.4681C2.96156 15.1849 2.8521 15.3078 2.83293 15.4124C2.7868 15.664 2.96581 15.9362 3.20718 15.9815C3.4345 16.0241 3.50824 15.9699 4.33181 15.1552C4.75966 14.7319 5.15016 14.323 5.19964 14.2465C5.30418 14.0849 5.31525 13.9367 5.23476 13.7765C5.11848 13.5452 4.79919 13.4509 4.58591 13.585Z" fill="#3C3F45"/>
</svg>
