<svg width="16" height="16" viewBox="0 0 16 16" fill="none" xmlns="http://www.w3.org/2000/svg">
<path fill-rule="evenodd" clip-rule="evenodd" d="M7.54568 0.0147147C5.43151 0.141412 3.48622 1.39764 2.41817 3.32594C2.13902 3.82992 1.87623 4.61471 1.73377 5.36976C1.71789 5.45404 1.6988 5.45862 1.36367 5.45862C1.10278 5.45862 0.953047 5.48006 0.791151 5.54061C0.524721 5.64025 0.233916 5.91213 0.0973432 6.18926L0 6.38673V7.98624V9.58575L0.0973432 9.78322C0.233916 10.0604 0.524721 10.3322 0.791151 10.4319C0.986746 10.505 1.09724 10.5139 1.81689 10.5139C2.35808 10.5139 2.65754 10.4983 2.72703 10.4667C2.94542 10.3672 2.94321 10.393 2.94321 7.95287V5.70396L2.8286 5.58129C2.76555 5.51383 2.68772 5.45862 2.65564 5.45862C2.60488 5.45862 2.60405 5.42655 2.64917 5.21178C2.8749 4.13719 3.36249 3.24885 4.16241 2.45478C4.65584 1.96497 5.04194 1.68626 5.60988 1.40984C6.3938 1.02829 7.1055 0.866879 8 0.867668C8.94285 0.868537 9.62066 1.0288 10.4702 1.45186C11.0146 1.72295 11.4704 2.06304 11.9394 2.5481C12.6569 3.29024 13.1065 4.1394 13.3494 5.21178C13.3989 5.43026 13.3985 5.45862 13.3457 5.45862C13.3129 5.45862 13.2344 5.51383 13.1714 5.58129L13.0568 5.70396V7.95287C13.0568 10.4504 13.0501 10.3845 13.3132 10.4796C13.4495 10.5289 13.4519 10.5335 13.4519 10.7536C13.4519 11.2881 13.2406 12.061 12.9329 12.6522C12.4936 13.4964 11.7486 14.2286 10.8928 14.6572C10.6376 14.785 10.0546 14.9892 9.82716 15.0304C9.7005 15.0534 9.69877 15.0517 9.69877 14.9017C9.69877 14.5452 9.4803 14.1963 9.13873 14.0071C8.93389 13.8936 8.91168 13.8903 8.28705 13.8773C7.55164 13.8621 7.36632 13.9014 7.10041 14.129C6.46965 14.6687 6.69005 15.7203 7.48215 15.9505C7.77529 16.0357 9.44774 16.0046 9.8963 15.9056C10.9747 15.6675 11.8598 15.2049 12.6139 14.4853C13.1154 14.0066 13.4471 13.5561 13.7495 12.9428C14.1074 12.2168 14.3204 11.4032 14.3208 10.7607L14.321 10.5139H14.6553C15.0908 10.5139 15.3604 10.4161 15.6167 10.1653C15.7205 10.0637 15.8491 9.89183 15.9027 9.78322L16 9.58575V7.98624V6.38673L15.9027 6.18926C15.7661 5.91213 15.4753 5.64025 15.2088 5.54061C15.047 5.48006 14.8972 5.45862 14.6363 5.45862C14.3017 5.45862 14.282 5.45392 14.2647 5.36976C14.1448 4.78734 14.0974 4.59777 13.9958 4.29354C13.4212 2.57259 12.0194 1.09697 10.3331 0.437854C9.42424 0.0826051 8.57193 -0.0467776 7.54568 0.0147147ZM7.19012 1.72252C6.72379 1.81201 6.35899 1.93764 5.91577 2.16138C4.48261 2.88483 3.55986 4.21945 3.38038 5.8284C3.32685 6.30841 3.32595 8.83939 3.37916 9.30929C3.43874 9.83524 3.59159 10.3607 3.82716 10.8496C5.03933 13.3648 8.19417 14.2431 10.5359 12.7172C11.6878 11.9665 12.4635 10.6987 12.6208 9.30929C12.6741 8.83939 12.6731 6.30841 12.6196 5.8284C12.4349 4.1721 11.4711 2.81876 9.96516 2.10115C9.32571 1.79641 8.9005 1.70024 8.11852 1.68346C7.68107 1.67406 7.37572 1.68689 7.19012 1.72252ZM7.10526 10.2938C7.41314 10.5328 7.63718 10.6126 8 10.6126C8.36282 10.6126 8.58686 10.5328 8.89474 10.2938C9.1793 10.0729 9.36521 10.0559 9.54378 10.2344C9.63528 10.3258 9.65926 10.3848 9.65926 10.5181C9.65926 10.6673 9.63793 10.7068 9.47141 10.8667C9.24674 11.0824 8.88948 11.2789 8.57118 11.3618C8.27093 11.4399 7.70133 11.4391 7.39619 11.3601C6.58042 11.1488 6.10777 10.5827 6.45622 10.2344C6.63479 10.0559 6.8207 10.0729 7.10526 10.2938Z" fill="#3C3F45"/>
</svg>
