<svg width="16" height="16" viewBox="0 0 16 16" fill="none" xmlns="http://www.w3.org/2000/svg">
<path d="M8.12118 15.9346H7.01098C6.57379 15.9475 6.14929 15.7867 5.83043 15.4873C5.51157 15.1879 5.32434 14.7744 5.30974 14.3372V14.2973C5.29338 13.9087 5.12849 13.5413 4.84907 13.2708C4.56966 13.0003 4.19706 12.8474 3.80819 12.8436C3.55598 12.8352 3.30659 12.899 3.08935 13.0273C2.82932 13.185 2.53084 13.2679 2.22674 13.267C1.936 13.2713 1.64914 13.1999 1.39429 13.0599C1.13945 12.9198 0.92539 12.716 0.77311 12.4683L0.21402 11.5098C0.0738185 11.267 0 10.9915 0 10.7111C0 10.4307 0.0738185 10.1552 0.21402 9.91241C0.369551 9.6474 0.596507 9.43151 0.868951 9.28942C1.08216 9.16804 1.25874 8.99146 1.38012 8.77825C1.57435 8.44129 1.6271 8.04107 1.52679 7.6653C1.42649 7.28952 1.18131 6.96883 0.844991 6.7735C0.654985 6.67196 0.487488 6.53303 0.352565 6.36508C0.217642 6.19712 0.118087 6.00362 0.0598881 5.79619C0.00168939 5.58876 -0.0139549 5.3717 0.0139057 5.15808C0.0417662 4.94445 0.112552 4.73866 0.222003 4.5531V4.51318L0.77311 3.5707C1.00257 3.19055 1.37096 2.91462 1.8003 2.80132C2.22964 2.68802 2.68621 2.74626 3.07337 2.96369C3.29421 3.08315 3.54113 3.14624 3.79221 3.14739C4.05813 3.14561 4.31941 3.07748 4.55233 2.94916C4.78525 2.82085 4.98245 2.63641 5.12604 2.41258C5.25441 2.20118 5.31825 1.9569 5.30974 1.70972C5.2946 1.41002 5.37578 1.11335 5.54137 0.863096C5.70092 0.624074 5.91546 0.426807 6.167 0.287833C6.41855 0.14886 6.69975 0.0722328 6.98702 0.0643921H8.12118C8.41065 0.0668412 8.69498 0.141098 8.94868 0.280496C9.20239 0.419895 9.41754 0.620075 9.57483 0.863096C9.7323 1.11631 9.80762 1.41202 9.79047 1.70972C9.7809 1.95811 9.84782 2.20344 9.98216 2.41258C10.1258 2.63641 10.323 2.82085 10.5559 2.94916C10.7888 3.07748 11.0501 3.14561 11.316 3.14739C11.5671 3.14624 11.814 3.08315 12.0348 2.96369C12.4203 2.7446 12.8763 2.68544 13.305 2.79894C13.7336 2.91244 14.1006 3.18954 14.3271 3.5707L14.8702 4.51318C14.9845 4.69374 15.0614 4.8954 15.0964 5.10621C15.1313 5.31702 15.1236 5.5327 15.0737 5.74048C15.0238 5.94826 14.9327 6.14393 14.8059 6.31588C14.679 6.48783 14.5189 6.63258 14.3351 6.74155H14.2712C14.1055 6.83808 13.9605 6.96644 13.8446 7.11924C13.7287 7.27204 13.6442 7.44626 13.596 7.63187C13.5477 7.81747 13.5367 8.01079 13.5634 8.20068C13.5902 8.39058 13.6543 8.5733 13.752 8.73831C13.8657 8.95462 14.0407 9.13248 14.2552 9.24948C14.5249 9.39828 14.7529 9.61251 14.9181 9.87247C15.0538 10.1168 15.125 10.3917 15.125 10.6712C15.125 10.9507 15.0538 11.2255 14.9181 11.4699L14.3431 12.4283C14.2331 12.6194 14.0864 12.7869 13.9114 12.921C13.7364 13.0551 13.5366 13.1532 13.3235 13.2096C13.1103 13.266 12.8881 13.2797 12.6697 13.2498C12.4513 13.2199 12.2409 13.147 12.0508 13.0353V13.0353C11.8336 12.9069 11.5842 12.8432 11.332 12.8516C10.9417 12.8533 10.5671 13.0053 10.286 13.2761C10.0049 13.5468 9.83885 13.9154 9.82242 14.3053C9.82042 14.5248 9.77451 14.7417 9.6874 14.9432C9.60029 15.1447 9.47374 15.3267 9.3152 15.4785C9.15667 15.6303 8.96936 15.7489 8.7643 15.8273C8.55924 15.9056 8.34057 15.9421 8.12118 15.9346V15.9346ZM7.57007 5.69525C6.96348 5.68886 6.37909 5.92316 5.94493 6.34683C5.51077 6.77051 5.26226 7.34902 5.25384 7.95559C5.25347 8.25386 5.31342 8.54914 5.43009 8.82365C5.54676 9.09816 5.71773 9.34625 5.93273 9.55299C6.36056 9.97053 6.93238 10.2078 7.53014 10.2159C8.12827 10.2245 8.7054 9.99556 9.13507 9.57937C9.56474 9.16317 9.81192 8.59363 9.82242 7.99552C9.83031 7.69171 9.77551 7.38952 9.66145 7.10782C9.5474 6.82611 9.37653 6.57093 9.1595 6.35818C8.72326 5.93372 8.1388 5.69593 7.53014 5.69525H7.57007Z" fill="#3C3F45"/>
</svg>
