<svg width="16" height="16" viewBox="0 0 16 16" fill="none" xmlns="http://www.w3.org/2000/svg">
<path d="M12.6949 9.37796C12.5899 9.4795 12.5116 9.60546 12.4671 9.74461C12.4225 9.88375 12.4131 10.0317 12.4397 10.1754L13.1494 14.0988C13.1766 14.262 13.1574 14.4296 13.0942 14.5824C13.0309 14.7353 12.9261 14.8674 12.7916 14.9637C12.6571 15.06 12.4983 15.1167 12.3332 15.1273C12.1681 15.138 12.0033 15.1021 11.8576 15.0239L8.3249 13.1897C8.20074 13.1276 8.06489 13.0923 7.92618 13.0861H7.71088C7.63623 13.1003 7.5638 13.1245 7.49555 13.1579L3.96287 15.0079C3.78801 15.0958 3.58995 15.1265 3.39669 15.0956C3.16961 15.0529 2.96824 14.923 2.83562 14.7338C2.70301 14.5445 2.64965 14.3109 2.68695 14.0829L3.39669 10.1595C3.42256 10.0158 3.4128 9.86799 3.36832 9.72897C3.32383 9.58995 3.24596 9.46396 3.1415 9.36201L0.262711 6.57095C0.144683 6.45688 0.0617301 6.31145 0.0235842 6.1518C-0.0145616 5.99216 -0.00630309 5.82494 0.0474093 5.66984C0.101077 5.51559 0.195304 5.37864 0.320193 5.27339C0.445082 5.16815 0.596032 5.0985 0.757148 5.07176L4.74438 4.49759C4.89288 4.48227 5.03508 4.42963 5.15777 4.34458C5.28047 4.25953 5.37965 4.14483 5.44611 4.01115L7.19252 0.430615C7.23378 0.350749 7.28764 0.278045 7.35202 0.215302L7.42378 0.159487L7.55138 0.0558149H7.63908L7.77466 0H8.1096C8.25709 0.015232 8.39846 0.0669386 8.52098 0.15047C8.64349 0.234002 8.74327 0.346722 8.81133 0.47846L10.5817 4.04304C10.6433 4.17241 10.736 4.28451 10.8515 4.36938C10.967 4.45425 11.1017 4.50925 11.2436 4.52949L15.2308 5.10365C15.3951 5.12686 15.5498 5.195 15.6778 5.30053C15.8059 5.40606 15.9023 5.54489 15.9565 5.70173C16.0082 5.85831 16.014 6.02646 15.973 6.1862C15.932 6.34594 15.846 6.49055 15.7252 6.60285L12.6949 9.37796Z" fill="#3C3F45"/>
</svg>
