<svg xmlns="http://www.w3.org/2000/svg" version="1.1" xmlns:xlink="http://www.w3.org/1999/xlink" xmlns:svgjs="http://svgjs.com/svgjs" width="512" height="512" x="0" y="0" viewBox="0 0 512 512" style="enable-background:new 0 0 512 512" xml:space="preserve"><g>
<g>
	<g>
		<path d="M330.667,149.333c-64.704,0-117.333,52.629-117.333,117.333S265.963,384,330.667,384S448,331.371,448,266.667
			S395.371,149.333,330.667,149.333z M402.219,231.552l-85.333,85.333c-2.091,2.069-4.821,3.115-7.552,3.115
			c-2.731,0-5.461-1.045-7.552-3.115l-42.667-42.667c-4.16-4.16-4.16-10.923,0-15.083c4.16-4.16,10.923-4.16,15.083,0l35.115,35.115
			l77.781-77.781c4.16-4.16,10.923-4.16,15.083,0C406.336,220.629,406.379,227.371,402.219,231.552z" fill="#ff9200" data-original="#000000"></path>
	</g>
</g>
<g>
	<g>
		<path d="M373.333,0H138.667C97.493,0,64,33.493,64,74.667v426.667c0,4.309,2.603,8.213,6.592,9.856
			c1.301,0.555,2.709,0.811,4.075,0.811c2.773,0,5.504-1.088,7.552-3.115l120.491-120.512
			c47.829,47.211,113.92,112.789,118.4,117.675c1.323,2.667,3.691,4.715,6.677,5.547c4.565,1.301,9.493-0.64,12.011-4.715
			c1.109-1.792,1.621-3.883,1.536-5.952V416c0-5.888-4.779-10.667-10.667-10.667C254.208,405.333,192,343.125,192,266.667
			S254.208,128,330.667,128c5.888,0,10.667-4.779,10.667-10.667v-64c0-17.643,14.357-32,32-32c5.888,0,10.667-4.779,10.667-10.667
			S379.221,0,373.333,0z" fill="#ff9200" data-original="#000000"></path>
	</g>
</g>
<g>
	<g>
		<path d="M373.333,0H320c-5.888,0-10.667,4.779-10.667,10.667v64c0,5.888,4.779,10.667,10.667,10.667h21.333v-32
			c0-17.643,14.357-32,32-32C379.221,21.333,384,26.112,384,32s-4.779,10.667-10.667,10.667c-5.867,0-10.667,4.779-10.667,10.667v32
			H416c5.888,0,10.667-4.779,10.667-10.667V53.333C426.667,23.936,402.752,0,373.333,0z" fill="#ff9200" data-original="#000000"></path>
	</g>
</g>
<g>
</g>
<g>
</g>
<g>
</g>
<g>
</g>
<g>
</g>
<g>
</g>
<g>
</g>
<g>
</g>
<g>
</g>
<g>
</g>
<g>
</g>
<g>
</g>
<g>
</g>
<g>
</g>
<g>
</g>
</g></svg>