<svg xmlns="http://www.w3.org/2000/svg" version="1.1" xmlns:xlink="http://www.w3.org/1999/xlink" xmlns:svgjs="http://svgjs.com/svgjs" width="512" height="512" x="0" y="0" viewBox="0 0 512 512" style="enable-background:new 0 0 512 512" xml:space="preserve" class=""><g><path clip-rule="evenodd" d="m444.656 45.94v438.187c0 4.723-2.521 8.766-6.76 10.842-4.238 2.078-8.977 1.594-12.709-1.297l-156.862-121.545c-7.354-5.699-17.297-5.699-24.649 0l-156.864 121.545c-3.73 2.891-8.471 3.375-12.709 1.297-4.238-2.076-6.759-6.119-6.759-10.842v-438.187c0-16.625 13.559-30.184 30.184-30.184h316.944c16.625 0 30.184 13.559 30.184 30.184zm-188.656 59.242-23.315 58.707-63.036 4.031 48.627 40.316-15.644 61.199 53.368-33.788 53.369 33.789-15.645-61.199 48.628-40.316-63.036-4.031zm0-42.539c-72.515 0-131.299 58.785-131.299 131.299 0 72.513 58.784 131.298 131.299 131.298s131.299-58.785 131.299-131.298c-.001-72.514-58.785-131.299-131.299-131.299z" fill-rule="evenodd" fill="#ff9200" data-original="#000000" class=""></path></g></svg>