<svg xmlns="http://www.w3.org/2000/svg" version="1.1" xmlns:xlink="http://www.w3.org/1999/xlink" xmlns:svgjs="http://svgjs.com/svgjs" width="512" height="512" x="0" y="0" viewBox="0 0 512 512" style="enable-background:new 0 0 512 512" xml:space="preserve"><g><path d="m307.66 465.229c0-17.696-14.346-32.042-32.042-32.042h-39.236c-8.498 0-16.648 3.376-22.657 9.385s-9.385 14.159-9.385 22.657c0 17.696 14.346 32.042 32.042 32.042h39.236c17.696 0 32.042-14.346 32.042-32.042zm-240.299-82.623c5.352.409 11.827.644 18.331.263 3.465 17.572 12.073 33.87 24.922 46.72 17.058 17.057 40.193 26.64 64.316 26.64h12.226c-.539 2.95-.816 5.961-.816 9 0 3.073.277 6.082.808 9h-12.218c-28.897 0-56.611-11.479-77.044-31.912-16.301-16.302-26.904-37.237-30.525-59.711zm-9.156-19.153c-14.211-2.396-27.435-9.152-37.758-19.476-13.092-13.092-20.447-30.849-20.447-49.364v-42.543c0-18.515 7.355-36.272 20.447-49.364s30.849-20.448 49.364-20.448h4.647c7.428-93.756 85.87-167.529 181.542-167.529s174.114 73.773 181.542 167.529h4.647c18.515 0 36.272 7.356 49.364 20.448s20.447 30.849 20.447 49.364v42.543c0 18.515-7.355 36.272-20.447 49.364-13.092 13.093-30.849 20.448-49.364 20.448h-20.601c-8.544 0-15.47-6.927-15.47-15.47v-152.108c0-82.908-67.21-150.118-150.118-150.118s-150.118 67.21-150.118 150.118v152.108c0 6.032-3.453 11.259-8.491 13.81-13.868 4.812-35.375 1.331-39.186.688z" fill="#ff9200" data-original="#000000"></path></g></svg>