<svg width="30" height="30" viewBox="0 0 30 30" fill="none" xmlns="http://www.w3.org/2000/svg">
<path d="M9.41993 0.000244203C10.3649 0.0304958 11.2799 0.204177 12.1664 0.52154H12.2549C12.3149 0.55154 12.3599 0.584697 12.3899 0.614697C12.7214 0.7268 13.0349 0.853114 13.3349 1.0268L13.9049 1.29521C14.1299 1.42153 14.3999 1.65678 14.5499 1.7531C14.6999 1.84626 14.8649 1.94257 14.9999 2.05151C16.6663 0.711011 18.6898 -0.0152929 20.7748 0.000244203C21.7213 0.000244203 22.6663 0.14102 23.5648 0.458383C29.1012 2.35309 31.0962 8.74772 29.4297 14.3371C28.4847 17.1934 26.9397 19.8002 24.9163 21.9301C22.0198 24.8827 18.8413 27.5037 15.4199 29.7616L15.0449 30L14.6549 29.7458C11.2214 27.5037 8.02494 24.8827 5.10147 21.9143C3.09149 19.7844 1.54501 17.1934 0.585019 14.3371C-1.10996 8.74772 0.885016 2.35309 6.48146 0.425226C6.91645 0.267334 7.36495 0.15681 7.81494 0.0952316H7.99494C8.41644 0.0304958 8.83493 0.000244203 9.25493 0.000244203H9.41993ZM22.7848 4.98989C22.1698 4.76726 21.4948 5.1162 21.2698 5.77935C21.0598 6.44249 21.3898 7.1688 22.0198 7.40406C22.9813 7.783 23.6248 8.7793 23.6248 9.88296V9.93191C23.5963 10.2935 23.6998 10.6424 23.9098 10.9108C24.1198 11.1793 24.4348 11.3356 24.7648 11.3687C25.3798 11.3514 25.9048 10.8319 25.9498 10.1672V9.97928C25.9948 7.76721 24.7213 5.76356 22.7848 4.98989Z" fill="#FF4C4B"/>
</svg>
