<svg width="22" height="26" viewBox="0 0 22 26" fill="none" xmlns="http://www.w3.org/2000/svg">
<path fill-rule="evenodd" clip-rule="evenodd" d="M15.2278 7.35794V4C15.2278 1.78667 13.4412 0 11.2278 0C9.01451 0 7.22785 1.78667 7.22785 4V12C7.22785 12.9427 7.55193 13.8079 8.09504 14.4907L6.20682 16.379C5.41882 15.4766 4.86875 14.3613 4.65451 13.1333C4.54785 12.48 4.00118 12 3.34785 12C2.53451 12 1.89451 12.72 2.01451 13.52C2.31089 15.3345 3.13133 16.9707 4.31527 18.2705L0.292893 22.2929C-0.0976308 22.6834 -0.0976312 23.3166 0.292893 23.7071C0.683417 24.0976 1.31658 24.0976 1.70711 23.7071L21.7071 3.70711C22.0976 3.31658 22.0976 2.68342 21.7071 2.29289C21.3166 1.90237 20.6834 1.90237 20.2929 2.29289L15.2278 7.35794ZM9.89451 21.2267C8.90969 21.0864 7.97431 20.7931 7.11355 20.3714L9.14995 18.335C9.8038 18.5502 10.5022 18.6667 11.2278 18.6667C14.5212 18.6667 17.2545 16.2667 17.8012 13.1333C17.9078 12.48 18.4545 12 19.1078 12C19.9212 12 20.5745 12.72 20.4412 13.52C19.7878 17.52 16.5878 20.6533 12.5612 21.2267V24C12.5612 24.7333 11.9612 25.3333 11.2278 25.3333C10.4945 25.3333 9.89451 24.7333 9.89451 24V21.2267ZM11.4936 15.9914C13.4946 15.8609 15.0887 14.2668 15.2192 12.2657L11.4936 15.9914Z" fill="white"/>
</svg>
