<svg width="19" height="26" viewBox="0 0 19 26" fill="none" xmlns="http://www.w3.org/2000/svg">
<path d="M9.22785 16C11.4412 16 13.2278 14.2133 13.2278 12V4C13.2278 1.78667 11.4412 0 9.22785 0C7.01451 0 5.22785 1.78667 5.22785 4V12C5.22785 14.2133 7.01451 16 9.22785 16ZM17.1078 12C16.4545 12 15.9078 12.48 15.8012 13.1333C15.2545 16.2667 12.5212 18.6667 9.22785 18.6667C5.93451 18.6667 3.20118 16.2667 2.65451 13.1333C2.54785 12.48 2.00118 12 1.34785 12C0.534513 12 -0.105487 12.72 0.0145133 13.52C0.667847 17.52 3.86785 20.6533 7.89451 21.2267V24C7.89451 24.7333 8.49451 25.3333 9.22785 25.3333C9.96118 25.3333 10.5612 24.7333 10.5612 24V21.2267C14.5878 20.6533 17.7878 17.52 18.4412 13.52C18.5745 12.72 17.9212 12 17.1078 12Z" fill="white"/>
</svg>
