<svg width="21" height="22" viewBox="0 0 21 22" fill="none" xmlns="http://www.w3.org/2000/svg">
<path d="M0.299441 20.726C0.10756 20.5314 0 20.2691 0 19.9958C0 19.7225 0.10756 19.4602 0.299441 19.2656L3.43038 16.1458C2.67647 16.1434 1.95263 15.8497 1.41033 15.326C0.868032 14.8022 0.549275 14.0891 0.520721 13.3357C0.310517 11.2759 0.310517 9.20002 0.520721 7.14022C0.580905 6.40516 0.911865 5.71863 1.44946 5.21374C1.98706 4.70885 2.693 4.42156 3.43038 4.40757H5.45496L9.31608 1.24346C9.87148 0.791961 10.55 0.518247 11.2632 0.457973C11.8742 0.48049 12.4614 0.700877 12.9362 1.08597C13.4111 1.47107 13.748 2.00002 13.8963 2.59319C14.0296 3.12702 14.1184 3.67099 14.1618 4.2195L14.2503 4.9718C14.2503 5.08243 14.2503 5.19308 14.2503 5.31477L19.262 0.30307C19.3567 0.207069 19.4695 0.130849 19.5939 0.0788188C19.7183 0.0267887 19.8518 0 19.9866 0C20.1215 0 20.255 0.0267887 20.3794 0.0788188C20.5038 0.130849 20.6166 0.207069 20.7113 0.30307C20.8966 0.496632 21 0.754249 21 1.0222C21 1.29014 20.8966 1.54774 20.7113 1.74131L1.73769 20.7039C1.64237 20.8002 1.52854 20.8764 1.40307 20.9277C1.2776 20.979 1.14306 21.0045 1.00751 21.0026C0.745046 21.003 0.4921 20.9042 0.299441 20.726ZM11.1304 20.0954C10.4768 20.0419 9.85701 19.7824 9.36031 19.3541L7.92209 18.2478C7.72465 18.0875 7.59868 17.8555 7.57174 17.6026C7.54479 17.3497 7.61904 17.0964 7.77826 16.8981L7.84464 16.8206C8.15441 16.4445 12.9891 12.0413 13.144 11.8864C13.2355 11.8055 13.3425 11.7441 13.4585 11.706C13.5746 11.668 13.6972 11.6541 13.8188 11.6651C14.2503 11.7757 14.3388 12.3842 14.3278 12.871C14.3278 14.2761 14.2614 15.2607 14.1839 15.8581L14.1286 16.356C14.0917 16.8892 14.0103 17.4184 13.8852 17.938C13.7482 18.5438 13.4167 19.0881 12.9412 19.4876C12.4657 19.8872 11.8725 20.1201 11.2522 20.1507L11.1304 20.0954Z" fill="white"/>
</svg>
