<svg width="27" height="22" viewBox="0 0 27 22" fill="none" xmlns="http://www.w3.org/2000/svg">
<path fill-rule="evenodd" clip-rule="evenodd" d="M21.7071 1.70711C22.0977 1.31658 22.0977 0.683418 21.7071 0.292893C21.3166 -0.0976311 20.6834 -0.0976311 20.2929 0.292893L17.9104 2.67542C17.794 2.54717 17.6707 2.42438 17.5407 2.30763C16.5375 1.40674 15.2188 0.938994 13.8722 1.00639H5.8786C5.21102 1.03315 4.55526 1.19127 3.94886 1.47171C3.34246 1.75216 2.79732 2.14943 2.34461 2.64077C1.89189 3.13212 1.54049 3.7079 1.31053 4.33519C1.08057 4.96247 0.976551 5.62895 1.00443 6.29648V15.7069C1.06121 16.74 1.43125 17.7234 2.05436 18.5314L0.292893 20.2929C-0.097631 20.6834 -0.0976313 21.3166 0.292893 21.7071C0.683418 22.0976 1.31658 22.0976 1.70711 21.7071L3.5678 19.8464C3.58929 19.8586 3.61086 19.8707 3.63251 19.8826L18.9857 4.52944C18.9774 4.50416 18.969 4.47895 18.9604 4.45381L21.7071 1.70711ZM5.97588 20.5091L19.2273 7.25762V15.2259C19.2767 16.5723 18.7922 17.8836 17.8793 18.8744C16.9664 19.8652 15.699 20.4552 14.3532 20.516H6.34652V20.503C6.22267 20.5096 6.09905 20.5115 5.97588 20.5091ZM24.3485 17.3836L22.4248 16.4217C22.0761 16.2424 21.7836 15.9704 21.5795 15.6356C21.3754 15.3008 21.2676 14.9162 21.268 14.5241V6.98536C21.2631 6.59234 21.3691 6.20588 21.5736 5.87026C21.7782 5.53465 22.0732 5.26344 22.4248 5.08769L24.3485 4.11286C24.6271 3.97017 24.9384 3.90345 25.251 3.91943C25.5636 3.9354 25.8665 4.0335 26.1292 4.20384C26.3974 4.37211 26.6181 4.60608 26.7705 4.8836C26.9229 5.16111 27.0019 5.47297 27 5.78957V15.7589C27.0019 16.0755 26.9229 16.3873 26.7705 16.6648C26.6181 16.9423 26.3974 17.1763 26.1292 17.3446C25.842 17.5288 25.5085 17.628 25.1673 17.6305C24.8826 17.6324 24.6017 17.5655 24.3485 17.4356V17.3836Z" fill="white"/>
</svg>
