<svg width="27" height="19" viewBox="0 0 27 19" fill="none" xmlns="http://www.w3.org/2000/svg">
<path d="M0.308594 15.749C0.308594 13.1735 3.88683 12.519 8.06674 12.519C12.2466 12.519 15.8249 13.1946 15.8249 15.7806C15.8249 18.3667 12.2466 19 8.06674 19C3.88683 19 0.308594 18.335 0.308594 15.749ZM17.8621 16.2556C18.221 12.9729 15.3711 11.4107 14.6322 11.0518C14.6276 11.0438 14.6251 11.0347 14.6251 11.0255C14.6251 11.0162 14.6276 11.0071 14.6322 10.9991C15.9597 10.9743 17.2863 11.0875 18.5904 11.3368C19.1147 11.3734 19.623 11.5329 20.0741 11.8025C20.5252 12.0721 20.9065 12.4441 21.1871 12.8885C21.338 13.1956 21.4164 13.5332 21.4164 13.8754C21.4164 14.2176 21.338 14.5552 21.1871 14.8623C20.6276 16.0551 18.8121 16.4351 18.1154 16.5301C18.0566 16.5301 18.0003 16.5067 17.9587 16.4651C17.9171 16.4236 17.8937 16.3672 17.8937 16.3084L17.8621 16.2556ZM2.93686 5.0353C2.94101 4.36995 3.07616 3.71193 3.33462 3.09881C3.59307 2.48569 3.96976 1.92949 4.44317 1.46195C4.91659 0.994419 5.4775 0.624707 6.0938 0.373935C6.7101 0.123163 7.36975 -0.00377068 8.03511 0.000400774C8.70047 -0.00796827 9.36095 0.11481 9.97886 0.361726C10.5968 0.608642 11.16 0.974867 11.6364 1.43947C12.1127 1.90407 12.4929 2.45797 12.7552 3.06951C13.0175 3.68105 13.1567 4.33827 13.165 5.00363C13.1595 5.66899 13.023 6.32675 12.7632 6.93934C12.5035 7.55193 12.1256 8.10736 11.6512 8.57392C11.1768 9.04048 10.6152 9.40902 9.99832 9.65851C9.38148 9.908 8.72159 10.0335 8.05624 10.028C7.39087 10.0363 6.73033 9.91356 6.11242 9.66664C5.49451 9.41973 4.93133 9.05352 4.45496 8.58891C3.9786 8.12431 3.59838 7.57042 3.3361 6.95887C3.07382 6.34733 2.93456 5.69011 2.9263 5.02475L2.93686 5.0353ZM14.8222 9.32076C14.6241 9.31077 14.4268 9.28963 14.2311 9.25743C14.2064 9.25493 14.1825 9.24734 14.1609 9.23514C14.1393 9.22295 14.1205 9.20642 14.1056 9.18658C14.0908 9.16675 14.0802 9.14404 14.0745 9.1199C14.0689 9.09576 14.0682 9.07071 14.0727 9.04633C14.0647 9.02236 14.0647 8.99641 14.0727 8.97243C14.8713 7.81398 15.2902 6.43596 15.2713 5.02903C15.2524 3.62211 14.7967 2.25585 13.9672 1.11928C13.9549 1.10043 13.9484 1.07842 13.9484 1.05593C13.9484 1.03345 13.9549 1.01145 13.9672 0.992605C13.9916 0.962254 14.0248 0.940147 14.0622 0.929275C14.3476 0.875068 14.6372 0.846803 14.9277 0.844831C15.4901 0.832173 16.0494 0.932035 16.5727 1.13854C17.0959 1.34505 17.5727 1.65404 17.9749 2.04736C18.377 2.44069 18.6965 2.91044 18.9146 3.42898C19.1327 3.94753 19.245 4.50442 19.2449 5.06696C19.2526 5.4515 19.2064 5.83523 19.1076 6.20694C18.8582 7.12609 18.3054 7.9339 17.5389 8.49919C16.7724 9.06447 15.8373 9.354 14.8855 9.32076H14.8222Z" fill="#99A7C7"/>
<path d="M22.5799 9.24414V8.00917H21.3133C21.0746 7.98418 20.8535 7.87163 20.6929 7.69328C20.5322 7.51492 20.4434 7.28339 20.4434 7.04335C20.4434 6.8033 20.5322 6.57177 20.6929 6.39341C20.8535 6.21506 21.0746 6.10253 21.3133 6.07754H22.5799V4.84257C22.5799 4.71781 22.6045 4.59428 22.6523 4.47902C22.7 4.36376 22.77 4.25904 22.8582 4.17083C22.9464 4.08261 23.0511 4.01264 23.1664 3.96489C23.2817 3.91715 23.4052 3.89258 23.5299 3.89258C23.6547 3.89258 23.7782 3.91715 23.8935 3.96489C24.0087 4.01264 24.1135 4.08261 24.2017 4.17083C24.2899 4.25904 24.3599 4.36376 24.4076 4.47902C24.4553 4.59428 24.4799 4.71781 24.4799 4.84257V6.07754H25.7465C25.9853 6.10253 26.2064 6.21506 26.367 6.39341C26.5277 6.57177 26.6165 6.8033 26.6165 7.04335C26.6165 7.28339 26.5277 7.51492 26.367 7.69328C26.2064 7.87163 25.9853 7.98418 25.7465 8.00917H24.4799V9.24414C24.4799 9.49609 24.3799 9.73771 24.2017 9.91586C24.0235 10.094 23.7819 10.1941 23.5299 10.1941C23.278 10.1941 23.0363 10.094 22.8582 9.91586C22.68 9.73771 22.5799 9.49609 22.5799 9.24414Z" fill="#99A7C7"/>
</svg>
