<svg width="26" height="20" viewBox="0 0 26 20" fill="none" xmlns="http://www.w3.org/2000/svg">
<path d="M5.34651 19.503C4.00247 19.5739 2.6852 19.1088 1.68371 18.2096C0.682214 17.3105 0.0782871 16.0508 0.00442568 14.7069V5.29648C-0.0234499 4.62895 0.0805674 3.96247 0.310529 3.33519C0.54049 2.7079 0.891888 2.13212 1.3446 1.64077C1.79732 1.14943 2.34245 0.752159 2.94886 0.471714C3.55526 0.19127 4.21101 0.0331498 4.87859 0.00639205H12.8722C14.2188 -0.0610063 15.5375 0.406737 16.5406 1.30763C17.5438 2.20852 18.1501 3.46947 18.2273 4.81556V14.2259C18.2767 15.5723 17.7922 16.8836 16.8793 17.8744C15.9664 18.8652 14.699 19.4552 13.3531 19.516H5.34651V19.503ZM23.3484 16.3836L21.4247 15.4217C21.076 15.2424 20.7836 14.9704 20.5795 14.6356C20.3754 14.3008 20.2676 13.9162 20.2679 13.5241V5.98536C20.2631 5.59234 20.369 5.20588 20.5736 4.87026C20.7782 4.53465 21.0732 4.26344 21.4247 4.08769L23.3484 3.11286C23.627 2.97017 23.9383 2.90345 24.251 2.91943C24.5636 2.9354 24.8665 3.0335 25.1291 3.20384C25.3973 3.37211 25.6181 3.60608 25.7705 3.8836C25.9229 4.16111 26.0019 4.47297 26 4.78957V14.7589C26.0019 15.0755 25.9229 15.3873 25.7705 15.6648C25.6181 15.9423 25.3973 16.1763 25.1291 16.3446C24.8419 16.5288 24.5085 16.628 24.1673 16.6305C23.8826 16.6324 23.6017 16.5655 23.3484 16.4356V16.3836Z" fill="white"/>
</svg>
