<svg width="24" height="10" viewBox="0 0 24 10" fill="none" xmlns="http://www.w3.org/2000/svg">
<path d="M4.50979 9.48035L6.50979 7.89035C6.98979 7.51035 7.26979 6.93035 7.26979 6.32035V3.72035C10.2898 2.74035 13.5598 2.73035 16.5898 3.72035V6.33035C16.5898 6.94035 16.8698 7.52035 17.3498 7.90035L19.3398 9.48035C20.1398 10.1104 21.2798 10.0504 21.9998 9.33035L23.2198 8.11035C24.0198 7.31035 24.0198 5.98035 23.1698 5.23035C16.7598 -0.429649 7.09979 -0.429649 0.689791 5.23035C-0.160209 5.98035 -0.160209 7.31035 0.639791 8.11035L1.85979 9.33035C2.56979 10.0504 3.70979 10.1104 4.50979 9.48035Z" fill="white"/>
</svg>
