<svg width="21" height="20" viewBox="0 0 21 20" fill="none" xmlns="http://www.w3.org/2000/svg">
    <path
        d="M9.73617 18.6285V16.8544C7.90976 16.6564 6.21985 15.7942 4.98791 14.4318C3.75596 13.0693 3.06793 11.3017 3.05469 9.4652C3.05469 9.22993 3.14817 9.00431 3.31458 8.83795C3.48098 8.67159 3.70667 8.57814 3.942 8.57814C4.17733 8.57814 4.40303 8.67159 4.56943 8.83795C4.73583 9.00431 4.82932 9.22993 4.82932 9.4652C4.82932 11.0085 5.44258 12.4886 6.53419 13.5799C7.6258 14.6712 9.10634 15.2843 10.6501 15.2843C12.1939 15.2843 13.6744 14.6712 14.766 13.5799C15.8576 12.4886 16.4709 11.0085 16.4709 9.4652C16.4381 9.33439 16.4356 9.19784 16.4635 9.06591C16.4914 8.93399 16.5491 8.81017 16.632 8.70385C16.715 8.59754 16.8212 8.51153 16.9424 8.45238C17.0636 8.39323 17.1967 8.36249 17.3316 8.36249C17.4665 8.36249 17.5996 8.39323 17.7208 8.45238C17.842 8.51153 17.9482 8.59754 18.0311 8.70385C18.1141 8.81017 18.1718 8.93399 18.1997 9.06591C18.2276 9.19784 18.2251 9.33439 18.1923 9.4652C18.1776 11.31 17.4821 13.0844 16.2392 14.4481C14.9963 15.8118 13.2936 16.6686 11.4576 16.8544V18.6285C11.4095 18.8203 11.2987 18.9906 11.1427 19.1122C10.9868 19.2339 10.7947 19.2999 10.5969 19.2999C10.3991 19.2999 10.2069 19.2339 10.051 19.1122C9.89507 18.9906 9.78426 18.8203 9.73617 18.6285ZM10.4372 13.457C9.41969 13.4617 8.44191 13.0627 7.7183 12.3477C6.9947 11.6326 6.58437 10.6598 6.57733 9.6426V3.81435C6.5867 2.79794 6.99777 1.82647 7.72087 1.1119C8.44397 0.397317 9.4204 -0.00238522 10.4372 0H10.7566C11.7733 -0.00238522 12.7498 0.397317 13.4729 1.1119C14.196 1.82647 14.607 2.79794 14.6164 3.81435V9.59826C14.6094 10.6154 14.199 11.5882 13.4754 12.3033C12.7518 13.0184 11.774 13.4173 10.7566 13.4126H10.4372V13.457Z"
        fill="#C8D1E5" />
    <mask id="mask0_2277_14144" style="mask-type:alpha" maskUnits="userSpaceOnUse" x="0" y="6" width="21" height="14">
        <path d="M0 6.875H20.6177V19.8565H0V6.875Z" fill="#D9D9D9" />
    </mask>
    <g mask="url(#mask0_2277_14144)">
        <path
            d="M9.73617 18.6285V16.8544C7.90976 16.6564 6.21985 15.7942 4.98791 14.4318C3.75596 13.0693 3.06793 11.3017 3.05469 9.4652C3.05469 9.22994 3.14817 9.00431 3.31458 8.83796C3.48098 8.6716 3.70667 8.57814 3.942 8.57814C4.17733 8.57814 4.40303 8.6716 4.56943 8.83796C4.73583 9.00431 4.82932 9.22994 4.82932 9.4652C4.82932 11.0085 5.44258 12.4886 6.53419 13.5799C7.6258 14.6712 9.10634 15.2843 10.6501 15.2843C12.1939 15.2843 13.6744 14.6712 14.766 13.5799C15.8576 12.4886 16.4709 11.0085 16.4709 9.4652C16.4381 9.3344 16.4356 9.19785 16.4635 9.06592C16.4914 8.93399 16.5491 8.81017 16.632 8.70386C16.715 8.59755 16.8212 8.51154 16.9424 8.45238C17.0636 8.39324 17.1967 8.3625 17.3316 8.3625C17.4665 8.3625 17.5996 8.39324 17.7208 8.45238C17.842 8.51154 17.9482 8.59755 18.0311 8.70386C18.1141 8.81017 18.1718 8.93399 18.1997 9.06592C18.2276 9.19785 18.2251 9.3344 18.1923 9.4652C18.1776 11.31 17.4821 13.0844 16.2392 14.4481C14.9963 15.8118 13.2936 16.6686 11.4576 16.8544V18.6285C11.4095 18.8203 11.2987 18.9906 11.1427 19.1122C10.9868 19.2338 10.7947 19.2999 10.5969 19.2999C10.3991 19.2999 10.2069 19.2338 10.051 19.1122C9.89507 18.9906 9.78426 18.8203 9.73617 18.6285ZM10.4372 13.457C9.4197 13.4617 8.44191 13.0627 7.71831 12.3477C6.9947 11.6326 6.58437 10.6598 6.57733 9.64261V3.81436C6.5867 2.79795 6.99777 1.82648 7.72087 1.11191C8.44397 0.397327 9.4204 -0.0023746 10.4372 1.06143e-05H10.7566C11.7733 -0.0023746 12.7498 0.397327 13.4729 1.11191C14.196 1.82648 14.607 2.79795 14.6164 3.81436V9.59827C14.6094 10.6154 14.199 11.5882 13.4754 12.3033C12.7518 13.0184 11.774 13.4173 10.7566 13.4126H10.4372V13.457Z"
            fill="#FF9200" />
    </g>
</svg>