<svg width="16" height="20" viewBox="0 0 16 20" fill="none" xmlns="http://www.w3.org/2000/svg">
<path d="M6.73617 18.6285V16.8544C4.90976 16.6564 3.21985 15.7942 1.98791 14.4318C0.755959 13.0693 0.0679266 11.3017 0.0546875 9.4652C0.0546875 9.22993 0.148172 9.00431 0.314576 8.83795C0.48098 8.67159 0.706672 8.57814 0.942003 8.57814C1.17733 8.57814 1.40303 8.67159 1.56943 8.83795C1.73583 9.00431 1.82932 9.22993 1.82932 9.4652C1.82932 11.0085 2.44258 12.4886 3.53419 13.5799C4.6258 14.6712 6.10634 15.2843 7.65011 15.2843C9.19388 15.2843 10.6744 14.6712 11.766 13.5799C12.8576 12.4886 13.4709 11.0085 13.4709 9.4652C13.4381 9.33439 13.4356 9.19784 13.4635 9.06591C13.4914 8.93399 13.5491 8.81017 13.632 8.70385C13.715 8.59754 13.8212 8.51153 13.9424 8.45238C14.0636 8.39323 14.1967 8.36249 14.3316 8.36249C14.4665 8.36249 14.5996 8.39323 14.7208 8.45238C14.842 8.51153 14.9482 8.59754 15.0311 8.70385C15.1141 8.81017 15.1718 8.93399 15.1997 9.06591C15.2276 9.19784 15.2251 9.33439 15.1923 9.4652C15.1776 11.31 14.4821 13.0844 13.2392 14.4481C11.9963 15.8118 10.2936 16.6686 8.45757 16.8544V18.6285C8.40948 18.8203 8.29867 18.9906 8.14273 19.1122C7.98679 19.2339 7.79466 19.2999 7.59687 19.2999C7.39907 19.2999 7.20695 19.2339 7.05101 19.1122C6.89507 18.9906 6.78426 18.8203 6.73617 18.6285ZM7.43715 13.457C6.4197 13.4617 5.44191 13.0627 4.7183 12.3477C3.9947 11.6326 3.58437 10.6598 3.57733 9.6426V3.81435C3.5867 2.79794 3.99777 1.82647 4.72087 1.1119C5.44397 0.397317 6.4204 -0.00238522 7.43715 0H7.75659C8.77334 -0.00238522 9.74977 0.397317 10.4729 1.1119C11.196 1.82647 11.607 2.79794 11.6164 3.81435V9.59826C11.6094 10.6154 11.199 11.5882 10.4754 12.3033C9.75183 13.0184 8.77404 13.4173 7.75659 13.4126H7.43715V13.457Z" fill="#C8D1E5"/>
</svg>
