<svg width="26" height="25" viewBox="0 0 26 25" fill="none" xmlns="http://www.w3.org/2000/svg">
<path d="M9.40869 12.3338C9.40869 14.3811 11.0614 16.0338 13.1087 16.0338C15.156 16.0338 16.8087 14.3811 16.8087 12.3338C16.8087 10.2865 15.156 8.63379 13.1087 8.63379C11.0614 8.63379 9.40869 10.2865 9.40869 12.3338Z" fill="white"/>
<path d="M8.17539 8.63333C8.17539 7.955 7.62039 7.4 6.94206 7.4H4.58639C6.28839 4.45233 9.47039 2.46667 13.1087 2.46667C17.4131 2.46667 21.0637 5.22933 22.4081 9.07733C22.5807 9.55833 23.0617 9.86667 23.5674 9.86667C24.4061 9.86667 25.0227 9.04033 24.7514 8.251C23.0617 3.441 18.4861 0 13.1087 0C9.07572 0 5.48672 1.94867 3.24206 4.94567V3.7C3.24206 3.02167 2.68706 2.46667 2.00872 2.46667C1.33039 2.46667 0.775391 3.02167 0.775391 3.7V8.63333C0.775391 9.31167 1.33039 9.86667 2.00872 9.86667H6.94206C7.62039 9.86667 8.17539 9.31167 8.17539 8.63333Z" fill="white"/>
<path d="M18.0422 16.0331C18.0422 16.7115 18.5972 17.2665 19.2755 17.2665H21.6312C19.9292 20.2141 16.7472 22.1998 13.1088 22.1998C8.80449 22.1998 5.15382 19.4371 3.80949 15.5891C3.63682 15.1081 3.15582 14.7998 2.65015 14.7998C1.81149 14.7998 1.19482 15.6261 1.46615 16.4155C3.15582 21.2255 7.73149 24.6665 13.1088 24.6665C17.1418 24.6665 20.7308 22.7178 22.9755 19.7208V20.9665C22.9755 21.6448 23.5305 22.1998 24.2088 22.1998C24.8872 22.1998 25.4422 21.6448 25.4422 20.9665V16.0331C25.4422 15.3548 24.8872 14.7998 24.2088 14.7998H19.2755C18.5972 14.7998 18.0422 15.3548 18.0422 16.0331Z" fill="white"/>
</svg>
