<svg width="24" height="20" viewBox="0 0 24 20" fill="none" xmlns="http://www.w3.org/2000/svg">
<path d="M10.4571 19.0361C9.83384 18.9918 9.24268 18.7427 8.77561 18.3276L5.04241 15.2183H3.12822C2.40315 15.2076 1.7105 14.9162 1.19577 14.4054C0.681043 13.8946 0.384337 13.2042 0.367999 12.4793C0.167047 10.4855 0.167047 8.47661 0.367999 6.48287C0.419752 5.7779 0.7302 5.11693 1.23969 4.62695C1.74919 4.13698 2.42177 3.85258 3.12822 3.82839H5.04241L8.70157 0.761447C9.21734 0.316711 9.86254 0.0497377 10.5418 0C11.1334 0.0297871 11.6989 0.252814 12.1517 0.634867C12.6044 1.01692 12.9193 1.53691 13.0482 2.11513C13.1669 2.63745 13.2482 3.16757 13.2914 3.70147L13.3443 4.1668C13.5347 7.76353 13.5347 11.3678 13.3443 14.9645L13.2914 15.451C13.2534 15.9681 13.172 16.481 13.0482 16.9845C12.9269 17.5626 12.617 18.0841 12.1672 18.4669C11.7173 18.8498 11.153 19.0723 10.5629 19.0996L10.4571 19.0361ZM19.5628 18.8035C19.3621 18.643 19.2268 18.4149 19.182 18.1619C19.1373 17.9089 19.1861 17.6483 19.3195 17.4287C20.7781 15.0498 21.5502 12.3138 21.5502 9.52336C21.5502 6.73294 20.7781 3.99691 19.3195 1.61807C19.1712 1.40293 19.1137 1.13807 19.1592 0.880781C19.2047 0.62349 19.3497 0.394464 19.5628 0.243251C19.7683 0.0967546 20.023 0.0368311 20.2723 0.0763932C20.5215 0.115955 20.7453 0.251834 20.8953 0.454761V0.454761C22.5751 3.16967 23.465 6.29906 23.465 9.49164C23.465 12.6842 22.5751 15.8136 20.8953 18.5285C20.8065 18.6597 20.6867 18.767 20.5465 18.8408C20.4062 18.9146 20.25 18.9527 20.0915 18.9516C19.9046 18.9552 19.7207 18.9037 19.5628 18.8035V18.8035ZM16.2209 15.6308C16.0175 15.4699 15.8804 15.2398 15.8355 14.9844C15.7907 14.729 15.8412 14.466 15.9776 14.2454C16.8355 12.8313 17.2892 11.2091 17.2892 9.55509C17.2892 7.90113 16.8355 6.27885 15.9776 4.8648C15.8412 4.64422 15.7907 4.38122 15.8355 4.1258C15.8804 3.87037 16.0175 3.64033 16.2209 3.47939C16.3234 3.40657 16.4394 3.35479 16.5621 3.32706C16.6848 3.29933 16.8117 3.29618 16.9356 3.31781C17.0596 3.33945 17.1779 3.38544 17.284 3.45311C17.39 3.52077 17.4816 3.60879 17.5534 3.71206C18.6361 5.45897 19.2098 7.47341 19.2098 9.52866C19.2098 11.5839 18.6361 13.5983 17.5534 15.3453C17.4849 15.4504 17.3963 15.541 17.2927 15.6118C17.1891 15.6826 17.0725 15.7322 16.9496 15.7577C16.8268 15.7833 16.7 15.7843 16.5768 15.7607C16.4535 15.7371 16.3362 15.6893 16.2315 15.6202L16.2209 15.6308Z" fill="white"/>
</svg>
