<svg width="24" height="24" viewBox="0 0 24 24" fill="none" xmlns="http://www.w3.org/2000/svg">
<path d="M21.9999 0H13.6873C13.1374 0 12.3688 0.318575 11.9803 0.706819L0.583634 12.1035C-0.194545 12.8808 -0.194545 14.1552 0.583634 14.9316L9.06936 23.4171C9.84578 24.1944 11.119 24.1944 11.8965 23.4162L23.2932 12.0213C23.6814 11.6331 24 10.8633 24 10.3146V2.0001C24 0.900296 23.0997 0 21.9999 0ZM17.9997 8.00012C16.8951 8.00012 15.9996 7.1037 15.9996 6.00002C15.9996 4.89453 16.8951 3.99992 17.9997 3.99992C19.1043 3.99992 20.0001 4.89453 20.0001 6.00002C20.0001 7.1037 19.1043 8.00012 17.9997 8.00012Z" fill="#99A7C7"/>
</svg>
