<svg height="512" viewBox="0 0 32 32" width="512" xmlns="http://www.w3.org/2000/svg"><g id="Ikon"><path d="m28.15088 7.87793c-1.88361-3.29521-5.31162-4.75345-9.355-4.73046-6.27488-.07466-12.41249 3.04169-14.94673 8.88676-3.47238 7.83582.18543 17.86911 10.05045 17.47046a14.40542 14.40542 0 0 0 7.22394-1.93441q1.17846-.60493.87646-1.41989a.85569.85569 0 0 0 -1.2998-.48437c-4.04272 2.41543-10.6202 2.74943-13.85893-1.07226-3.77794-4.65514-2.27906-12.21052 1.96479-15.92966 4.41846-3.89668 13.69513-5.46636 17.3952.09054 2.00237 3.40187.96255 8.76809-1.84366 11.44071-1.25156 1.17984-3.48555.967-3.05287-1.2091l1.26949-8.10051c.15286-1.05475-.19542-1.54533-1.33008-1.542a1.28806 1.28806 0 0 0 -1.42042 1.05859l-.18236 1.20709c-.852-2.63-4.18736-3.00662-6.27077-1.60052a10.07276 10.07276 0 0 0 -4.398 7.95c-.09708 5.46076 6.73172 6.7201 9.2854 2.25.27267 3.13931 4.47135 3.29149 6.53786 1.83 4.32536-2.87536 5.83402-9.64582 3.35503-14.16097zm-9.38525 8.17676a6.1999 6.1999 0 0 1 -2.93162 4.126c-1.86385 1.08921-4.13381.10832-3.99017-2.28233.05235-2.5802 1.48023-6.29864 4.50375-6.37792 2.52924-.04861 3.17853 2.22072 2.41804 4.53425z"/></g></svg>