<svg
    xmlns="http://www.w3.org/2000/svg"
    viewBox="0 0 28 28"
    id="vector">
    <path
        id="path"
        d="M 4.958 9.249 L 23.041 9.249 C 23.246 9.249 23.448 9.303 23.625 9.405 C 23.802 9.507 23.95 9.655 24.052 9.832 C 24.154 10.009 24.208 10.211 24.208 10.415 L 24.208 12.457 C 24.208 12.766 24.085 13.063 23.866 13.282 C 23.648 13.501 23.351 13.624 23.041 13.624 L 4.958 13.624 C 4.649 13.624 4.352 13.501 4.133 13.282 C 3.915 13.063 3.792 12.766 3.792 12.457 L 3.792 10.415 C 3.792 10.106 3.915 9.809 4.133 9.59 C 4.352 9.372 4.649 9.249 4.958 9.249 Z"
        fill="none"
        stroke="#8b93b1"
        stroke-width="1.6"
        stroke-linejoin="round"/>
    <path
        id="path_1"
        d="M 14 9.527 C 16.852 -0.681 24.989 6.271 19.615 9.334"
        fill="none"
        stroke="#8b93b1"
        stroke-width="1.6"
        stroke-linejoin="round"/>
    <path
        id="path_2"
        d="M 14.058 9.527 C 11.206 -0.681 3.011 6.271 8.385 9.334"
        fill="none"
        stroke="#8b93b1"
        stroke-width="1.6"
        stroke-linejoin="round"/>
    <path
        id="path_3"
        d="M 4.813 13.563 L 23.188 13.563 L 23.188 22.208 C 23.188 23.313 22.292 24.208 21.188 24.208 L 6.813 24.208 C 5.708 24.208 4.813 23.313 4.813 22.208 L 4.813 13.563 Z"
        fill="none"
        stroke="#8b93b1"
        stroke-width="1.6"
        stroke-linejoin="round"/>
    <path
        id="path_4"
        d="M 14 6.854 L 14 24.208"
        fill="none"
        stroke="#8b93b1"
        stroke-width="1.6"
        stroke-linejoin="round"/>
</svg>
