<svg xmlns="http://www.w3.org/2000/svg" version="1.1" xmlns:xlink="http://www.w3.org/1999/xlink" xmlns:svgjs="http://svgjs.com/svgjs" width="512" height="512" x="0" y="0" viewBox="0 0 24 24" style="enable-background:new 0 0 512 512" xml:space="preserve"><g><path id="image-plus" d="m21.75 11v6a3.383 3.383 0 0 1 -3.75 3.75h-12a3.383 3.383 0 0 1 -3.75-3.75v-10a3.383 3.383 0 0 1 3.75-3.75h7a.75.75 0 0 1 0 1.5h-7c-1.577 0-2.25.673-2.25 2.25v9.25l2.54-2.54a1.008 1.008 0 0 1 1.42 0l.94.94a.5.5 0 0 0 .7 0l4.94-4.94a1.008 1.008 0 0 1 1.42 0l4.54 4.54v-3.25a.75.75 0 0 1 1.5 0zm-13.757-3.25a1.253 1.253 0 1 0 .007 0zm9.007-2h1.25v1.25a.75.75 0 0 0 1.5 0v-1.25h1.25a.75.75 0 0 0 0-1.5h-1.25v-1.25a.75.75 0 0 0 -1.5 0v1.25h-1.25a.75.75 0 0 0 0 1.5z" fill="#ffffff" data-original="#000000"></path></g></svg>