<svg xmlns="http://www.w3.org/2000/svg" version="1.1" xmlns:xlink="http://www.w3.org/1999/xlink" xmlns:svgjs="http://svgjs.com/svgjs" width="512" height="512" x="0" y="0" viewBox="0 0 512 512" style="enable-background:new 0 0 512 512" xml:space="preserve"><g><g><path d="m452 46.01v390c0 6.06-3.65 11.53-9.26 13.86-5.84 2.39-12.2.89-16.35-3.25-1.1-1.11-109.03-105.39-216.39-114.69v-181.83c107.54-9.29 215.29-113.59 216.39-114.7 4.3-4.29 10.74-5.61 16.35-3.25 5.61 2.32 9.26 7.8 9.26 13.86z" fill="#ffffff" data-original="#000000"></path><path d="m512 241.01c0 22.17-12.08 41.56-30 51.95v-103.9c17.92 10.39 30 29.78 30 51.95z" fill="#ffffff" data-original="#000000"></path><path d="m232.852 414.857c2.827-3.867 3.633-8.848 2.168-13.418-4.199-13.154-7.079-25.565-8.635-36.954-10.15-2.027-20.321-3.344-30.414-3.413.899 9.501 2.384 19.385 4.948 29.938h-22.264c-3.093-9.536-6.004-19.515-8.262-30h-80.393c-4.061 0-7.901-.804-11.86-1.199 7.538 59.487 26.913 109.213 27.929 111.766 2.285 5.698 7.793 9.434 13.931 9.434h75c11.658 0 18.849-12.748 12.861-22.705-.19-.32-8.712-15.114-18.071-37.295h30.947c4.79-.001 9.287-2.286 12.115-6.154z" fill="#ffffff" data-original="#000000"></path><path d="m90 331.01h90v-180h-90c-49.629 0-90 40.371-90 90s40.371 90 90 90z" fill="#ffffff" data-original="#000000"></path></g></g></svg>