<?xml version="1.0"?>
<svg xmlns="http://www.w3.org/2000/svg" xmlns:xlink="http://www.w3.org/1999/xlink" xmlns:svgjs="http://svgjs.com/svgjs" version="1.1" width="512px" height="512px" x="0" y="0" viewBox="0 0 24 24" style="enable-background:new 0 0 512 512" xml:space="preserve" class=""><g><clipPath id="clip0_339_5623"><path d="m0 0h24v24h-24z" fill="#868686" data-original="#000000"/></clipPath><g clip-path="url(#clip0_339_5623)"><path clip-rule="evenodd" d="m12 2c1.1046 0 2 .89543 2 2v15c0 1.1046-.8954 2-2 2s-2-.8954-2-2v-15c0-1.10457.8954-2 2-2zm-7 6c1.10457 0 2 .89543 2 2v9c0 1.1046-.89543 2-2 2s-2-.8954-2-2v-9c0-1.10457.89543-2 2-2zm16 2c0-1.10457-.8954-2-2-2s-2 .89543-2 2v9c0 1.1046.8954 2 2 2s2-.8954 2-2z" fill="#868686" fill-rule="evenodd" data-original="#000000"/></g></g></svg>
