<svg id="Layer_1" enable-background="new 0 0 512 512" height="512" viewBox="0 0 512 512" width="512" xmlns="http://www.w3.org/2000/svg"><path d="m256 0c-141.159 0-256 114.841-256 256s114.841 256 256 256 256-114.841 256-256-114.841-256-256-256zm0 480c-123.514 0-224-100.486-224-224s100.486-224 224-224 224 100.486 224 224-100.486 224-224 224zm134.856-146c-27.973 48.445-78.385 77.368-134.852 77.369-56.469.001-106.884-28.922-134.859-77.369-4.419-7.652-1.798-17.438 5.854-21.856 7.654-4.419 17.439-1.797 21.856 5.854 22.191 38.429 62.247 61.372 107.148 61.371 44.899-.001 84.952-22.943 107.141-61.371 4.418-7.653 14.204-10.274 21.856-5.855 7.653 4.419 10.274 14.204 5.856 21.857zm-272.178-141.057c0-17.652 14.361-32.014 32.014-32.014s32.014 14.361 32.014 32.014-14.361 32.014-32.014 32.014-32.014-14.361-32.014-32.014zm274.645 0c0 17.652-14.361 32.014-32.014 32.014s-32.014-14.361-32.014-32.014 14.361-32.014 32.014-32.014c17.652.001 32.014 14.362 32.014 32.014z"/></svg>